<svg viewBox="129.77419354838707 12.012499999999932 444.5967741935483 948.9875000000001" xmlns="http://www.w3.org/2000/svg" overflow="visible" xmlns:xlink="http://www.w3.org/1999/xlink" width="444.5967741935483px" height="948.9875000000001px"><g id="Master/Character/Standing" stroke="none" stroke-width="1" fill="none" fill-rule="evenodd"><g id="Bottom/Standing" transform="translate(39.000000, 389.000000) scale(1 1)"><g id="Bottom/Standing/Jeans" stroke="none" stroke-width="1" fill="none" fill-rule="evenodd"><path d="M363.040641,0.253795154 C362.947951,-0.889401945 363.923857,2.09044221 364.083667,3.9961242 C365.622104,22.2395562 367.900442,54.3602871 369.691379,72.5782676 C371.500428,90.9839529 375.70677,128.523196 377.98353,146.877979 C380.782335,169.443926 381.451554,159.811748 384.543344,182.340579 C387.687338,205.249061 391.066786,228.124668 394.362068,251.01194 C397.30044,271.418751 400.185543,291.835106 403.241109,312.226009 C407.500577,340.653228 411.906005,369.058176 416.209155,397.477971 C416.971981,402.512068 418.026727,410.773205 418.610566,415.829572 C419.266852,421.512683 427.038943,422.197127 421.356101,422.742213 C420.412157,422.832354 419.470343,422.927797 418.610566,423.012636 L422.684914,477.891187 C425.901356,477.891187 428.343252,477.943151 430.783017,477.882703 C444.702465,479.29102 454.103552,479.806413 466.255501,482.45231 C474.663636,484.281638 483.912371,486.552125 490.934421,491.584101 C500.043589,498.110293 504.834691,506.877278 504.99237,518.116242 C505.131938,528.034908 503.341001,537.688455 500.908693,547.231712 C499.828378,551.465147 498.866322,552.066439 494.314934,551.9816 C469.540129,551.520292 444.709923,551.71648 420.097058,548.451263 C399.962068,545.778855 383.113837,539.84335 363.040641,536.718116 C362.327888,536.606766 361.677994,536.103038 360.886402,535.727628 C360.886402,529.871659 360.558259,524.10371 360.941803,518.383483 C362.946885,488.388875 363.951564,456.337998 366.095148,426.352935 C366.274136,423.8449 354.439674,418.525781 351.059161,417.943577 C349.713561,416.894763 349.447211,414.143879 349.186188,412.099274 C347.454913,398.528315 345.96655,384.925542 344.193725,371.359886 C340.545796,343.462908 337.008669,315.548961 332.98785,287.703946 C327.343363,248.609363 322.92262,223.891456 317.680854,184.74597 C314.091522,157.949769 317.020699,123.767327 311.562656,97.3582017 C310.510041,92.2647178 309.610844,87.1394195 308.577406,82.0416936 C308.282291,80.5845946 307.764506,79.1720356 307.34687,77.7393276 C306.943083,77.7499324 300.155494,72.5666023 299.751707,72.5782676 C297.54633,82.4386077 293.456908,97.5151527 291.072543,107.333074 C284.344544,135.037045 277.262832,162.657238 270.719147,190.403629 C258.513928,242.162461 252.892158,283.912015 238.382479,335.08016 C223.8728,386.248305 220.694119,397.999101 213.730666,422.742213 C211.441122,430.876092 209.589458,439.122382 207.899734,447.399426 C206.689439,453.33281 209.441961,451.072716 203.97646,449.846802 C197.781161,448.456513 188.803961,446.842463 182.469094,445.337642 C177.990153,460.855641 173.625211,475.975961 169.1207,491.584101 C170.504655,492.054954 171.652554,493.664143 173.2677,494.140298 C185.966199,497.883792 198.023328,503.015453 208.930891,510.585157 C211.468673,512.344492 213.938269,514.234267 216.251252,516.276751 C227.818297,526.48811 231.000646,538.884057 225.781253,553.411568 C224.915083,555.82416 223.715443,558.115856 222.711836,560.481786 C222.24093,561.586806 221.633652,562.6335 220.939011,563.614443 C213.248956,574.476937 215.0475,570.20658 207.899734,570.009331 C201.538232,569.834352 191.522409,569.231999 185.27597,568.018811 C174.889388,566.000718 171.302931,563.539963 161.325463,559.985236 C152.410198,556.808038 148.87079,558.438861 144.333253,554.725061 C132.90471,545.372691 123.119013,534.443387 113.579424,523.274415 C112.207189,521.667788 111.14392,519.801344 109.931495,518.058976 C106.74595,513.481946 106.154653,508.940972 108.167193,503.403147 C115.600487,482.936949 122.543697,462.293652 129.65311,441.710802 C130.28063,439.8942 130.768583,438.030937 131.43872,435.801809 C125.994527,434.021264 127.76096,430.09961 128.585579,426.352935 C143.600258,358.207571 156.065434,294.845645 176.510455,228.118142 C196.955476,161.39064 204.368528,118.623373 218.196351,69.6822358 C224.320268,48.0060311 227.581645,25.9003321 232.895859,3.9961242 C233.347589,2.13180091 233.320471,3.7878373 234.139764,2.07092069 L363.040641,0.253795154 Z" id="Fill" fill="#FFF"/><path d="M364.765255,1.33328618 C365.333439,3.14991721 365.644032,5.08008769 365.804099,6.98691361 C367.333744,25.2412966 368.585656,43.5222076 370.367592,61.7511238 C372.167548,80.1678576 374.33428,98.553819 376.599595,116.919619 C379.384333,139.499112 382.327017,162.060566 385.404328,184.60292 C388.53146,207.525153 393.893922,230.414492 397.172641,253.315503 C400.097304,273.734564 402.967906,294.163174 406.007054,314.566317 C410.245113,343.0106 414.628399,371.432599 418.91098,399.869453 C419.668912,404.906572 421.718356,413.172668 422.300321,418.23207 C422.732419,421.994987 423.131096,423.517557 421.218398,423.702057 L423.098754,477.924104 C426.299029,477.924104 428.728652,477.976099 431.155095,477.915615 C445.00458,479.324778 454.358416,479.84048 466.450347,482.487965 C474.816221,484.318391 484.01847,486.590241 491.004165,491.625237 C500.067548,498.155347 504.83563,506.927595 504.992516,518.173305 C505.130322,528.097926 503.349447,537.757267 500.928305,547.306252 C499.854479,551.542228 498.897259,552.143881 494.367687,552.058992 C469.718465,551.597406 445.012,551.793713 420.522845,548.526536 C400.490118,545.852523 380.554915,542.430423 360.582611,539.303313 C359.874501,539.191896 359.226813,538.687866 358.44026,538.312231 C358.44026,532.452747 358.113766,526.681335 358.494322,520.957674 C360.490387,490.945062 360.658179,460.943061 362.790989,430.939999 C362.879498,429.693281 362.666366,424.93817 362.666366,424.960608 C362.666366,424.983047 353.186169,425.253632 351.494322,424.960608 C350.154426,423.911164 343.617385,391.275473 341.852411,377.701674 C338.222817,349.787949 334.703468,321.857247 330.703919,293.995517 C325.086742,254.877466 319.605348,215.878261 314.389927,176.709276 C310.819696,149.89699 309.958708,123.587674 304.527039,97.1626956 C303.479714,92.0661542 302.586097,86.9377793 301.557853,81.8369935 C301.264221,80.3790197 300.747979,78.9656129 300.333501,77.5320448 C299.930684,77.542656 299.984747,77.5405337 299.58299,77.552206 C297.388697,87.418465 295.34387,97.3197408 292.97149,107.143555 C286.277307,134.864156 277.228882,162.500929 270.719147,190.263975 C258.575274,242.053876 251.810774,293.680366 237.372964,344.879225 C230.395749,369.623395 224.566444,394.123509 217.636931,418.881473 C215.358895,427.020235 213.517597,435.271475 211.836366,443.553488 C210.631095,449.490433 208.926543,451.089535 203.489573,449.862885 C197.324353,448.471761 191.190933,446.944815 184.886847,445.439091 C180.430418,460.966405 176.088475,476.095801 171.605545,491.71331 C172.983604,492.184446 174.55459,492.783976 176.161618,493.260418 C188.796292,497.006158 200.791759,502.1409 211.645558,509.715147 C214.169525,511.475539 216.627769,513.366449 218.928066,515.410158 C230.436973,525.627647 233.603327,538.031035 228.410167,552.567267 C227.548351,554.981306 226.3558,557.274378 225.356178,559.641729 C224.888698,560.747412 224.283413,561.794734 223.592263,562.776266 C215.94086,573.64528 216.253573,571.994183 209.141732,571.796815 C202.812205,571.621731 192.846723,571.019017 186.631681,569.8051 C176.296244,567.785796 169.502416,566.246116 159.574037,562.689255 C150.703582,559.51015 148.660875,558.520129 144.146144,554.8041 C132.773983,545.446115 123.038532,534.510251 113.546891,523.334575 C112.180493,521.726984 111.122568,519.859419 109.917297,518.116005 C106.746703,513.536227 106.159438,508.992527 108.160803,503.451378 C115.557796,482.972895 122.466108,462.317206 129.538727,441.722001 C130.163093,439.904309 130.648594,438.039927 131.315362,435.809461 C125.899593,434.027847 127.764267,430.149763 128.477622,426.354915 C141.493917,357.111876 154.724313,293.475303 172.710224,225.310571 C186.631681,172.5497 196.94662,122.798192 214.77159,66.5420637 C221.515404,45.2583878 223.333539,33.7843436 228.619983,11.8669873 C229.070502,10.0015449 229.575083,8.11275796 230.389198,6.39481074 C230.68919,5.76132433 232.053468,5.17134369 232.761578,5.32945001 C233.424106,5.47694517 234.138576,6.5752005 234.323024,7.37315993 C234.526552,8.25070308 234.244581,9.28423031 234.015611,10.2105848 C226.708722,39.765856 220.241388,69.5620006 211.879755,98.8159148 C195.091825,157.542333 181.084251,214.874426 166.021583,274.568601 C152.587936,327.806872 139.98152,389.903268 135.380634,417.91798 C134.722373,421.926116 133.624139,425.788279 132.759143,429.643314 C157.083991,434.729245 181.130048,439.756814 205.77715,444.911716 C206.141805,443.981117 206.864756,442.668517 207.175349,441.26466 C214.482238,408.291533 223.694145,376.429395 232.727847,343.947565 C246.569913,294.182274 253.183886,244.107136 264.949323,193.809165 C271.358354,166.415387 280.44388,139.179716 286.985417,111.816711 C290.345759,97.7611652 293.187739,83.5814686 296.259749,69.4569501 C297.484101,63.8287894 297.46396,63.7407168 303.179722,62.8186067 C307.741094,62.0821921 312.333209,61.5240449 316.925323,61.0062202 C321.614961,60.4777843 322.790551,61.6779068 322.141803,66.5420637 C321.454894,71.6990887 320.460572,76.8147302 319.728081,81.9653885 C318.017169,93.989958 315.973634,101.098322 314.389927,113.139869 C314.170498,114.805822 314.199707,129.892065 314.389927,131.594035 C318.3311,166.85723 319.728081,180.805301 321.944866,196.22851 C324.161652,211.651718 328.534007,244.212187 331.983393,268.253898 C335.899199,295.543686 339.498051,322.880163 343.071462,350.217701 C345.970685,372.395031 349.035615,389.489933 351.494322,403.753139 C353.239204,413.875367 355.544156,418.219337 355.905632,419.909695 C375.901257,420.011562 397.172641,420.750352 417.676405,419.909695 C417.003277,414.327162 415.496575,409.019459 414.706842,403.753139 C408.450457,362.001397 402.010685,320.276184 395.886806,278.504281 C390.712727,243.215799 383.676455,207.902911 378.964555,172.5497 C374.432864,138.533496 370.170423,104.478031 366.239777,70.3864879 C364.385759,54.3073932 363.592845,38.1062702 362.307011,21.9624474 C361.862852,16.3873426 361.364631,10.8186044 360.917292,5.24456071 C360.826128,4.10067738 360.6226,2.88463815 360.905632,1.81821631 C361.10386,1.07225158 361.986877,0.0970857331 362.666366,0.00689085097 C363.326774,-0.0811817986 364.564906,0.692371955 364.765255,1.33328618 Z M112.887543,505.95349 C111.285815,510.88662 111.17557,511.4193 114.062072,515.43987 C124.347687,529.768123 136.286972,542.567307 150.265783,553.349309 C152.638163,555.179735 155.677312,556.302396 158.517172,557.314701 C171.537702,561.958145 170.77447,562.341208 185.945832,564.726598 C191.716716,565.963859 206.147106,567.559778 212.076996,567.619201 C212.950473,567.425016 216.336257,565.60308 218.851743,561.646177 C217.579689,561.370287 216.320356,561.613283 215.632387,561.539004 C207.596187,560.6604 199.563167,559.74784 191.518487,558.94882 C178.843531,557.691397 166.005328,552.792223 156.749017,546.288642 C143.071259,535.589406 129.714694,524.550614 118.142185,511.514801 C116.506536,509.671642 114.758522,507.928228 112.887543,505.95349 Z M217.629511,521.266459 C203.88285,524.436013 197.003159,534.174938 194.769645,554.381775 C199.463523,554.894294 203.829848,555.381347 208.197232,555.846116 C212.541296,556.307701 216.88854,556.747003 220.90823,557.162961 C228.867046,543.418322 227.05755,528.652889 217.629511,521.266459 Z M128.827437,459.699433 C123.917309,473.480149 119.21389,486.681497 114.409767,500.165101 C117.173304,503.242338 119.857337,506.231503 122.541371,509.220667 C133.919892,521.89464 146.935122,532.73182 160.453874,542.992815 C168.295025,547.82726 179.227268,553.04583 189.500162,553.590183 C190.939703,545.609527 192.249918,540.029117 195.148081,533.195528 C198.20843,525.976754 205.101902,519.997364 213.730666,517.002894 C209.784119,514.343737 204.186023,510.742308 200.022167,508.658276 C199.358579,508.906577 198.550825,509.701353 195.068577,512.743573 C192.28808,515.172468 190.080006,516.321657 186.974075,518.743125 C184.447988,520.712556 183.178055,522.542982 180.453739,521.366204 C178.752367,520.391038 179.818773,518.143594 183.601012,515.045134 C187.257107,512.047481 190.434061,509.475335 194.869289,505.976835 C191.501526,504.016953 189.484261,503.094843 186.888211,501.991282 C184.459649,500.957755 181.792576,500.446297 181.792576,500.446297 C180.216289,501.525452 179.599343,502.071927 178.432234,503.13941 C175.449268,505.865418 172.336976,508.452419 169.286167,511.106271 L169.137761,511.234666 C166.99011,513.105414 163.928701,510.270111 165.668234,508.015239 C168.431771,504.43185 172.167369,501.871376 176.020632,498.115025 C171.769852,496.320677 168.590778,495.793302 168.349088,495.959897 C167.054773,496.854418 165.08415,497.934635 162.865476,500.275457 C160.655282,502.415729 158.402687,504.535839 155.983665,506.427809 C155.824658,506.553021 155.63491,506.63791 155.422901,506.695211 C153.951559,507.096313 152.443115,505.860112 152.518378,504.336349 C152.528979,504.110331 152.56926,503.897047 152.653004,503.701802 C153.154405,502.526085 154.196429,501.501047 155.197112,500.631992 C157.813302,498.364387 160.586379,496.275049 163.190909,493.99471 C164.446003,492.894333 165.966107,491.706943 166.501429,490.242603 C168.601378,484.505147 170.356812,478.64248 172.42072,472.267294 C157.691397,468.020706 143.395633,463.899331 128.827437,459.699433 Z M363.365228,520.641462 C363.141559,525.407996 362.93909,529.742656 362.723901,534.322434 C407.039075,543.70164 451.057436,547.938677 496.022417,547.046279 C497.082462,542.315822 498.073604,537.885662 499.234353,532.705292 C453.251729,533.648625 408.551759,528.085192 363.365228,520.641462 Z M480.050722,490.837889 C469.736486,496.896863 459.298224,513.14892 457.006408,526.998609 C471.142105,528.441727 485.21632,528.23481 499.17499,527.899497 C503.290084,507.600343 494.171579,497.382854 480.050722,490.837889 Z M367.331916,465.396566 C366.108624,482.213136 364.916074,498.616933 363.695962,515.405914 C393.117506,521.477621 422.130933,524.28109 451.456013,526.743941 C455.391959,511.87558 462.480479,499.301352 474.56181,487.956959 C468.19094,486.657091 464.175491,485.964182 458.322983,485.005994 C456.925844,484.653704 454.244991,484.571998 454.244991,484.571998 C453.326992,485.015544 453.087422,485.963121 452.399453,487.034849 C450.318585,490.274436 448.273758,493.543736 446.043424,496.679334 C444.813772,498.408954 444.438516,501.477702 441.278523,500.783732 C439.475386,500.388997 439.709656,497.925085 441.93257,494.276967 C444.001778,490.885639 446.170629,487.555857 448.354322,484.104045 C442.439272,483.123574 439.265497,482.708678 438.509686,483.28168 C437.503703,484.044623 436.613265,485.848521 435.363473,487.629074 C433.264584,490.622483 431.456147,493.82387 429.287296,496.763162 C427.98026,498.534165 427.25837,502.491068 424.067635,500.357163 C421.427063,498.591466 424.17682,496.21881 425.246405,494.390506 C427.441758,490.635216 429.86502,487.013626 432.270262,483.213769 C427.822314,483.045051 423.146456,481.998791 422.400184,482.809484 C421.456745,483.831339 419.780814,486.378018 418.627485,488.31986 C416.762866,491.459703 414.545252,494.389445 412.456964,497.393465 C411.803976,498.333614 411.200811,499.411709 410.306133,500.048378 C409.684947,500.489803 408.353531,500.64897 407.797007,500.266968 C407.204442,499.8595 406.798445,498.599955 406.943671,497.831706 C407.145079,496.752551 407.836229,495.720085 408.481796,494.778875 C411.093746,490.967345 413.797921,487.220544 416.400331,483.402648 C417.244126,482.163264 418.473778,480.792302 418.50134,479.460601 C418.604164,474.525349 418.27767,469.581608 418.103823,464.377894 C400.915196,462.821237 384.329735,463.279639 367.331916,465.396566 Z M139.614491,478.050879 C146.030824,478.049813 150.989799,483.204612 151.050262,489.940257 C151.116979,497.284167 145.029021,503.82274 137.915284,504.048575 C131.498951,504.250975 125.900949,498.513479 126.023959,491.861988 C126.156351,484.714087 132.711331,478.053009 139.614491,478.050879 Z M387.191225,473.052049 C394.037508,473.16352 399.196026,478.514103 399.332051,485.643969 C399.485865,493.702755 392.519251,501.055562 384.733343,501.053439 C377.736385,501.051315 372.255591,495.328101 372.303723,488.075087 C372.35918,479.862366 379.234761,472.924654 387.191225,473.052049 Z M139.662444,483.087433 C135.1069,483.028844 130.936024,487.121577 130.77757,491.804464 C130.64622,495.668166 133.541128,498.894842 137.31587,499.09085 C141.986085,499.33586 146.438425,494.888395 146.407151,490.01163 C146.38109,485.980682 143.611277,483.1375 139.662444,483.087433 Z M386.66177,477.753981 C381.663345,477.914286 377.10962,482.765907 377.019633,488.022006 C376.94325,492.578496 380.354358,496.226235 384.709277,496.239007 C389.919065,496.253837 394.672644,491.165474 394.584751,485.667325 C394.51046,481.022721 391.094119,477.610662 386.66177,477.753981 Z M179.476378,445.638581 C163.296914,446.564935 148.021668,447.440356 132.44855,448.331694 C131.775421,450.582322 131.146815,452.685454 130.414324,455.132388 C145.021741,459.348203 159.002672,463.382567 173.861321,467.670538 C175.804383,460.045356 177.572538,453.106717 179.476378,445.638581 Z M415.379812,428.514287 C413.708121,429.057578 412.591894,429.292085 411.590152,429.767465 C398.388354,436.03654 385.257579,442.460538 371.983697,448.569384 C369.601777,449.664456 366.966505,451.280536 366.966505,451.280536 C366.507506,454.897881 366.485245,455.183322 366.095148,459.589076 C382.865057,459.249519 399.278791,458.918451 416.109123,458.577833 C416.292511,448.686107 416.312652,438.791198 415.379812,428.514287 Z" id="Stroke" fill="#000"/></g></g><g id="Head" transform="translate(195.000000, 0.000000) scale(1 1)"><g id="Head/Bun" stroke="none" stroke-width="1" fill="none" fill-rule="evenodd"><path d="M129.239087,93.4929922 C142.89214,90.2889935 157.197884,90.2889935 172.15632,93.4929922 C185.166226,111.202095 187.457849,131.639952 179.031189,154.806564 C173.040324,171.27668 157.109954,178.46999 131.240078,176.386494 L130.4531,176.320518 L132.332634,195.087429 C134.48343,197.838966 135.793983,201.491814 135.793983,205.5 C135.793983,214.060414 129.816088,221 122.441981,221 C115.067874,221 109.089979,214.060414 109.089979,205.5 C109.089979,204.603907 109.155483,203.725575 109.281235,202.871103 L107.464601,202.741239 L107.232573,199.904571 C104.735606,169.756389 102.360871,153.342989 100.108368,150.664369 C82.1656305,150.761559 74.7539384,140.967478 76.1692708,134.355897 C77.5846031,127.744316 83.8158222,129.380158 90.7660215,124.028616 L92.2282376,122.187207 C107.559562,102.801458 109.373895,98.1548101 129.239087,93.4929922 Z" id="Path" fill="#FFF"/><path d="M82.0583345,21.0530394 C94.4642152,21.7849334 104.739847,29.7957188 106.873315,41.2867554 C108.29527,48.9471127 106.734876,56.1208756 102.611745,62.8340759 C101.655548,64.3909777 100.612424,65.9008221 99.2988598,67.907273 C101.012717,67.907273 102.26511,68.0544528 103.464918,67.8852461 C119.548563,65.6174759 134.942157,67.9282987 149.689701,74.0998374 C156.85879,77.0996244 162.965612,81.3250871 167.971624,86.763317 C170.314183,88.4922251 174.420598,92.4593424 175.883198,94.2852286 C183.16897,103.379337 187.460589,113.570786 187.894151,125.041799 C188.176395,132.510922 188.003615,139.912964 186.004293,147.240915 C181.451893,163.942316 168.219669,171.786899 151.846267,175.955991 C146.394548,177.343687 140.397657,176.865102 134.193644,177.270597 C134.298815,178.440026 134.377156,180.017953 134.591791,181.577859 C135.480378,188.03775 136.414039,194.492634 137.328382,200.949522 C137.36809,201.236873 137.394919,201.525225 137.407797,201.814578 C137.478626,203.432555 137.491504,205.269799 135.216378,205.236223 C134.348181,205.222742 132.974519,203.415534 132.756665,202.27414 C131.869151,197.625461 131.008466,191.157561 130.524465,186.455817 C129.666478,182.700544 130.089589,182.288072 128.76274,180.942217 L128.641046,180.820934 C128.129143,180.319321 126.737237,178.788451 126.346602,178.199732 C123.54884,173.974571 122.721424,173.513007 120.571858,169.122644 C120.520346,168.905379 120.504248,168.680104 120.512833,168.449822 C120.578297,166.798806 122.194496,165.621367 123.933036,165.935751 C124.467476,166.031869 124.939672,166.190062 125.276649,166.48342 C134.364278,174.408101 144.823423,173.979577 155.366275,170.414222 C170.545235,165.280952 180.811209,155.986598 182.645261,140.113209 C184.072582,127.770131 183.61541,115.696383 177.017542,104.575799 C175.854334,102.614436 174.630278,100.814331 173.20137,99.0461622 C172.451073,99.6328964 171.427338,100.313401 170.105746,101.195936 C156.115862,110.538348 140.657877,116.888104 123.904572,120.264228 C115.548846,121.948285 106.981706,122.739252 98.49398,123.824577 C97.6284209,123.935454 96.7269139,123.98412 95.8331689,123.953874 C95.5911152,124.12415 95.3386366,124.257823 95.0999877,124.329028 C92.5415431,125.088956 90.3383188,125.282192 87.9043623,126.261388 C85.8277724,127.096408 83.8874755,128.560196 82.3313746,130.129113 C77.4130224,135.092175 78.5602444,140.860221 85.3319665,143.17605 C89.6343173,144.647848 94.4142301,145.02631 99.0245817,145.559962 C104.36791,146.177717 105.290839,146.603236 105.805962,151.254918 C107.468307,166.274265 109.013677,181.304625 110.542948,196.335986 C110.744705,198.317406 110.748997,200.346886 110.517192,202.320296 C110.440997,202.972092 109.366751,203.947284 108.683139,203.997345 C107.950162,204.050409 106.724598,203.339541 106.456305,202.692751 C105.983036,201.551357 106.057085,200.207716 105.927231,198.947176 L104.726267,187.264291 C104.364816,187.994138 103.972527,188.707399 103.543259,189.396439 C100.512619,194.264386 97.5903683,199.275507 93.8664578,203.668873 C77.5746174,222.886348 63.9289086,226.956458 40.591687,238.344369 C32.369035,242.357271 17.4561118,246.617475 8.00682296,245.92563 C4.7336451,245.686337 1.33383281,245.346923 -1.71290553,244.30465 C-15.8948877,239.451722 -28.4752722,226.143563 -33.9838696,213.23179 C-39.0449538,201.365295 -34.2725531,187.357184 -23.0825775,178.919878 C-15.1657798,172.951587 -5.85385707,169.807747 3.90557883,167.656119 C10.7298864,166.15128 17.6561454,164.994868 24.3924527,163.209687 C43.3468355,158.187553 53.401394,146.909777 55.6013988,128.538335 C56.3805224,122.033389 56.8076453,115.490397 57.6865741,108.998467 C58.9564346,99.6235684 62.428254,91.0571668 68.9823869,83.7394961 L69.33,83.356 L69.4006293,83.2640316 C55.5856724,82.7283773 41.4494655,68.4128906 45.0617661,49.3355872 C48.3961148,31.7290804 66.1281534,20.1138922 82.0583345,21.0530394 Z M92.9932193,119.772979 L92.9011025,119.788629 C87.7363594,120.703547 82.9553103,122.357837 80.2679172,125.557183 C81.046425,124.957352 81.8846767,124.395392 82.7703023,123.871469 C85.50904,122.25149 88.7060226,121.246262 91.7956879,120.22902 C92.0106934,120.158361 92.2377954,120.103 92.4727914,120.061877 C92.6422375,119.95196 92.8189098,119.853257 92.9932193,119.772979 Z M106.740145,118.522032 L106.687354,118.519417 C103.405962,118.694028 99.483615,118.871298 95.6090821,119.375756 L93.6711403,119.565375 C98.0113873,119.092243 102.39674,118.969791 106.740145,118.522032 Z M127.857321,114.777383 L127.591533,114.839792 C125.210962,115.404191 122.965647,115.907437 120.933724,116.344485 C123.26297,115.875945 125.570738,115.354364 127.857321,114.777383 Z" id="Stroke" fill="#000"/><polygon id="Path-15" fill="#000" points="114.556254 115.487486 84.3101776 115.487486 76 126.623286 78.466885 128.855326 90.7660215 124.028616 108.557201 122.171406 131.268447 115.487486 131.268447 112.538492"/></g></g><g id="Body" transform="translate(28.000000, 114.000000) scale(1 1)"><g id="Body/Pointing" stroke="none" stroke-width="1" fill="none" fill-rule="evenodd"><path d="M275.074532,86.2943462 C284.394589,85.3690377 294.145216,85.831692 304.326413,87.6823089 L304.326413,87.6823089 L346.7218,89.6678728 L372.001968,105.848648 L389.833556,138.37575 L404.576958,183.772622 L461.786012,144.754718 L469.387773,151.241178 L487.631718,130.038358 L499.996904,123.168022 L502.400692,128.178422 L492.935074,141.558189 L508.913927,131.170933 L530.606034,124.639377 L534.446581,128.178422 L515.195127,144.754718 L517.428927,154.340374 L521.209354,154.816843 L521.209354,164.523003 L512.68289,174.247319 L489.580573,183.772622 L476.833647,195.074068 L441.562005,231.137605 L411.090192,250.467051 L397.031977,248.244758 L375.923489,225.403226 L389.833556,264.929615 L363.080442,279.266056 L349.574944,280.653861 L346.7218,276.041349 L292.614761,282.916334 L258.743474,287.404436 L229.368664,280.653861 L246.004706,313.444997 L246.004706,317.649938 L241.741692,317.649938 L231.274394,308.188037 L224.74432,338.657208 L220.610853,343.973661 L215.423323,340.183264 L209.365116,346.831692 L207.293165,343.973661 L209.365116,323.497913 L195.217,333.324377 L193.251342,331.505966 L195.217,326.629278 L207.293165,315.637053 L155.729186,271.99224 L132.678774,234.188506 L112.633911,191.38433 L110.446581,169.952007 L110.446581,164.523003 L118.959378,147.763682 L167.681651,115.913751 L227.284887,95.9165141 C249.824593,90.427044 265.754475,87.2196547 275.074532,86.2943462 Z M228.446581,151.831692 L200.491053,162.480144 L164.446581,181.080212 C174.928595,199.160725 183.387773,212.6763 189.824114,221.626936 C196.260455,230.577573 206.828866,243.522535 221.529348,260.461822 L221.529348,260.461822 L228.446581,262.831692 L228.446581,151.831692 Z" id="Fill" fill="#FFF"/><path d="M271.661745,83.2116457 C274.134956,82.4442615 276.819173,83.8512261 277.450643,86.3633965 C277.618794,87.0352543 277.747834,87.753322 277.850688,88.4909998 C279.063115,97.1594428 280.278789,105.825958 281.501835,114.49181 C281.737288,116.159665 282.016041,117.821396 282.316961,119.760208 C290.962247,121.953782 298.975066,121.294169 307.188023,117.13573 C306.116778,112.153959 305.059213,107.371189 304.067339,102.575075 C303.065388,97.7312226 301.986466,92.8959259 301.206622,88.014405 C300.52945,83.7740331 301.392704,83.1436394 305.595264,83.4614547 C307.845265,83.6328774 310.131428,83.2742903 312.403068,83.2328262 C324.869357,83.0038447 337.087972,84.4404792 348.832087,88.8705714 C362.728712,94.1121875 373.257665,103.44724 380.931626,115.994057 C388.829637,128.90617 393.973753,143.040964 398.458175,157.422349 C400.705313,164.629037 402.780855,171.88968 405.058113,179.541725 C412.474409,174.28297 419.203896,169.328137 426.121104,164.651718 C435.895516,158.041481 445.787646,151.605272 455.669924,145.157008 C462.444788,140.736458 462.475828,140.784246 469.053222,145.832168 C471.908823,142.32878 474.533022,138.580359 477.698489,135.364932 C481.278068,131.728478 485.218358,128.409929 489.253754,125.276813 C490.997741,123.92252 493.308428,123.175994 495.473825,122.52152 C498.174973,121.705232 501.230894,120.620078 503.400376,123.407989 C505.341198,125.898555 504.002263,128.464829 502.70869,130.865621 C502.535656,131.187026 501.46709,133.154782 500.483647,133.638295 C502.637418,132.585594 506.060753,130.850355 507.768351,129.99039 C514.402723,126.650418 521.027794,123.287926 528.588724,122.550076 C530.724435,122.342022 532.926772,121.50274 534.799517,123.89217 C536.59263,126.180907 536.34404,129.484155 534.323493,131.575125 C532.624365,133.333582 530.650265,134.878295 528.695466,136.354778 C524.911295,139.21465 520.101151,141.949413 516.037534,144.800934 C517.623555,146.480818 519.109175,150.056451 518.395763,152.348114 C519.436845,152.664956 521.180097,154.264954 521.794206,155.688274 C524.087771,161.008975 522.590251,168.061378 517.344876,172.180205 C513.214701,175.421659 508.568885,178.681202 503.628545,180.079903 C491.170881,183.60463 482.049684,190.952013 473.702756,200.627061 C461.897248,214.309997 449.042256,227.156337 434.508759,238.027338 C428.617231,242.434382 422.133147,246.246992 415.471061,249.375688 C405.161432,254.217381 395.829134,251.511501 387.729543,243.865909 C386.557868,242.760628 385.057829,241.920351 378.577664,231.416841 C379.870485,234.930963 386.030183,248.00901 387.355078,251.511173 C388.566689,254.714694 389.870231,257.884216 391.076451,261.090602 C391.796836,263.006285 391.757971,264.727957 389.927514,266.192072 C378.755473,275.128405 366.481076,281.696799 352.210424,284.092077 C348.393723,284.732399 346.036862,282.959661 344.605163,279.395247 C338.116472,280.535501 331.83736,282.037145 325.471602,282.67187 C313.749566,283.841052 312.177346,283.638007 300.435744,284.620469 C298.694291,284.766305 290.37923,284.09238 287.95566,285.852738 C283.90251,289.08459 281.488585,288.180682 279.638503,288.519109 C267.887869,290.674017 256.143413,289.85079 244.402577,288.358412 C241.405649,287.977887 238.397458,287.692241 234.57655,287.272729 C235.639473,289.112992 236.360062,290.324725 237.046157,291.554583 C240.193959,297.19702 243.465599,302.776706 246.397964,308.529551 C247.323884,310.34375 247.870786,312.529408 247.969092,314.593987 C248.187793,319.181721 243.314977,322.192265 239.429223,319.749794 C238.159723,318.950975 237.083284,317.828653 235.969503,316.798795 C234.872726,315.784516 233.840419,314.700176 232.008106,312.879392 C230.952092,317.647913 230.028582,321.588278 229.214895,325.553282 C228.226673,330.368371 227.345249,335.205842 226.401595,340.03061 C226.281213,340.64748 226.140088,341.260115 225.952414,341.860869 C223.862653,348.55281 218.211592,349.451601 215.199315,344.183459 C214.066698,345.493206 212.422801,348.738017 211.06886,349.85047 C208.454002,352.000518 205.770529,351.059402 205.056165,347.748702 C204.444058,344.907073 204.520978,341.859207 204.644574,338.920798 C204.731077,336.865959 205.851717,331.120886 206.586145,328.386178 L206.648,328.158 L206.628375,328.206908 C205.698369,330.343087 203.381411,332.261313 202.41331,332.844149 L202.307748,332.905409 C200.813456,333.735636 199.394522,334.768097 197.809458,335.350171 C195.479479,336.204795 192.912516,336.980905 190.913634,334.718103 C188.79506,332.318937 190.121794,329.825462 191.681543,327.986262 C194.733986,324.387228 198.185823,321.128059 202.018597,317.160762 C200.282345,315.627226 198.282599,313.760947 196.178724,312.0214 C191.485794,308.139196 186.736976,304.323304 182.016047,300.475303 C162.138093,284.272675 145.916233,264.953771 133.942878,242.295752 C126.392784,228.00549 119.570141,213.315869 112.814731,198.623476 C109.073425,190.484497 106.627578,181.868915 106.072781,172.793256 C105.600864,165.056425 107.46225,158.121708 112.115233,151.885131 C116.857327,145.528379 122.857857,140.561571 129.355983,136.201005 C157.222613,117.501496 186.949247,102.854658 219.832688,95.2785844 C234.092341,91.9930745 248.424237,89.0292347 262.699581,85.804347 C265.544691,85.1613655 268.328571,84.2465997 271.661745,83.2116457 Z M225.693507,284.675372 C225.733458,284.713136 224.724,287.393197 224.678902,287.493647 C219.942028,297.791177 217.253405,304.929084 210.024142,317.660048 C209.161488,319.17908 208.197528,319.690891 206.521004,320.177947 C206.205924,320.269494 205.018021,319.793884 204.77922,320.010078 C201.839506,322.65822 197.090011,326.095926 195.151206,329.627429 C195.084695,330.896528 196.347296,330.966895 196.789008,330.739304 C199.723809,329.225006 205.58524,324.512139 208.334663,321.674624 C208.99406,320.99368 209.999944,320.782018 210.861681,321.200667 C211.5272,321.523005 211.881384,322.265461 211.783196,322.998898 C211.171543,327.589276 208.700585,336.91447 208.910698,341.166035 L208.910698,341.166035 L208.966876,341.794256 C209.060379,342.850377 210.507983,343.071021 210.91055,342.090207 C211.616086,340.368853 212.302661,338.449271 212.527261,337.283926 C214.196819,328.64902 214.053982,325.553967 215.856534,319.741875 C216.25019,318.471036 216.432655,317.049596 217.147389,315.992819 C217.65987,315.234933 219.116305,314.386985 219.753476,314.630202 C220.518189,314.91997 221.346437,316.35766 221.286569,317.239982 C221.16135,319.109251 220.545464,320.960148 220.009681,322.782721 C218.775081,326.978505 219.116661,328.921546 218.290285,335.448891 C218.025631,337.538512 217.848348,337.480961 217.524371,340.422508 C217.260432,342.81851 220.609044,342.269059 220.903823,341.264761 C221.63508,338.772601 222.307415,336.60468 222.746293,334.390951 C224.374827,326.178789 225.813427,317.930446 227.404601,309.71108 C227.473696,309.352754 227.562544,308.997562 227.662727,308.64611 C228.383801,306.128238 231.525548,305.325599 233.425972,307.126873 C234.427608,308.076366 235.220479,309.209006 236.19162,310.080315 C238.096869,311.789519 238.789235,313.319754 240.213002,314.995332 C240.904194,315.807906 241.940841,316.249361 243.004466,316.176061 L243.004466,316.176061 L243.040229,316.173739 C243.538974,316.137979 243.875275,315.641533 243.709251,315.16912 C239.966993,304.488067 234.129506,292.422524 225.693507,284.675372 Z M271.517642,88.3815129 C252.173852,92.8892793 233.473017,97.0698435 214.862646,101.62444 C184.923147,108.951935 158.034314,122.995276 132.504312,139.873219 C126.300659,143.975396 120.525435,148.643471 116.027739,154.697246 C112.125431,159.951319 110.46307,165.768659 110.861219,172.352836 C111.351085,180.467243 113.545598,188.138032 116.746467,195.468142 C121.615995,206.621627 126.931808,217.580283 132.061999,228.620485 C147.972543,262.860479 173.069604,289.206773 203.066168,311.333233 C203.492076,311.64721 204.06584,311.760161 204.998655,312.142668 C206.018008,310.333898 207.15457,308.628839 207.990096,306.787354 C212.858113,296.047672 217.620703,285.259452 222.49081,274.51988 C224.151357,270.857342 225.714494,267.053313 225.714494,267.053313 C225.714494,267.053313 223.23774,264.327983 220.606901,261.442455 C197.841818,236.483616 176.967726,210.125733 160.804059,180.295575 C159.812883,178.466416 158.841727,176.595292 158.185542,174.634714 C157.978833,174.018537 158.631342,172.668941 159.252179,172.343727 C159.871971,172.018459 161.244312,172.255092 161.755976,172.772897 C162.907909,173.934845 163.730389,175.422591 164.65941,176.73757 C172.880833,172.53761 180.631791,168.073794 188.783897,164.536394 C200.458631,159.469341 212.426081,155.077527 224.271996,150.404473 C225.155107,150.055236 226.034743,149.652311 226.955074,149.452951 C229.793532,148.836898 230.863298,149.566498 231.172684,152.38387 C231.317567,153.699718 231.217728,155.044707 231.220278,156.376177 C231.235763,165.701589 231.284756,175.027707 231.256226,184.352911 C231.192401,205.472597 231.34519,226.59944 230.831193,247.708123 C230.764838,250.454396 230.083049,256.963091 230.084753,256.950591 C230.143647,256.466884 234.043744,260.035815 235.177964,261.21572 C238.909867,265.093721 240.885773,269.935111 237.685601,274.752827 C236.401793,276.687271 235.446105,278.841391 234.136967,281.279136 C249.968674,284.62044 264.994129,284.624196 280.38264,282.380875 C280.743051,217.638483 279.267115,153.432473 271.517642,88.3815129 Z M308.31929,122.39237 C299.811961,126.147206 291.391719,126.180124 282.479662,125.316494 C282.869598,127.836989 283.019894,130.189654 283.411666,132.515108 C285.24544,143.388847 287.732615,154.196114 288.815056,165.144831 C292.418622,201.614439 291.482476,238.118902 288.595662,274.600869 C288.450409,276.432368 288.579708,278.2856 288.58186,280.46474 C306.903018,280.028529 324.597365,279.131426 341.989391,274.622088 C341.838001,273.530411 341.852149,272.96043 341.675116,272.458064 C333.01732,247.801073 327.319387,222.391711 322.482966,196.765218 C318.074949,173.40525 313.690259,150.04021 309.257924,126.684213 C308.996719,125.307714 308.739198,123.920917 308.31929,122.39237 Z M379.545598,123.479296 C366.486506,96.6360787 338.917516,84.9339789 306.44159,89.0546174 C306.904208,91.8884121 307.231572,94.3227467 307.703962,96.7300607 C313.442592,126.023309 319.211923,155.310822 324.957926,184.603407 C330.117876,210.917244 335.035476,237.294967 343.596091,262.786162 C345.507503,268.478158 348.201135,273.905853 350.541512,279.473453 C364.57345,277.172675 375.908596,271.144664 386.302175,262.880936 C385.302251,260.438632 384.456753,258.53003 383.733115,256.576408 C378.452642,242.343194 372.401331,228.337109 368.112203,213.809639 C360.845145,189.198256 354.67908,164.260595 348.111449,139.44457 C347.683656,137.826435 347.589915,136.0548 347.721496,134.384149 C347.774689,133.709204 348.751243,132.857088 349.493571,132.573911 C349.975949,132.390416 351.006946,132.919701 351.410936,133.431863 C351.970392,134.137867 352.244564,135.106937 352.51531,136.00134 C357.358643,152.015086 362.149819,168.043933 367.018734,184.049578 C371.726732,199.525375 376.569189,214.955763 384.21756,229.310975 C385.735952,232.161283 387.293461,235.005248 389.041369,237.71651 C393.854501,245.185669 402.989665,248.51279 411.429673,245.8025 C421.616121,242.531181 430.188272,236.37935 437.788592,229.189364 C450.770065,216.909884 463.20641,204.051046 475.825346,191.388521 C477.274685,189.935907 478.431103,188.192021 479.586145,186.754408 C473.115581,173.647479 466.842169,160.939059 460.601946,148.297423 C459.890139,148.49827 459.477385,148.513358 459.187247,148.709026 C442.67399,159.932641 426.179168,171.184499 409.658041,182.398259 C406.208131,184.740597 403.935493,187.801383 402.939934,191.896389 C402.448367,193.915367 401.758678,195.954386 400.74422,197.749774 C400.672608,197.876112 400.584707,197.993204 400.481455,198.103196 C399.23495,199.425859 396.8652,198.799136 396.523813,197.012424 C396.483391,196.803628 396.480219,196.604129 396.526732,196.416675 C397.286882,193.353209 398.301337,190.317758 399.565277,187.422325 C400.287276,185.76688 400.906626,184.209918 401.709174,182.857694 C401.709174,182.857694 400.3306,180.079759 399.989294,179.051567 C397.712288,172.19477 396.039799,165.12416 393.52188,158.363845 C389.148522,146.623676 385.011388,134.716486 379.545598,123.479296 Z M356.885285,266.387937 C357.256261,266.988706 357.456276,267.664054 357.446219,268.354939 C357.419402,270.201787 356.515425,271.598058 354.382309,271.818685 C352.484964,272.014453 350.319443,269.969765 350.452414,267.74899 C350.453531,267.734489 350.454649,267.721023 350.454649,267.707558 C350.678129,264.66435 355.251646,263.739373 356.885285,266.387937 Z M226.480744,155.543427 C213.738829,157.731363 173.8332,175.787345 167.805945,182.064156 C182.50968,210.428764 203.044609,234.517456 224.920915,257.993467 C228.160482,223.781404 225.807334,189.694839 226.480744,155.543427 Z M346.618903,243.989168 C349.776025,245.110276 350.868748,250.148047 346.841189,250.804431 C345.762772,250.980635 344.633735,250.291277 343.875542,249.066096 C342.831238,247.378252 343.674164,242.944312 346.618903,243.989168 Z M341.868962,219.933098 C342.1749,220.027667 342.459388,220.172477 342.737103,220.355705 C344.961079,221.822517 345.042361,224.858591 342.820643,226.328359 C342.574538,226.4909 342.32166,226.618963 342.051848,226.705652 C340.129294,227.322323 338.484455,225.58855 338.447201,223.413452 C338.409947,221.268892 340.057043,219.365681 341.868962,219.933098 Z M336.43157,197.891857 C337.031525,198.013112 337.575722,198.362729 338.135531,198.845726 C339.976656,200.431129 339.89748,203.219984 337.778681,204.488104 C337.464206,204.676049 337.156423,204.795283 336.837488,204.819534 C334.403098,205.008489 333.615797,202.960297 333.46079,201.093988 C333.309129,199.283253 334.376335,197.47656 336.43157,197.891857 Z M499.426444,125.968358 C494.725972,126.350441 490.364567,129.383591 487.20967,132.63734 C482.718375,137.268841 478.365158,142.085928 474.432783,147.193646 C468.904388,154.372618 469.08851,154.519703 473.100339,162.917305 C474.331204,165.493411 475.517838,168.093427 476.844648,170.618958 C479.034019,174.787508 481.321482,178.904545 483.402625,182.737998 C489.445841,180.477015 495.040507,178.654139 500.399098,176.295379 C504.893895,174.317293 509.400317,172.117402 513.379261,169.281377 C517.680524,166.215699 518.623633,162.641456 516.929949,157.95544 C516.629778,157.122442 515.772428,156.620093 514.899567,156.753748 C511.614329,157.254063 508.059128,157.545094 505.226758,158.364996 C502.204912,159.240013 499.064485,160.657507 496.326086,162.684628 C495.552151,163.130861 494.944572,166.203372 497.035037,165.878592 C501.833642,165.684199 506.550667,164.646233 511.260031,164.454507 C512.45026,164.405677 513.392277,165.472695 513.148805,166.6381 C512.841786,168.11596 511.565271,168.691124 510.184303,168.819133 C505.47977,169.258704 500.727087,169.656936 496.021778,169.451256 C492.732683,169.30511 491.564714,167.389051 491.722996,163.968814 C491.779279,162.734849 493.914983,159.726686 493.914983,159.726686 C489.278587,159.066152 489.398718,153.993646 492.533286,151.507838 C495.476522,149.172519 498.805691,147.893959 502.311814,146.679227 C512.040151,143.308363 518.613002,137.46196 526.862483,131.726506 C527.766507,131.098249 528.574111,130.329602 529.60368,129.345978 C530.323157,128.65874 529.785565,127.455549 528.792748,127.517872 C523.878182,127.824739 520.129855,129.300598 516.601287,131.143628 C508.685156,135.278805 500.902607,139.685362 493.200793,144.211553 C492.795231,144.449432 492.400394,144.662694 492.016665,144.844015 C489.118866,146.212326 486.457401,142.511074 488.577202,140.106372 C491.93084,136.300709 495.249824,132.536244 498.566662,128.772715 C499.158496,128.10082 499.527633,127.237854 499.500127,126.34256 C499.495314,126.194381 499.475923,126.064323 499.426444,125.968358 Z M331.455802,171.927112 C332.064352,172.086507 332.620773,172.445707 333.214591,172.927259 C334.861189,174.264155 334.861189,176.811107 333.190793,178.118818 C332.810025,178.416281 332.438322,178.63629 332.034888,178.754153 C330.23417,179.279483 328.413053,177.044586 328.44705,174.79622 C328.47878,172.838581 329.61542,171.446682 331.455802,171.927112 Z M514.360914,151.790446 C514.470066,150.527778 513.306174,147.113785 511.210632,147.655468 C507.326652,148.659457 498.822225,150.498747 496.0663,153.280318 C495.14654,154.208848 494.100972,156.17781 497.296215,156.694623 C502.792665,155.145666 506.97149,152.276053 514.360914,151.790446 Z M329.98878,149.533274 C330.916095,150.949551 330.411802,152.760362 328.683246,153.567639 C328.396716,153.701174 328.097684,153.794244 327.790315,153.818523 C325.454316,153.999604 324.807279,152.278828 324.505121,150.776563 C324.192543,149.226751 325.141738,148.095753 327.113063,147.846893 C328.127899,147.719428 329.249012,148.403288 329.98878,149.533274 Z M323.48795,128.092302 C323.876243,128.304983 324.225397,128.602528 324.516874,128.951409 C325.762089,130.443322 325.968079,132.88549 323.809296,133.688022 C323.552837,133.783362 323.307708,133.834699 323.063609,133.831556 C321.064469,133.800125 320.181798,132.007525 320.515504,130.23064 C320.691626,129.298195 321.459971,127.955054 322.495075,127.838761 C322.839079,127.799996 323.183084,127.925719 323.48795,128.092302 Z M321.476443,109.476164 L321.518661,109.517333 C322.81591,110.77352 322.747785,113.054715 321.34691,114.176839 C321.001489,114.453411 320.667582,114.657146 320.308727,114.758485 C318.632475,115.237736 317.094391,113.291174 317.517532,111.044815 C317.601009,110.598287 317.824573,110.18554 318.113384,109.786516 C318.940476,108.64328 320.479519,108.510271 321.476443,109.476164 Z" id="Stroke" fill="#000"/></g></g><g id="Face" transform="translate(324.000000, 111.000000) scale(1 1)" fill="#000"><g id="Face/Glasses" stroke="none" stroke-width="1" fill="none" fill-rule="evenodd"><path d="M22.4484,41.6261 C25.2544,42.9281 27.9254,42.9451 30.8474,42.0381 C31.0464,41.9761 31.2714,41.9981 31.5124,42.0721 C32.9654,42.5201 33.4174,44.4161 32.3924,45.5391 C32.2004,45.7481 31.9924,45.9251 31.7564,46.0491 C31.4084,46.2321 31.0424,46.3801 30.6564,46.5071 C28.1374,47.3381 25.3884,47.1601 22.9264,46.1751 C22.2694,45.9121 21.6154,45.6191 20.9894,45.2771 C20.7804,45.1621 20.6224,44.9531 20.4944,44.6921 C19.9164,43.5201 20.5314,42.0391 21.7774,41.6461 C22.0354,41.5641 22.2664,41.5421 22.4484,41.6261 Z M24.2534,8.5388 C30.9174,15.8318 30.0534,29.1978 22.5064,35.5628 C16.9234,40.2718 9.3594,39.7988 4.4884,34.3448 C1.3284,30.8078 -0.0096,26.5578 0.000344386183,21.8438 C0.0074,16.3238 1.7614,11.4878 5.8534,7.7068 C11.4554,2.5298 19.1314,2.9328 24.2534,8.5388 Z M32.3428,3.8702 C32.8578,4.9892 32.9348,6.3182 33.1428,7.5672 C34.3608,14.9012 35.5898,22.2332 36.7628,29.5742 C37.6928,35.3932 35.9348,37.7332 30.1308,38.2172 C29.9308,38.2332 29.7278,38.2002 29.5208,38.1322 C28.1158,37.6752 27.5848,35.8742 28.4948,34.7092 C28.5808,34.5992 28.6768,34.4992 28.7828,34.4122 C29.6188,33.7342 30.7338,33.4002 32.1388,32.8142 C32.4788,32.6722 32.6768,32.3062 32.6188,31.9422 C31.3298,23.7802 30.0808,15.9402 28.8678,8.0952 C28.6748,6.8512 28.4318,5.5452 28.6288,4.3362 C28.7408,3.6542 29.6528,2.7022 30.2978,2.6222 C30.9438,2.5412 32.0508,3.2342 32.3428,3.8702 Z M5.1834,16.3948 C3.7444,20.1978 3.8564,24.4828 5.5954,28.1598 C8.9784,35.3168 16.1494,36.3758 20.8674,31.0358 C23.0404,28.5758 24.0324,25.6718 24.4294,21.4798 C24.5504,20.2098 24.3764,18.9318 23.9594,17.7268 C23.3824,16.0548 22.6134,13.8668 21.3304,12.0398 C17.0324,5.9198 8.4714,7.7028 5.1834,16.3948 Z M60.5992,7.9002 C61.3052,9.3962 61.7392,11.0202 62.0582,12.4372 C62.5262,14.5202 62.6802,16.6682 62.4322,18.7882 C61.9252,23.1352 60.7082,26.4702 58.3022,29.3802 C52.5982,36.2812 43.5012,35.5042 39.6742,27.4532 C36.1602,20.0612 36.6582,12.5652 41.7122,5.9252 C47.2872,-1.3998 56.6812,-0.4008 60.5992,7.9002 Z M45.6762,7.9902 C43.9012,9.9082 42.8972,12.1222 42.3722,14.8562 C41.8042,17.8122 41.9982,20.8862 42.9432,23.7432 C43.1682,24.4222 43.4422,25.1112 43.7862,25.7632 C46.2722,30.4732 50.8372,30.9212 54.4782,27.1102 C58.6362,22.7602 59.4752,13.7892 56.1862,8.8382 C53.4622,4.7352 49.0492,4.3452 45.6762,7.9902 Z M20.0354,19.0249 C20.6484,19.7929 21.3244,20.6719 21.5984,21.6629 C22.3144,24.2529 20.7634,26.5949 18.7654,26.4889 C16.4454,26.3659 15.9344,24.5109 15.6504,22.7139 C15.3794,21.0069 16.0664,19.3699 17.5114,18.5349 C18.3524,18.0489 19.4294,18.2659 20.0354,19.0249 Z M46.3902,15.5461 C47.4632,15.9621 48.5932,17.3901 48.8312,18.5441 C49.2222,20.4311 48.3842,22.4941 46.1912,22.4601 C45.5202,22.4491 44.8612,21.7491 44.3322,21.1131 C43.8162,20.4931 43.546944,18.7343856 43.626944,17.9323856 C43.882944,15.3643856 45.0232,15.0161 46.3902,15.5461 Z" id="Stroke" fill="#000"/></g></g></g></svg>