<?xml version="1.0" standalone="no"?>
<!DOCTYPE svg PUBLIC "-//W3C//DTD SVG 20010904//EN"
 "http://www.w3.org/TR/2001/REC-SVG-20010904/DTD/svg10.dtd">
<svg version="1.0" xmlns="http://www.w3.org/2000/svg"
 width="358.000000pt" height="702.000000pt" viewBox="0 0 358.000000 702.000000"
 preserveAspectRatio="xMidYMid meet">

<g transform="translate(0.000000,702.000000) scale(0.100000,-0.100000)"
fill="#000000" stroke="none">
<path d="M1560 6727 c-82 -19 -126 -47 -221 -139 -125 -121 -220 -450 -236
-815 -5 -120 -4 -146 10 -166 18 -28 85 -48 171 -50 31 -1 56 -5 56 -8 0 -3
-14 -18 -31 -35 -65 -62 -195 -308 -322 -609 -30 -71 -80 -188 -112 -260 -32
-71 -88 -206 -126 -300 l-69 -170 -34 -3 c-19 -2 -37 -10 -40 -18 -7 -18 18
-70 36 -77 31 -11 -2 -14 -61 -6 -73 10 -97 6 -111 -21 -15 -28 4 -61 60 -105
l49 -39 -15 -35 c-30 -72 -81 -146 -156 -226 -63 -67 -78 -89 -78 -114 0 -24
6 -34 24 -43 20 -9 24 -16 20 -37 -8 -36 16 -54 70 -54 39 1 43 -1 38 -22 -6
-34 15 -65 44 -65 60 0 138 74 196 185 18 36 35 65 38 65 3 -1 17 -20 32 -45
33 -54 69 -79 103 -71 46 12 49 36 21 170 -35 165 -36 156 27 156 29 0 61 6
72 13 27 21 12 61 -35 94 -22 15 -40 31 -40 36 0 4 15 7 34 7 19 0 41 3 50 6
26 10 19 47 -14 74 l-29 25 77 197 c43 109 81 200 85 204 3 4 22 -7 41 -24 20
-17 58 -39 86 -49 27 -10 50 -21 50 -25 0 -4 -81 -261 -179 -570 -252 -790
-327 -1039 -422 -1390 -79 -294 -81 -308 -66 -332 21 -31 151 -97 240 -121
l67 -18 0 -76 c1 -42 0 -247 0 -456 l-1 -379 -39 -73 c-22 -40 -85 -146 -141
-235 -116 -186 -123 -207 -89 -301 28 -78 45 -97 86 -97 134 0 319 135 441
321 l48 74 2 145 c1 146 13 301 58 772 14 142 25 260 25 263 0 3 18 5 39 5 22
0 43 5 46 10 4 6 42 221 85 478 114 681 253 1453 260 1444 4 -4 3 -176 -1
-382 -4 -206 -11 -639 -15 -962 l-7 -587 24 -9 c13 -5 52 -13 87 -17 55 -6 62
-10 62 -28 0 -12 10 -159 21 -327 12 -168 23 -417 25 -555 3 -284 16 -431 38
-453 24 -25 370 -39 581 -24 193 14 363 38 381 53 7 6 15 25 19 42 3 18 13 60
22 95 15 58 15 66 0 97 -25 53 -79 82 -204 109 -174 39 -506 125 -514 133 -4
5 -3 163 1 353 5 190 9 400 9 467 l1 122 81 57 c44 31 83 63 86 71 8 21 -11
325 -52 808 -19 226 -39 487 -45 580 -12 183 -27 348 -65 709 -14 126 -23 231
-21 234 2 2 15 -4 29 -12 22 -15 26 -15 63 12 39 29 104 101 139 155 l18 27
48 -45 c27 -25 60 -50 74 -55 73 -28 167 5 204 70 27 49 45 185 61 470 12 214
56 738 65 779 3 13 48 73 100 135 95 112 155 206 155 245 0 11 -9 25 -19 31
-11 5 -21 20 -23 32 -4 31 -40 35 -77 8 l-30 -21 6 37 c4 25 2 39 -8 45 -20
13 -24 12 -58 -17 l-31 -26 0 30 c0 34 -21 47 -50 32 -33 -18 -90 -101 -138
-202 l-46 -97 -28 50 c-35 60 -52 69 -81 40 -32 -32 -31 -158 2 -264 l25 -78
-43 -342 c-24 -188 -47 -348 -50 -355 -5 -9 -52 36 -142 135 -74 81 -208 226
-298 322 l-165 175 55 11 c76 16 129 41 129 61 0 9 -18 66 -40 126 -22 60 -43
129 -46 152 l-6 43 56 7 c35 5 59 13 63 22 3 7 -11 36 -31 64 -28 39 -36 59
-36 94 0 47 -26 119 -61 167 -22 31 -18 49 9 49 54 1 60 55 11 107 -83 87
-209 134 -374 139 -67 2 -132 -1 -165 -9z m369 -60 c34 -14 76 -35 94 -47 44
-31 82 -79 70 -91 -5 -5 -123 -27 -263 -49 -140 -22 -265 -43 -277 -45 -20 -5
-23 -12 -23 -54 0 -48 -1 -50 -35 -61 -20 -6 -51 -26 -70 -45 -47 -43 -49 -98
-6 -147 l29 -33 -24 -30 c-36 -46 -31 -60 24 -71 l47 -9 2 -60 c2 -33 8 -93
14 -132 l10 -73 -52 -60 c-29 -33 -56 -60 -60 -60 -4 0 -9 14 -11 32 -5 49
-28 48 -28 -2 l0 -41 -62 3 -62 3 3 55 c1 30 11 107 21 170 12 72 16 118 10
124 -5 5 -13 7 -16 3 -7 -6 -37 -185 -49 -289 -7 -64 -20 -72 -64 -41 -24 16
-24 17 -18 148 7 140 44 382 77 504 41 149 115 277 196 342 87 68 119 81 224
88 128 8 225 -2 299 -32z m111 -226 c11 -17 32 -55 46 -86 47 -103 23 -196
-77 -296 -63 -63 -136 -97 -229 -106 -81 -8 -90 -20 -46 -58 30 -25 38 -41 50
-95 8 -42 18 -66 28 -68 12 -2 10 -17 -15 -87 -16 -47 -33 -85 -36 -85 -4 0
-29 38 -55 85 -27 47 -56 90 -66 95 -15 8 -19 36 -31 190 l-13 181 -27 6 c-15
3 -29 13 -32 24 -7 25 -27 24 -27 -1 0 -26 -30 -26 -64 1 -32 25 -36 79 -7
108 30 30 84 56 89 42 2 -6 10 -11 18 -11 10 0 14 15 14 60 0 39 4 62 13 65
19 7 378 62 414 64 24 1 36 -6 53 -28z m940 -177 c0 -9 -18 -57 -40 -106 -36
-80 -44 -118 -20 -103 4 3 26 38 48 78 22 39 55 88 73 107 55 58 48 12 -15
-99 -31 -55 -56 -104 -56 -110 0 -23 20 -9 52 37 43 63 128 152 144 152 31 0
15 -27 -93 -161 -29 -36 -53 -69 -53 -73 0 -21 34 8 104 87 70 78 96 98 98 74
1 -22 -59 -112 -134 -201 -46 -54 -91 -109 -101 -122 -14 -18 -22 -59 -32
-166 -26 -272 -44 -514 -55 -713 -21 -404 -45 -465 -180 -465 -50 0 -53 2
-113 64 -267 274 -365 441 -508 866 -27 79 -49 153 -48 165 0 24 136 -115 417
-427 113 -126 190 -204 196 -198 5 5 -1 21 -17 40 -14 17 -24 36 -22 43 10 27
86 666 86 718 0 31 -7 74 -15 95 -21 52 -36 167 -27 201 5 18 14 28 27 28 15
0 25 -16 43 -68 13 -37 28 -66 34 -64 6 2 27 43 46 93 62 154 161 294 161 228z
m-838 -136 c-33 -9 -35 -7 -20 26 l12 27 17 -23 c18 -23 17 -23 -9 -30z m-638
-44 c10 -4 16 -18 16 -35 0 -31 -2 -32 -48 -23 l-31 6 21 29 c12 16 23 29 24
29 1 0 9 -3 18 -6z m69 -76 c19 -223 20 -260 6 -269 -8 -5 -17 -9 -20 -9 -10
0 -28 114 -30 190 -2 55 0 66 15 68 14 3 16 11 10 48 -4 26 -2 44 3 44 6 0 13
-33 16 -72z m531 -106 l44 -131 -43 -16 c-65 -26 -77 -19 -99 55 -22 75 -23
77 -37 63 -7 -7 -6 -29 5 -71 9 -33 16 -63 16 -66 0 -9 -63 -7 -76 2 -6 4 -17
41 -23 82 -7 41 -15 82 -17 92 -4 12 13 25 68 51 41 20 82 45 92 56 11 12 21
20 23 18 2 -2 23 -63 47 -135z m-259 -19 c4 -21 11 -60 16 -86 12 -62 13 -59
-13 -55 -20 3 -25 13 -35 68 -17 94 -17 110 7 110 14 0 21 -9 25 -37z m-192
-200 c13 -21 38 -64 55 -95 l32 -58 -23 -15 c-54 -35 -175 -27 -218 16 -44 44
-9 136 64 169 57 27 63 25 90 -17z m284 13 c74 -35 99 -87 68 -145 -14 -29
-76 -61 -115 -61 -32 0 -100 31 -100 46 0 7 14 51 31 98 35 97 37 98 116 62z
m-488 -171 c2 -96 -188 -705 -360 -1150 -136 -353 -162 -411 -185 -407 -26 4
-173 78 -202 102 l-23 19 42 113 c61 167 401 943 476 1088 74 143 124 213 191
264 41 33 47 35 54 19 3 -10 7 -31 7 -48z m601 -211 c19 -202 34 -426 46 -679
l6 -140 -68 -28 c-37 -15 -69 -26 -70 -24 -2 2 -11 142 -20 313 -8 170 -21
398 -28 508 -10 176 -10 199 4 203 8 2 35 14 60 26 25 13 46 22 48 21 1 -1 11
-91 22 -200z m-477 151 l38 -7 -7 -552 c-4 -303 -9 -553 -11 -556 -3 -3 -44
-5 -93 -5 -49 0 -90 2 -93 5 -3 3 -1 70 4 150 5 80 20 332 33 561 13 230 27
422 30 428 5 8 15 7 34 -3 15 -8 45 -17 65 -21z m227 20 c26 -14 29 -20 34
-87 16 -204 54 -984 48 -990 -10 -9 -165 -48 -193 -48 l-22 0 6 383 c4 210 7
460 7 554 l0 173 33 14 c42 19 52 19 87 1z m365 -330 c10 -27 38 -90 63 -140
l45 -90 5 -177 5 -178 -47 -20 c-26 -11 -52 -20 -57 -20 -5 0 -9 38 -9 85 0
85 -24 465 -36 560 -7 60 5 52 31 -20z m-814 -459 c-11 -181 -22 -331 -25
-333 -10 -10 -106 41 -136 72 -24 25 -31 40 -27 57 3 13 39 115 80 228 42 113
86 241 99 285 32 110 33 84 9 -309z m1087 -7 c23 -25 42 -49 42 -52 0 -6 -100
-37 -119 -37 -7 0 -11 33 -10 98 l0 97 22 -30 c12 -16 41 -50 65 -76z m-141
-709 c23 -228 46 -489 53 -580 6 -91 29 -380 51 -643 22 -263 39 -497 37 -520
-3 -40 -6 -43 -66 -78 -131 -76 -378 -138 -499 -126 -93 10 -87 -26 -79 452 5
231 11 623 15 870 l7 450 38 85 c80 178 79 191 -7 171 -50 -11 -55 -15 -61
-44 -33 -154 -137 -726 -191 -1042 -136 -802 -152 -896 -158 -901 -12 -12
-238 -4 -316 11 -167 32 -401 127 -401 163 0 46 258 893 567 1860 l68 214 75
-4 c130 -8 337 10 490 41 183 38 192 39 270 37 l65 -1 42 -415z m-1627 161 c0
-5 -3 -17 -6 -25 -5 -13 -9 -14 -20 -5 -21 17 -17 39 6 39 11 0 20 -4 20 -9z
m-52 -99 c10 -7 9 -18 -5 -55 -10 -26 -23 -47 -29 -47 -6 0 -31 17 -54 38 -58
51 -51 72 22 72 29 0 59 -4 66 -8z m164 -49 c61 -32 112 -62 115 -68 2 -6 -5
-33 -17 -59 -20 -48 -21 -48 -58 -41 -34 6 -159 60 -191 83 -11 8 -10 21 10
76 13 36 26 66 28 66 2 0 53 -26 113 -57z m216 -15 c19 -19 14 -28 -18 -28
-32 0 -33 1 -24 24 7 19 25 21 42 4z m-190 -179 c30 -8 44 -19 46 -33 27 -136
38 -187 48 -222 32 -114 -57 -90 -107 29 -8 20 -21 37 -28 37 -7 0 -41 -50
-77 -111 -62 -106 -100 -148 -148 -163 -28 -9 -39 14 -23 52 7 16 48 82 91
148 76 113 91 144 71 144 -4 0 -41 -49 -81 -110 -60 -90 -80 -113 -116 -130
-47 -23 -77 -23 -82 0 -1 8 26 48 61 88 79 92 130 173 125 204 -2 19 -10 10
-42 -46 -46 -82 -133 -176 -163 -176 -45 0 -34 31 36 106 73 79 125 151 161
225 l23 46 81 -37 c44 -21 100 -44 124 -51z m160 48 c18 -18 29 -36 26 -40 -9
-9 -104 -9 -104 0 0 20 26 73 35 73 6 0 26 -15 43 -33z m-188 -1683 c170 -82
353 -127 533 -128 l119 -1 -7 -50 c-3 -27 -9 -61 -12 -74 l-6 -24 -156 6
c-206 8 -342 38 -486 108 -99 48 -96 43 -78 127 9 40 17 72 18 72 1 0 35 -16
75 -36z m1670 -59 c0 -39 -5 -47 -42 -80 -57 -49 -186 -110 -283 -135 -77 -20
-281 -29 -319 -14 -12 5 -16 21 -16 68 l0 61 118 1 c185 3 340 40 462 112 36
21 68 37 73 35 4 -2 7 -24 7 -48z m-1289 -306 c71 0 133 2 139 6 5 3 10 3 10
-2 1 -11 -53 -597 -55 -600 -2 -4 -204 -33 -230 -33 l-25 0 0 321 c0 295 1
321 17 315 9 -4 74 -7 144 -7z m1109 -352 c-5 -192 -10 -350 -12 -352 -6 -6
-238 -29 -243 -24 -10 10 -55 696 -46 705 2 2 47 4 100 5 53 0 119 6 146 13
28 7 53 10 56 7 3 -3 3 -163 -1 -354z m-1163 -463 c22 -22 24 -31 19 -66 -7
-43 -23 -78 -55 -117 l-19 -24 -16 31 c-19 36 -43 52 -81 52 l-26 0 23 41 c26
47 91 109 113 109 9 0 27 -12 42 -26z m1266 -68 l27 -11 -26 -38 c-24 -36 -28
-38 -62 -32 -58 10 -80 55 -46 90 17 17 51 14 107 -9z m137 -32 c2 -3 -2 -17
-11 -32 -10 -19 -24 -28 -48 -30 -57 -6 -65 3 -39 43 21 33 26 35 58 29 19 -3
37 -8 40 -10z m-1305 -38 c15 -23 14 -28 -16 -88 -17 -34 -50 -90 -72 -123
-41 -61 -159 -185 -176 -185 -14 0 -34 67 -25 82 7 11 114 159 221 306 29 38
47 40 68 8z m1408 13 c41 -11 43 -15 22 -45 -12 -19 -20 -20 -57 -13 -24 4
-46 8 -51 9 -13 0 23 60 36 60 6 0 29 -5 50 -11z m160 -39 c31 -7 57 -16 57
-20 0 -4 -8 -14 -18 -23 -16 -14 -26 -15 -83 -5 -35 6 -65 13 -67 14 -8 6 32
55 42 51 6 -3 37 -10 69 -17z m-1779 -6 c25 -24 24 -84 -1 -123 l-15 -24 -25
32 c-17 22 -33 31 -54 31 -39 0 -38 23 5 66 37 37 66 43 90 18z m1538 -44
c257 -38 252 -37 242 -58 -4 -9 -12 -42 -19 -72 l-12 -55 -49 -7 c-27 -3 -126
-7 -220 -7 l-171 -1 -14 26 c-22 42 -103 109 -147 122 -22 7 -60 15 -86 18
-44 6 -46 8 -46 38 l0 32 160 -3 c113 -2 218 -12 362 -33z m410 -3 c46 -35 60
-76 39 -116 -12 -21 -78 -46 -150 -57 l-44 -7 6 51 c6 55 27 104 60 140 27 29
38 28 89 -11z m-1706 -61 c-21 -85 -215 -300 -316 -351 -70 -35 -159 -53 -171
-34 -15 24 -10 29 34 29 128 1 283 135 421 366 22 37 31 44 34 31 2 -10 1 -29
-2 -41z m-314 -23 c26 -23 22 -58 -10 -94 l-28 -32 -33 18 c-19 9 -47 15 -62
13 -29 -5 -29 -4 -13 21 47 74 65 91 96 91 17 0 40 -7 50 -17z m1224 -2 c39
-18 114 -85 114 -103 0 -4 -17 -6 -37 -3 -21 3 -71 9 -112 14 -40 6 -78 14
-83 19 -5 5 -12 28 -15 51 l-6 41 49 0 c27 0 67 -9 90 -19z m819 -123 c-4 -18
-8 -34 -9 -35 -6 -7 -255 -36 -396 -44 -179 -12 -503 0 -521 18 -4 4 -11 21
-15 37 l-7 29 79 -7 c290 -28 578 -22 764 13 52 10 99 19 103 20 5 0 5 -14 2
-31z m-2116 -24 c17 -14 35 -41 40 -61 18 -64 -11 -86 -114 -87 -50 -1 -50 -1
-64 41 -18 52 -6 84 41 113 43 26 60 25 97 -6z"/>
<path d="M1666 6651 c-4 -6 -1 -13 6 -15 179 -56 232 -65 202 -37 -32 32 -196
72 -208 52z"/>
<path d="M1542 6588 c3 -7 22 -14 42 -16 28 -2 37 0 34 10 -3 7 -22 14 -42 16
-28 2 -37 0 -34 -10z"/>
<path d="M2003 6354 c-9 -24 10 -49 38 -49 27 0 37 28 19 50 -17 20 -49 19
-57 -1z"/>
<path d="M1806 6278 c-20 -28 -20 -33 0 -52 21 -22 41 -20 54 5 9 16 8 26 -5
45 -19 30 -30 30 -49 2z"/>
<path d="M1950 6274 c-40 -34 -25 -57 16 -25 37 29 57 11 26 -22 -25 -27 -28
-47 -8 -47 20 0 56 48 56 74 0 50 -43 59 -90 20z"/>
<path d="M1850 6120 c0 -49 34 -90 76 -90 36 0 107 70 102 102 -3 22 -8 23
-90 26 l-88 3 0 -41z m99 -33 c13 -17 5 -27 -24 -27 -21 0 -45 17 -45 32 0 13
57 9 69 -5z"/>
</g>
</svg>
