<svg viewBox="165.82258064516134 36.03750000000002 444.5967741935483 924.9625" xmlns="http://www.w3.org/2000/svg" overflow="visible" xmlns:xlink="http://www.w3.org/1999/xlink" width="444.5967741935483px" height="924.9625px"><g id="Master/Character/Standing" stroke="none" stroke-width="1" fill="none" fill-rule="evenodd"><g id="Bottom/Standing" transform="translate(39.000000, 389.000000) scale(1 1)"><g id="Bottom/Standing/Pants and sandals" stroke="none" stroke-width="1" fill="none" fill-rule="evenodd"><path d="M204.720189,482.965332 L207.088952,491.347044 L208.516508,504.182635 L207.088952,513.059222 L213.744849,519.983584 L213.744849,527.544075 L222.960445,534.572672 L222.960445,543.807751 L233.446352,547.847612 L237.230981,556.206917 L245.590287,554.308271 L253.820509,559.296682 L259.991958,556.206917 L265.576246,561.162492 L276.638231,556.206917 L279.847922,561.162492 L290.131111,556.206917 L294.215709,559.296682 L304.762988,554.308271 L310.07339,556.206917 L315.321957,545.91974 L312.463374,524.80375 L295.108397,515.118304 L279.847922,513.059222 L275.566789,470.939926 L304.762988,442.398152 L353.916748,399.601807 L378.093703,431.566828 L412.845322,494.941704 L423.054215,536.225268 L427.922379,546.057024 L437.439523,543.807751 L446.193068,546.057024 L451.148931,542.638854 L459.066776,546.057024 L469.118768,546.057024 L472.988549,547.847612 L480.728767,543.807751 L488.304998,546.057024 L496.648354,543.807751 L508.458266,545.91974 L514.325205,539.286879 L521.045541,542.638854 L530.967755,540.662014 L538.775953,540.662014 L540.671703,539.286879 L548.297217,540.662014 L554.81764,534.572672 L554.81764,521.011956 L548.297217,504.182635 L521.045541,491.347044 L467.429016,482.965332 L454.574972,481.685213 L446.193068,451.847885 L416.349847,360.79803 L408.914378,333.067296 L425.689849,302.886253 L439.970451,267.503273 L442.891326,240.134886 L420.161713,165.654837 L393.166034,101.672278 L363.730443,31.2331738 L348.595142,1.11022302e-15 C278.208651,-1.29129898 241.420563,-1.93694847 238.230879,-1.93694847 C235.041194,-1.93694847 226.703748,4.52987092 213.218541,17.4635097 L198.484597,45.4708253 L196.48804,83.6206694 L204.720189,129.14435 L229.57129,197.959043 L258.163356,264.513198 L285.582185,312.566439 L301.397542,334.800977 L288.528357,363.241718 L272.125447,407.973383 L242.88044,448.431297 L204.720189,482.965332 Z" id="Fill" fill="#FFF"/><path d="M238.374393,-3.9861069 C240.127991,-3.80362254 241.131543,-1.70714992 239.988666,-0.362638725 C239.981334,-0.356346161 239.976096,-0.349004836 239.969811,-0.341663511 C239.140151,0.604318628 237.887282,1.17694196 236.093878,2.40608949 C253.2475,13.4222717 271.926354,15.3708691 291.333254,16.5454811 C291.601427,12.8580385 291.678946,9.65407459 292.150343,6.50884129 C292.306428,5.46532441 293.364453,3.88274453 294.200397,3.74955193 C296.254642,3.42338735 296.499768,5.22515821 296.512339,6.82556702 C296.538527,10.0190433 296.520719,13.2114708 296.520719,16.3304851 C304.491523,18.9125339 334.692373,14.2717679 350.16363,8.34627001 C349.500532,6.85178604 348.681348,5.42127646 348.259186,3.88169577 C348.053866,3.13078312 348.432031,1.54086192 348.82591,1.44122966 C349.757181,1.20630726 351.124233,1.30593953 351.821901,1.87541658 C352.802408,2.67562098 353.458173,3.96349911 354.038516,5.14859868 C357.471335,12.150125 361.135663,19.0572629 364.180889,26.226591 C377.43239,57.4251238 390.634655,88.6456807 403.591794,119.967967 C416.402276,150.93787 428.918397,182.03782 438.907828,214.064874 C442.4894,225.545657 444.477649,237.335825 444.445174,249.495156 C444.409558,262.792393 440.408967,275.024089 435.461391,287.026106 C428.995915,302.711371 421.900863,318.118714 412.491774,332.307397 C411.006349,334.54755 411.194908,336.297932 411.928193,338.647156 C418.904872,361.000441 425.707658,383.406164 432.655006,405.766791 C434.347846,411.2172 436.340285,416.578465 438.279299,421.950217 C444.742679,439.856757 451.24377,457.750712 457.735434,475.646764 C458.252924,477.076225 458.807077,478.4931 459.493222,480.306408 C466.729694,481.158001 474.059397,482.105032 481.407956,482.865384 C495.415787,484.316869 509.434094,485.673965 523.008239,489.733718 C530.708775,492.037845 537.981911,495.239711 544.667371,499.778747 C549.601329,503.12744 553.004817,507.564747 554.726989,513.231201 C556.989695,520.674255 559.824364,528.062774 556.430304,536.006088 C555.335615,538.569259 554.054462,540.730755 551.544533,542.049047 C547.432902,544.206348 543.85133,543.43446 540.952761,540.119327 C538.65339,541.815173 536.731137,544.149714 534.393006,544.694021 C532.165916,545.212109 530.401843,542.761155 527.30843,542.09729 C522.021448,546.088873 520.068816,547.205803 513.337263,542.641597 C510.896473,545.225743 509.124019,549.538247 504.759928,548.921576 C501.310348,548.432853 498.031518,546.732812 494.363,545.461714 C492.539216,546.468524 490.143471,548.788383 487.671254,548.874381 C485.221036,548.958282 482.694347,546.789445 479.977004,545.502616 C477.971994,546.941515 475.66529,549.314861 472.858905,550.423401 C469.481606,551.755327 466.712933,549.471126 464.572789,546.941515 C457.672581,551.477405 457.337365,551.429162 450.409921,545.083112 C443.633324,550.894294 442.404548,550.938342 436.603219,545.571834 C436.250195,545.689295 435.818605,545.715514 435.554622,545.9389 C430.327351,550.366768 426.030303,549.846583 422.619482,544.088886 C421.446227,542.108826 420.693039,539.906429 420.275066,537.642154 C418.647175,528.840955 417.037091,520.02717 415.80203,511.165142 C415.077126,505.96224 413.300482,501.365522 410.760175,496.789779 C399.292651,476.147023 387.874362,455.470706 376.838429,434.594076 C370.694552,422.970661 361.633249,413.821273 353.287423,403.740585 C347.824453,408.576421 342.795168,413.18887 337.590942,417.594714 C329.886216,424.115908 322.594225,431.34921 314.121645,436.676914 C306.378159,441.544213 301.511245,448.523715 295.933044,455.144541 C291.760655,460.096789 287.571504,465.041696 283.218936,469.833484 C279.989342,473.389831 278.309072,478.093523 278.672572,482.88531 C279.348241,491.785093 280.214565,500.682779 281.026416,509.919214 C286.314445,511.245897 291.268306,512.403729 296.171885,513.747191 L298.003142,514.249955 C301.057016,515.093188 304.11004,515.981576 307.016117,517.195516 C312.265387,519.387426 315.492887,523.330766 316.5132,529.144047 C317.678075,535.77536 318.390409,542.3427 316.423111,548.927868 C316.04285,550.203161 315.703444,551.502576 315.176527,552.717041 C312.444518,559.019043 309.113311,559.982855 302.935912,556.124464 C299.086168,558.762097 295.856573,564.540769 290.120192,559.474206 C282.297093,565.477312 280.37903,565.479409 274.418474,559.653544 C266.495857,564.897347 264.634362,564.809251 259.72764,559.226698 C256.949539,559.932514 254.199722,561.433291 251.779883,561.015884 C249.462704,560.616306 247.488073,558.224083 245.189749,556.582772 C236.483566,560.402359 232.546875,556.898449 230.545008,548.438097 C227.283987,547.922107 222.757526,548.836626 221.305622,544.786312 C220.150175,541.560324 220.444537,537.812054 220.064276,533.994565 C217.504065,532.536787 214.041915,531.221642 211.455515,528.920661 C208.473142,526.266247 210.165982,522.558878 211.063732,519.365402 C202.60896,513.902408 202.230795,512.429948 206.612694,502.549573 C201.839011,497.311013 202.958842,496.343007 205.973689,489.909909 C201.304761,486.663995 201.761493,485.460018 202.079948,483.339424 C202.422496,481.054174 204.731295,478.934629 206.494321,477.032177 C208.033171,475.375135 209.967995,474.069428 211.794921,472.698698 C231.162015,458.157631 247.477597,440.798544 260.995175,420.650802 C267.925762,410.322607 273.692522,399.761587 277.581025,387.771106 C282.739159,371.865602 289.585942,356.493916 296.091224,341.054061 C297.185913,338.45733 298.672386,335.209318 298.672386,335.209318 C298.672386,335.209318 296.167695,330.512968 294.774454,328.566468 C267.783296,290.826815 248.041179,249.240307 230.614147,206.436188 C219.475554,179.078217 209.075483,151.474836 201.458751,122.889815 C196.830677,105.516045 193.449188,87.9293772 194.074575,69.8760107 C194.357413,61.7250427 195.234212,53.4954176 196.863151,45.5101537 C201.148676,24.5076722 214.648446,10.213064 232.080716,-0.942603384 C233.841646,-2.06897236 235.643431,-3.23834053 237.590826,-3.91793745 C237.830715,-4 238.094697,-4.01547219 238.374393,-3.9861069 Z M221.458565,470.939926 C216.586412,474.866486 212.322886,478.302226 207.795377,481.950864 C206.791825,482.75841 206.869344,484.322112 207.95251,485.019538 C212.190895,487.745267 211.804349,488.327329 209.004249,492.865317 C208.710936,493.339357 208.473142,493.848006 208.245824,494.384971 C207.717859,495.63824 208.201827,497.096018 209.360416,497.803931 C209.907237,498.136388 210.427869,498.442626 210.965262,498.719499 C213.409195,499.980109 213.663749,501.702174 212.142707,503.837451 C211.590649,504.610388 210.922312,505.30257 210.394347,506.090189 C207.321885,510.679566 207.84566,512.283121 213.100168,514.50125 C217.01067,516.15095 217.261034,516.664843 215.940074,520.344944 C213.805168,526.296661 213.970681,526.623875 220.214076,528.639593 C220.754611,528.814736 221.322383,528.907027 221.868156,529.069585 C224.665113,529.899154 225.920078,531.733437 225.453918,534.659479 C225.304119,535.59812 225.074705,536.527322 224.948999,537.469109 C224.228285,542.888055 224.70073,543.455435 230.023329,543.62009 C231.163063,543.654699 232.460976,543.331681 233.402723,543.776356 C234.39161,544.242005 235.345927,545.311741 235.751329,546.339527 C236.13578,547.313825 235.608862,548.606947 235.796374,549.706049 C236.41757,553.328468 238.711704,554.373034 242.003104,552.617408 C242.669345,552.26083 243.24026,551.72701 243.900216,551.353652 C247.038674,549.571807 247.806528,549.846583 249.737162,552.93728 C250.29341,553.827678 250.954414,554.649906 251.67408,555.523524 C252.442982,556.460067 253.854031,556.539773 254.723497,555.69657 C255.874754,554.580688 256.817548,553.663023 257.80434,552.796746 C259.689929,551.140753 261.269633,551.604305 262.421938,553.713363 C263.482058,555.652522 263.823559,558.854388 266.500048,558.533467 C268.406587,558.305886 270.080571,556.08566 271.845692,554.739051 C272.145291,554.510421 272.357944,554.171672 272.648115,553.930457 C275.033385,551.94725 276.684323,552.200002 278.122608,554.822952 C278.482965,555.480525 278.537438,556.306948 278.89989,556.963473 C280.395791,559.670324 282.005874,560.018512 284.359718,558.025867 C285.35908,557.179517 286.141599,556.058392 286.946117,555.00229 C290.717295,550.050042 291.653804,550.139187 294.379528,555.715447 L294.382671,555.722789 C294.823689,556.620528 296.066083,556.721209 296.677852,555.929395 C297.684547,554.625785 298.765618,553.03901 299.822595,551.910544 C302.634218,548.907942 303.416737,548.921576 306.115224,551.840277 C306.515388,552.273415 306.953264,552.669846 307.448755,553.10718 C308.168421,553.742728 309.300822,553.604292 309.82774,552.800941 C312.309384,549.023305 312.881346,544.334296 312.894964,539.879161 C312.894964,539.879161 310.960141,540.48954 310.25514,540.587074 C301.78675,541.761686 293.345597,543.175416 284.849971,544.104618 C273.288168,545.370472 261.702271,545.354741 250.161419,543.58653 C243.358633,542.545111 237.89252,539.624312 235.110229,532.917488 C231.468947,524.146702 227.13314,515.580425 224.428367,506.527522 C222.057763,498.594697 221.281529,490.138539 220.30626,481.854378 C219.93019,478.665097 220.948408,475.312209 221.458565,470.939926 Z M551.333976,520.087998 C508.487109,520.394236 465.991171,522.779118 423.054215,526.673166 C424.168808,532.29767 423.95825,538.125633 427.877133,542.831422 C428.891161,544.049033 430.762084,544.042741 431.737352,542.792618 C432.345979,542.01234 432.90118,541.299183 433.451143,540.581831 C436.325619,536.836706 437.750286,536.915363 439.949092,540.916385 C440.348209,541.644225 440.772466,542.356334 441.311954,543.25617 C442.080855,544.535658 443.862737,544.724435 444.87886,543.631627 C446.095065,542.321725 447.098617,541.241501 448.122073,540.178058 C451.263674,536.914315 452.250465,537.091555 454.376991,540.900654 C454.748871,541.567666 455.180461,542.202166 455.660239,542.857641 C456.921488,544.577609 459.477509,544.622706 460.82361,542.967761 C461.599844,542.01234 462.317415,541.156551 463.075841,540.340616 C465.158369,538.100463 466.999961,538.521016 468.12922,541.413498 C468.403678,542.116168 468.390059,542.933152 468.684421,543.622188 C469.880722,546.42972 471.738027,546.856566 473.909597,544.656266 C475.2337,543.313852 476.162876,541.591787 477.385366,540.137156 C479.699403,537.382062 480.96589,537.444987 483.210789,540.203228 C483.976547,541.142918 484.768495,542.060583 485.653674,543.082076 C486.613229,544.18747 488.340638,544.164397 489.270862,543.035931 C490.354028,541.719736 491.295775,540.578684 492.268949,539.466998 C493.793133,537.725007 495.410549,537.356892 496.998634,539.417706 C497.577929,540.169668 498.00952,541.059017 498.678904,541.712395 C502.619785,545.563444 505.753005,545.21106 508.827563,540.617488 C509.463425,539.66836 509.975677,538.631136 510.659727,537.720811 C513.002047,534.597602 514.481187,534.645845 516.640186,537.84876 C519.766074,542.484283 520.671156,542.531477 523.904942,538.22107 C524.246443,537.766957 524.485284,537.225796 524.860307,536.805243 C526.884172,534.536774 528.387406,534.694088 530.170335,537.325429 C530.459458,537.750177 530.747534,538.175974 531.03142,538.596527 C531.912409,539.901185 533.776,540.191692 534.922019,539.113566 C536.234598,537.877077 536.808655,536.07216 537.877156,534.744429 C540.471936,531.514246 542.123921,531.614927 544.066078,535.366344 C544.867453,536.914315 545.455128,539.037006 547.475851,538.465432 C549.085935,538.010269 550.993522,536.642685 551.661859,535.174421 C553.932946,530.19071 554.54681,525.036051 551.333976,520.087998 Z M292.148248,518.834729 C284.959964,523.858293 280.928993,530.69831 279.847922,540.347957 C291.086033,538.765377 301.536386,537.291868 312.463374,535.753336 C312.404711,530.354316 312.253864,525.613918 307.97672,523.221695 C303.921656,520.953226 299.255871,519.753443 294.802738,518.249521 C294.055835,517.997818 292.849058,518.343909 292.148248,518.834729 Z M245.998458,466.447035 C239.710018,471.315382 233.911832,475.936222 227.960704,480.352553 C225.369067,482.274932 224.594928,484.411257 224.997187,487.646684 C226.950866,503.360265 232.266132,517.895039 239.646118,531.794265 C242.508023,537.184895 247.029246,538.958349 253.061036,538.982471 C254.648073,524.373234 264.622839,516.892424 276.638231,511.066559 C275.580206,500.184618 274.538942,489.467332 273.499773,478.787802 C263.307117,476.779426 254.131631,473.345783 245.998458,466.447035 Z M461.231107,487.528174 C454.912288,489.574306 448.515952,491.386564 442.136376,493.239725 C436.890248,494.765671 431.621074,496.208766 425.689849,497.877344 C428.008076,506.162554 430.087462,513.598267 432.162657,521.011956 C457.363554,519.422035 481.961062,517.870918 506.900072,516.298826 C507.239478,507.23229 506.571141,498.814936 504.129303,490.360876 C503.086992,490.14588 502.188194,489.888934 501.271589,489.784058 C491.455003,488.660835 481.621656,487.66661 471.823926,486.401805 C468.132362,485.925667 464.727827,486.395512 461.231107,487.528174 Z M527.027686,495.750458 C527.639455,502.824348 528.188371,509.155717 528.789665,516.102707 C536.020898,515.35599 543.112808,516.398458 550.52422,514.970046 C546.320404,503.294193 536.526865,500.205593 527.027686,495.750458 Z M427.669718,407.973383 C410.946639,412.780902 392.888982,415.862161 376.644633,422.533328 C386.518834,441.50436 396.161526,460.030717 405.958208,478.853874 C420.470958,475.533498 434.43584,472.337924 449.046012,468.994475 C442.187705,449.686791 435.527386,430.88356 428.798976,412.1055 C428.317103,410.75994 427.669718,407.973383 427.669718,407.973383 Z M273.465204,410.306876 C267.007061,419.66287 260.446259,429.166739 253.820509,438.762899 C261.112501,450.428265 270.873566,457.088944 283.633766,461.851366 C289.938966,453.951052 296.674709,446.69153 302.429946,439.478154 C292.658404,429.636584 283.303788,420.215567 273.465204,410.306876 Z M310.778914,360.79803 C301.029372,378.988784 291.88217,396.054218 282.840771,412.920387 C290.171522,422.278479 298.552965,429.376491 307.620553,436.525893 C317.558654,428.330877 327.340671,420.262761 337.306009,412.045721 C328.488785,395.010701 319.928211,378.473843 310.778914,360.79803 Z M226.347478,9.12969425 C213.760124,17.8637732 204.236852,32.4614732 201.558268,44.9448717 C198.857686,57.5258049 197.857276,70.1738587 198.874446,82.9991532 C199.933519,96.3425354 202.580676,109.381777 206.020829,122.29307 C214.135147,152.7323 225.562863,181.983284 237.432646,211.092686 C256.944302,258.938197 280.633584,304.476435 312.440328,345.371809 C330.212004,368.220109 348.824862,390.415032 367.121361,412.853267 C369.816705,416.157912 372.505765,418.806032 372.505765,418.806032 C374.222698,418.700107 376.521022,417.731053 380.428381,416.069816 C380.931205,415.856917 381.331369,415.402804 381.777625,415.060908 C370.393905,399.983924 358.853053,385.099913 347.750077,369.896029 C331.683811,347.897225 315.577738,325.875348 302.712784,301.773779 C280.817953,260.754651 260.606534,218.929026 243.563953,175.619404 C234.286855,152.043264 225.358591,128.346516 218.831311,103.828589 C213.575755,84.0909131 210.142936,64.0700716 208.501426,43.6601398 C208.061455,38.1887553 209.178143,33.9758837 211.87663,29.8794244 C216.371665,23.0561874 221.209248,16.4573852 226.347478,9.12969425 Z M268.941885,19.1390662 C255.039857,37.8112015 238.947402,51.1419986 213.694128,45.4073751 C213.694128,46.9406633 213.586231,48.4456348 213.710889,49.9327775 C215.561909,72.0479941 220.108273,93.6440741 226.708882,114.788138 C240.757568,159.790459 258.783798,203.210201 279.377573,245.569645 C291.535431,270.577343 303.358074,295.779063 318.343269,319.287033 C334.84741,345.177788 353.017155,369.888688 371.647822,394.265032 C375.6966,399.562322 380.101546,404.586935 384.114708,409.909395 C385.211492,411.365075 386.452838,413.107067 387.716183,413.559083 C387.716183,413.559083 390.441906,413.161602 392.375682,412.47781 C397.374588,410.710649 402.663665,409.76991 407.814466,408.423302 C414.03691,406.797722 420.245735,405.118657 427.151181,403.27913 C425.240451,396.3657 423.616749,390.320643 421.899816,384.299708 C409.27475,340.03152 391.782769,297.63432 372.660802,255.860085 C361.007862,230.403516 348.598592,205.254235 338.017295,179.357187 C324.193833,145.524168 311.836939,111.089159 298.861992,76.9079511 C297.96529,74.5482396 297.12725,72.166504 296.155124,69.4428725 C295.720391,68.2242126 296.413869,66.8828477 297.6615,66.5430492 C303.277413,65.0118586 308.704767,64.3930898 314.07241,63.5750565 C314.648562,63.4869606 315.853244,64.5462089 315.959046,65.2037819 C316.069039,65.8812813 315.373466,67.0370155 314.707225,67.4156181 C313.581109,68.0553622 312.22139,68.3427226 310.925571,68.6112053 C307.964149,69.2257791 304.982823,69.7407206 301.62438,70.3678795 C302.220436,72.2986479 302.647836,73.9179344 303.216655,75.4847829 C305.231093,81.0348244 307.295813,86.5649395 309.335391,92.1044935 C322.295673,127.309292 334.889312,162.653576 350.425518,196.852613 C370.033548,240.020652 391.086149,282.555239 407.717044,327.039472 C407.937029,327.628876 408.220915,329.163213 408.742595,329.75786 C409.333413,329.064629 410.124312,327.575389 410.412389,327.098203 C421.518508,308.783695 430.552574,289.501181 436.993955,269.060835 C440.49277,257.955508 440.574479,246.56387 438.947635,235.103013 C436.709022,219.328604 431.441943,204.411032 425.955927,189.588897 C407.833322,140.634845 387.521338,92.571192 366.710721,44.7151931 C366.353507,43.8940135 365.794116,43.1609298 365.391857,42.4897229 C345.028543,46.1184349 329.879931,40.2705453 322.445473,20.2192897 C313.872328,20.86218 305.597735,21.4830464 297.003639,22.1280342 C297.181723,25.1610501 297.354569,27.7923907 297.48656,30.4258287 C297.793492,36.5149333 298.137088,42.6029891 298.340313,48.6962887 C298.394785,50.3050875 298.76876,52.6092148 296.448438,52.8388934 C294.006601,53.0801083 294.146972,50.8294679 294.033837,49.1493533 C293.78871,45.5384702 293.598056,41.9233921 293.377023,38.3114603 C293.041807,32.8274907 292.699259,27.3435211 292.339949,21.5260456 C284.176397,20.6933296 276.471671,19.9078078 268.941885,19.1390662 Z M300.574735,341.753585 C295.199759,354.988945 289.990296,367.431441 285.105573,380.000838 C282.424894,386.900635 280.314082,394.02172 277.89948,401.027441 C277.436464,402.369855 276.790126,404.854369 276.790126,404.854369 C276.955638,406.095053 278.428493,407.609463 279.803925,408.735832 C279.803925,408.735832 280.198851,408.151673 280.27218,408.017431 C289.405763,391.362063 298.54249,374.708792 307.605887,358.014619 C308.09614,357.111636 308.440784,355.637079 308.04481,354.824289 C305.948664,350.528565 304.139546,346.018894 300.574735,341.753585 Z M234.750919,8.22985758 C227.493497,13.8239471 215.350304,30.7677247 213.218541,38.7414522 C218.564186,42.4404312 223.173403,43.1714174 230.259027,41.937026 C244.921577,39.3801475 254.864916,30.2454419 263.243216,18.8233893 C253.689566,15.2712368 244.356948,11.8019365 234.750919,8.22985758 Z M353.458173,12.6252136 C348.595449,13.9235793 344.419917,15.0572896 340.234957,16.1490495 C336.109707,17.225078 331.973982,18.259156 327.874921,19.3037217 C331.312978,34.2191961 348.780865,42.9459338 363.730443,37.1714575 C360.323812,29.030977 356.925562,20.9093743 353.458173,12.6252136 Z M309.985621,10.5717849 C310.184425,13.1944777 308.309529,14.9003029 305.120196,14.9959667 C301.624197,15.1002295 299.132795,13.1740551 299.003784,10.2654458 C298.896979,7.87815048 301.061623,6.09493437 304.176932,6.0024952 C307.062771,5.91650528 309.794219,8.06517857 309.985621,10.5717849 Z" id="Stroke" fill="#000"/></g></g><g id="Head" transform="translate(195.000000, 0.000000) scale(1 1)"><g id="Head/Curly" stroke="none" stroke-width="1" fill="none" fill-rule="evenodd"><path d="M170.64128,88.7356451 C185.655553,109.616646 188.895035,130.639952 180.359726,153.806564 C174.291617,170.27668 158.155847,178.46999 131.952416,176.386494 L131.155291,176.320518 L132.827644,192.80238 C135.143217,195.584177 136.565036,199.351788 136.565036,203.5 C136.565036,212.060414 130.510065,219 123.04088,219 C115.571694,219 109.516723,212.060414 109.516723,203.5 C109.516723,203.285115 109.520538,203.071252 109.528095,202.858494 L107.870388,202.741239 L107.635368,199.904571 C105.106206,169.756389 102.700852,153.342989 100.419306,150.664369 C82.2452225,150.761559 74.7379671,140.967478 76.1715482,134.355897 C77.6051292,127.744316 83.9166911,129.380158 90.9565033,124.028616 L92.4375727,122.187207 C107.966573,102.801458 109.804299,98.1548101 129.925625,93.4929922 C143.754715,90.2889935 157.3266,88.7035445 170.64128,88.7356451 Z" id="Path" fill="#FFF"/><path d="M138.450864,55.1703416 C140.902305,57.7179714 142.865608,60.6682782 145.340703,63.7950053 C146.839523,63.0753697 148.485644,62.2500812 150.162945,61.4875863 C160.446095,56.815935 174.149434,59.1961149 182.209083,66.528026 C190.133258,73.7373399 191.181572,90.2441071 185.043293,98.4920087 C183.97683,99.9250306 182.975476,100.885566 181.980398,101.371863 C186.153184,108.507722 188.573074,116.265099 188.89365,124.716228 C189.17723,132.193673 189.003632,139.603962 186.99485,146.940077 C182.420908,163.660086 169.126071,171.513408 152.675192,175.687146 C147.197676,177.076387 141.172409,176.597269 134.939038,177.003216 C135.044707,178.173948 135.123419,179.753633 135.33907,181.315277 C136.231862,187.782365 137.16994,194.244441 138.08861,200.708522 C138.128506,200.996193 138.155462,201.284867 138.168401,201.574543 L138.180199,201.871001 C138.23269,203.410387 138.113965,205.031576 135.966612,205 C135.094307,204.986503 133.714145,203.177282 133.49526,202.034616 C132.603546,197.380758 131.738789,190.905652 131.252498,186.19867 C130.365097,182.328641 130.841684,182.004886 129.360167,180.557509 C128.845841,180.055337 127.447349,178.522762 127.054866,177.933386 C124.243865,173.703518 123.412533,173.24144 121.252796,168.846185 C121.20104,168.628678 121.184866,168.403152 121.193492,168.172614 C121.259266,166.519758 122.883112,165.341008 124.629879,165.655742 C125.166848,165.751966 125.641278,165.910336 125.979849,166.204021 C135.11048,174.137531 145.619117,173.70853 156.211856,170.139202 C171.462641,165.000213 181.777192,155.695504 183.619923,139.804429 C185.053998,127.4476 184.594663,115.3604 177.965574,104.227426 C175.732516,100.475673 173.27626,97.3132949 169.587562,93.8371849 C169.085331,93.2311889 168.520928,91.8480961 167.756481,91.0798913 C167.623189,90.9459433 166.619552,90.1250189 166.576007,90.0089369 C166.526681,89.877588 166.478393,89.7835782 166.435492,89.7146075 C155.400234,104.762154 140.259779,105.727149 123.198171,101.829045 C122.429408,103.857381 121.818698,105.706306 121.034882,107.489448 C117.470649,115.605947 106.435547,122.028408 97.6622856,121.966655 L97.6713346,121.865677 C97.6648651,122.577337 96.5639706,123.734036 95.6603961,124.002663 C93.0898453,124.763438 90.8761956,124.956889 88.4307219,125.937176 C86.3443058,126.773126 84.3948276,128.238545 82.8313634,129.80921 C77.8897382,134.777802 79.0423887,140.552274 85.8461537,142.870683 C90.1688628,144.344121 94.9713936,144.723005 99.6035607,145.257251 C104.972173,145.875694 105.899469,146.301688 106.41703,150.958553 C108.087241,165.994633 109.639923,181.041738 111.176431,196.089847 C111.379142,198.073475 111.383455,200.105215 111.150553,202.080824 C111.073997,202.733346 109.994668,203.709624 109.307821,203.759741 C108.571376,203.812865 107.340013,203.101205 107.07045,202.453694 C106.594941,201.311028 106.669341,199.96589 106.538872,198.703945 L105.324342,186.951766 C104.486323,187.035732 103.620142,186.995901 102.778099,186.939416 C94.9592931,186.416135 88.3705082,183.7788 84.4718571,176.97615 C84.1084417,176.341236 83.6934171,175.73124 83.2730165,175.128221 C83.1762491,174.986686 82.9612104,174.915919 82.6020958,174.684678 C81.1054267,175.214936 79.4464033,175.720276 77.8604932,176.375124 C61.0702737,183.311336 42.0866599,169.418979 44.1553319,151.92645 C44.9853812,144.909504 47.5733716,138.571328 52.324651,133.026546 C53.6503644,131.478631 55.0094088,129.954638 56.6178981,128.117674 C55.0878979,127.298366 53.7793876,126.647504 52.524637,125.919895 C45.7993025,122.016718 43.3962454,116.065272 46.0691761,109.058293 C49.12165,101.05758 54.8932879,95.0652672 62.7873575,90.8242012 C69.4954889,87.2200426 76.8390595,85.5585016 85.4062001,85.0521651 C84.1417727,82.5693225 83.2386103,80.4821798 82.0612736,78.5375688 C77.7078157,71.346196 79.0206268,64.6810941 83.8686736,58.1734748 C96.9613031,40.5992149 122.992809,39.1031302 138.450864,55.1703416 Z" id="Stroke" fill="#000"/></g></g><g id="Body" transform="translate(28.000000, 114.000000) scale(1 1)"><g id="Body/Computer" stroke="none" stroke-width="1" fill="none" fill-rule="evenodd"><path d="M267.48354,81.764519 L239.446984,85.8799087 L196.245878,106.78899 L178.220343,130.762501 L162.528379,168.344062 L151.078176,210.502705 L144,234.287858 L146.406178,257.551606 L152.1312,275.081705 L175.914564,286.293977 L220.243778,286.293977 L253.891112,284.453318 L263.198064,290.34936 L278.411452,297.498099 L311.740599,303 L357.330499,303 L409.408178,287.436696 L411.545537,276.479035 L448.011297,254.814453 L507.192801,215.177362 L503.443805,201.155998 L565.550433,180.854961 L569,174.195803 L564.584226,171.709697 L565.550433,165.441717 L558.729888,162.825666 L556.477795,154.397053 L522.878743,164.312058 L527.939814,152.701646 L524.930064,149.610092 L491.159033,173.398974 L477.784145,165.441717 L431.675848,179.713934 L427.429421,172.074261 L416.831216,140.777405 L398.19894,110.686571 L373.547203,90.0379536 L347.441038,83.0459132 L307.825299,79.0133451 L302.973869,77.3032274 C287.843042,76.7021322 278.14528,76.9947115 273.880584,78.1809652 C269.615888,79.367219 267.48354,80.5617369 267.48354,81.764519 Z" id="Fill" fill="#FFF"/><path d="M298.8163,80.0255 C316.2173,81.1265 333.6283,82.1315 351.0073,83.5305 C361.0173,84.3365 369.9973,88.3255 377.9703,94.3665 C389.7683,103.3035 399.9373,113.7175 408.6803,125.8115 C418.4173,139.2775 425.4013,153.7835 429.6603,169.7315 C429.8433,170.4155 430.1783,171.0585 430.6613,172.2705 C432.6983,171.5245 434.5893,170.8945 436.4483,170.1075 C447.3433,165.4975 458.2713,160.9525 469.4023,156.9465 C479.5673,153.2895 477.8433,152.1355 486.8053,159.9415 C487.6193,160.6505 488.4063,161.3875 489.6913,162.5515 C493.4563,159.3815 497.2373,156.3515 500.8423,153.1255 C504.7683,149.6105 508.4243,145.7905 512.4083,142.3465 C514.5783,140.4715 517.1093,138.9685 519.6203,137.5505 C521.4353,136.5265 523.5093,136.3645 525.2233,137.9175 C527.0263,139.5505 527.3603,141.6755 526.6443,143.9195 C526.0953,145.6405 525.3593,147.3015 524.3453,149.9245 C527.5283,148.8225 530.1583,148.0265 532.6983,147.0055 C536.9543,145.2945 541.1423,143.4165 545.3773,141.6525 C546.4253,141.2155 547.4963,140.8355 548.5923,140.5415 C554.7753,138.8845 558.0513,140.7565 557.3603,146.7755 C558.4033,147.0875 560.8863,147.2105 561.9113,147.8335 C563.2463,148.6445 564.8873,150.1425 565.1893,151.3895 C565.5853,153.0275 564.5753,156.7355 564.5753,156.7355 C567.5623,157.5665 567.6863,158.0575 568.6523,159.3485 C569.1273,159.9835 569.4473,160.7445 569.439447,161.5385 C569.4313,162.3435 569.1203,162.8265 568.8793,163.5955 C567.5043,167.9645 564.1443,170.1015 560.0553,171.7705 C544.2613,178.2155 528.5523,184.8635 512.8273,191.4765 C511.1693,192.1735 509.6223,193.1335 507.8003,194.0885 C508.9373,197.3925 509.9373,200.6225 511.1723,203.7595 C511.9053,205.6235 511.3703,206.9345 509.9943,208.0805 C507.8993,209.8245 505.8173,211.5915 503.6393,213.2285 C481.5533,229.8185 459.5273,246.4905 437.2983,262.8865 C431.3493,267.2745 424.7663,270.7995 418.3053,274.8255 C418.4153,276.6085 419.0483,278.7185 418.5453,280.5095 C417.6373,283.7465 416.1263,286.4275 412.5723,288.2215 C391.3733,298.9195 368.9613,304.9425 345.3913,307.3525 C324.1003,309.5295 302.8963,309.9135 282.0183,304.7515 C272.3673,302.3645 263.0523,298.6035 253.6213,295.3595 C251.5233,294.6375 249.6633,294.2585 247.3543,294.8155 C231.4173,298.6545 215.2393,301.1545 198.8423,301.1615 C190.9123,301.1645 182.8063,300.4675 175.0893,298.7195 C159.7713,295.2485 149.2273,282.0855 147.5213,265.2515 C146.3823,254.0145 147.1423,242.8405 149.4863,231.7435 C152.6013,216.9985 155.2823,202.1615 158.4163,187.4205 C161.7503,171.7385 167.0283,156.6815 173.4093,141.9685 C179.6123,127.6695 189.2753,116.5565 202.3123,108.0835 C215.6993,99.3815 229.9883,92.9745 245.5133,89.1915 C250.4133,87.9975 255.1253,86.0305 259.9213,84.4145 C261.2963,83.9505 262.6383,83.3405 264.0473,83.0325 C267.0093,82.3845 267.9853,83.0085 268.5853,86.0295 C269.3963,90.1095 270.0543,94.2185 270.8323,98.6195 C279.6473,101.6125 287.0493,99.6825 294.3823,94.7505 C293.8523,90.9955 293.3203,87.2215 292.7373,83.0855 C292.5333,81.6445 293.5753,80.3195 295.0243,80.1845 C296.4073,80.0545 297.6173,79.9495 298.8163,80.0255 Z M401.1633,223.0875 C400.7543,227.5865 396.8013,231.8985 401.0223,235.0405 C399.6333,237.9635 400.2753,241.1685 399.8043,243.8525 C398.9713,248.5955 396.4643,250.8265 391.8833,251.2625 C389.3663,251.5025 386.9913,251.7195 385.5633,254.5895 C384.9313,255.8585 382.7603,256.3595 381.1173,257.3075 C380.1873,255.6815 379.5973,254.6515 378.9773,253.5685 C373.4273,254.4385 368.0603,255.2795 363.2673,256.0315 C359.6463,260.3165 359.4403,267.6185 351.4313,266.3395 C351.0013,266.2715 350.4513,266.7725 349.9973,267.0685 C338.7413,274.4285 326.1983,275.6205 313.3283,274.1485 C306.1213,273.3235 299.7683,274.6325 293.0903,275.9265 C289.1373,276.6925 290.2083,280.1175 290.3233,282.4795 C290.4953,285.9755 289.2233,289.6545 292.1883,292.7215 C292.6743,293.2235 292.2133,294.6395 292.1903,295.6325 C291.0573,295.4765 289.7163,295.6445 288.8443,295.0825 C287.7163,294.3565 286.9623,293.0475 286.0973,292.0475 C283.5943,292.8055 281.3353,293.4535 279.1003,294.1775 C276.8033,294.9225 274.5303,295.7415 272.2473,296.5275 C274.0573,298.1085 275.8743,298.7865 277.7353,299.3115 C279.6293,299.8455 281.5663,300.2285 282.4773,300.4425 C284.9783,299.1465 286.5903,298.3115 288.2023,297.4765 C288.6543,298.8945 289.1053,300.3115 289.7413,302.3095 C325.3563,307.1155 360.2973,304.0595 395.6743,291.2185 C393.7683,289.7045 392.6503,289.0735 391.9063,288.1435 C391.3223,287.4115 390.7183,286.1115 391.0013,285.4265 C391.3153,284.6665 392.6473,283.8625 393.4973,283.9015 C394.6393,283.9555 395.9073,284.5995 396.8253,285.3525 C398.0573,286.3615 399.0053,287.7175 400.2813,289.1565 C404.2353,287.2335 408.1383,285.3325 412.0443,283.4355 C414.1293,282.4225 414.7693,280.8835 414.3603,278.5465 C413.2643,272.2925 412.3463,266.0075 411.4173,259.7265 C410.9373,256.4775 410.2753,253.6705 407.0713,251.5785 C403.5143,249.2565 403.8433,247.3355 407.2393,244.3885 C407.6273,244.0515 407.8693,243.5475 408.3453,242.8915 C406.7033,237.0675 405.0383,231.1395 403.3463,225.2185 C403.2023,224.7155 400.7313,218.8385 401.1633,223.0875 Z M349.1536,291.3567 C349.8616,292.0157 351.2706,292.8727 351.1506,293.2987 C350.7256,294.7987 349.7776,296.1517 348.4736,298.6017 C347.2866,296.5037 346.0836,295.2787 346.3406,294.6457 C346.8566,293.3777 348.1696,292.4347 349.1536,291.3567 Z M332.2371,292.9455 C333.0841,292.9875 333.8721,294.2125 335.1011,295.2765 C333.7541,296.2025 332.6831,297.3425 332.2761,297.1405 C331.2051,296.6095 330.4241,295.4955 329.5271,294.6135 C330.4331,294.0095 331.3631,292.9025 332.2371,292.9455 Z M306.2953,84.6175 C305.1403,87.1675 304.1793,89.2885 303.2103,91.4285 C303.6973,92.1475 304.2013,92.6985 304.4853,93.3455 C305.8513,96.4645 304.1443,99.4515 301.0813,98.5655 C297.9073,97.6465 296.0203,99.0535 293.7193,100.3625 C279.8913,108.2345 264.9933,103.9245 257.6873,94.4895 C255.9963,92.3055 254.0383,91.6775 251.5053,92.3225 C249.9273,92.7245 248.3583,93.1595 246.6583,93.6145 C246.3983,94.2865 246.1733,94.9575 245.8843,95.5995 C244.5033,98.6635 242.9633,99.4955 240.6123,97.4715 C238.0223,95.2415 236.1183,96.3415 234.4883,97.0545 C233.5223,99.4145 233.2913,101.9145 232.0013,102.7235 C229.4243,104.3385 229.0623,100.3895 226.6243,99.4095 C219.9943,103.1055 213.1703,106.8605 206.4093,110.7245 C205.1983,111.4165 203.6433,112.4085 203.3523,113.5445 C203.0903,114.5705 204.4533,115.9465 204.8793,117.2415 C205.1323,118.0125 205.2683,119.4575 204.9133,119.6645 C204.1263,120.1215 202.7453,120.4155 202.0583,120.0105 C200.5883,119.1445 199.4043,117.7915 198.0423,116.5845 C196.9083,117.5065 195.8893,118.2645 194.9513,119.1125 C193.6043,120.3315 192.4183,121.7505 190.9793,122.8405 C189.5363,123.9355 187.4313,126.1735 187.8043,127.0455 C188.1873,127.9385 189.3043,128.9695 189.6243,129.9715 C189.6313,129.9945 189.6363,130.0275 189.6403,130.0695 C189.7363,131.2085 188.5163,132.0165 187.4663,131.5655 C186.4753,131.1385 185.4283,130.6055 184.7823,130.6055 C184.3963,131.0475 184.2543,131.1715 184.1603,131.3235 C174.4333,147.1305 168.8273,164.5685 164.1013,182.3365 C163.7843,183.5275 164.3693,185.0965 164.8833,186.3475 C166.8493,191.1375 165.6273,194.4935 160.7683,196.8295 C160.4953,198.6675 160.2083,200.5975 159.9663,202.2275 C161.5933,204.2435 165.7453,203.2875 164.9063,206.7515 C164.1693,209.7965 160.9063,208.1655 158.3613,209.0415 C156.4743,219.8465 154.5733,230.9065 152.6033,241.9545 C151.2223,249.6975 150.6643,257.4695 151.8623,265.2715 C153.4023,275.2995 157.4623,283.9015 165.8783,289.9145 C169.3723,287.8525 173.4393,288.2845 176.1833,285.3625 C176.6733,284.8405 178.4673,285.5425 179.4913,285.6595 C181.4083,292.1635 179.3473,292.4015 173.0073,293.4795 C176.8653,296.4555 192.5693,297.8185 197.5773,295.8095 C196.4423,294.9385 195.0003,294.3125 194.4073,293.2245 C194.1423,292.7385 194.2073,292.0745 194.3333,291.3765 C194.4963,290.4755 195.3363,289.8475 196.2433,289.9775 C196.8123,290.0585 197.3713,290.1655 197.8913,290.3705 C198.7443,290.7065 199.5543,292.0845 200.1623,291.9555 C203.7463,291.1965 205.1163,293.1575 205.6163,296.3365 C214.0993,296.5925 224.5653,294.9925 232.5963,293.5535 C233.4833,293.3945 231.5833,290.0075 234.1153,288.4885 C236.8763,287.5485 235.6043,288.9585 239.1003,290.9365 C239.9373,291.4095 241.0743,291.7145 241.9343,291.5275 C246.8723,290.4505 252.9613,288.9315 258.1133,287.6655 C257.9503,284.3655 258.8933,281.5295 262.1293,281.3775 C264.0523,281.2875 266.0553,282.8975 268.0233,283.7435 C267.9683,284.0475 267.9133,284.3525 267.8593,284.6565 C269.6653,283.9865 271.4713,283.3175 273.2763,282.6475 C272.6243,279.2535 272.5253,276.4405 276.0793,275.0035 C276.5853,274.7985 277.0793,273.8805 277.0993,273.2765 C277.2003,270.1535 277.1463,267.0255 277.1463,263.8035 C274.9373,264.8655 273.2693,266.3525 271.8553,266.1415 C270.5913,265.9525 269.6073,263.8905 268.3603,262.4995 C260.7753,262.8585 252.9803,263.2505 245.1823,263.5835 C243.7693,263.6445 240.5493,263.2975 239.2213,263.5345 C237.8553,263.7795 238.6613,265.7885 237.4243,267.0425 C235.4183,269.0745 233.4893,267.4545 233.0923,262.9845 C232.7783,262.2145 231.9793,262.1935 231.3693,261.9085 C227.5083,260.1005 226.8003,256.5015 226.0153,252.9365 C225.0433,248.5195 224.1393,244.0875 223.1463,239.3755 C221.6753,239.0815 220.2813,238.5545 218.8973,238.5765 C215.4503,238.6315 212.0103,239.0215 208.5623,239.1105 C206.5203,239.1635 203.4733,239.9535 203.2733,237.0185 C203.0743,234.1075 206.1683,235.0485 207.9203,234.8785 C212.5573,234.4255 217.2183,234.2175 221.8613,233.9135 C221.4053,227.0305 221.3243,227.0075 215.0843,226.7495 C214.3643,226.7195 213.6553,226.4315 212.9523,226.1265 C212.2153,225.8065 211.7333,225.0815 211.7173,224.2785 C211.6823,222.4925 211.6113,220.9025 211.8053,219.3445 C211.9213,218.4155 212.6733,217.0135 213.3853,216.8395 C214.4263,216.5855 216.0063,216.8935 216.7823,217.5955 C217.8863,218.5945 218.6403,221.1085 219.4453,222.4385 C219.8843,222.2855 220.0983,222.6735 220.5363,222.5225 C219.4703,214.7645 217.9003,205.7445 216.8683,198.2435 C215.2073,196.4495 211.3713,198.0125 211.7193,194.8835 C211.9063,193.2035 214.0913,191.7445 215.6623,189.8365 C215.4053,187.5485 215.4873,186.3505 214.6183,181.8375 C213.3533,171.2725 213.5023,169.9875 212.5573,164.3455 C211.8953,157.9295 211.3573,157.5085 211.0663,152.9845 C210.8063,148.9525 209.4503,144.9515 209.8633,140.7875 C210.0053,139.3425 211.0083,138.1225 212.3883,137.6715 L215.8523,136.5375 C215.8803,131.0945 216.1343,129.4505 218.2003,129.3275 C219.4143,129.2555 220.4963,130.2525 220.4503,131.4675 C220.4413,131.7155 220.4543,131.9585 220.5063,132.1935 C220.8303,133.6565 221.0903,135.9085 222.0113,136.2885 C223.4683,136.8875 227.0903,136.2825 228.8303,136.0235 C229.2133,135.9655 227.9933,133.5165 228.4103,133.3955 C229.6423,133.0385 231.4163,133.7275 231.8863,134.2405 C234.0883,136.6485 236.7983,136.0315 239.4233,136.0385 C243.1183,136.0475 246.8193,135.9945 250.5023,135.6905 C257.0253,135.1515 258.7883,135.6665 258.0453,132.7765 C257.6373,131.1915 260.7613,130.6645 261.5323,132.2945 C262.9513,135.2915 265.2313,134.6115 267.4793,134.4485 C270.1953,134.2515 277.2013,133.4225 279.9143,133.3955 C283.6523,133.3585 281.9463,132.4875 284.2343,129.0945 C284.3083,128.9855 285.1423,128.8745 285.9523,128.7915 C286.7243,128.7135 287.4393,129.1345 287.8123,129.8145 C288.9593,131.8995 290.6003,132.5605 290.6003,132.5605 C293.4773,132.2045 298.7723,131.6525 301.2123,131.4005 C303.2033,129.0895 304.8113,126.9645 306.7243,125.1645 C307.2683,124.6525 308.9663,124.7095 309.6473,125.1925 C310.3063,125.6595 310.6633,127.0475 310.5603,127.9645 C310.4453,128.9895 309.6633,129.9405 309.0313,131.2055 C310.6833,131.1185 311.7853,131.1635 312.8503,130.9855 C316.6283,130.3555 320.6753,131.2965 323.9773,128.0295 C325.5083,126.5155 328.0533,127.3025 330.1013,128.5225 C331.3863,129.2885 332.9403,130.0815 334.3613,130.0605 C341.2623,129.9625 348.1643,129.6825 355.0523,129.2485 C356.4863,129.1585 357.8643,128.1525 359.2633,127.5555 C360.8703,126.8705 362.5043,125.5955 364.0623,125.6855 C365.0493,125.7425 365.9193,127.8235 366.7533,128.8855 L377.5383,128.8855 C377.7583,126.7995 378.1483,124.9025 378.1043,123.0155 C378.0553,120.8805 379.0803,119.8245 380.9663,119.9685 C382.9723,120.1225 383.4603,121.3975 383.0673,123.4765 C382.7353,125.2305 383.2063,127.1375 383.3313,129.1295 C388.6073,128.6915 393.3223,130.3005 397.8483,127.7715 C398.7743,127.2535 400.5463,128.0395 401.8473,128.4685 C402.9333,128.8275 403.8993,129.5505 404.9203,130.1095 C405.2493,129.7425 405.2083,129.7875 405.5373,129.4215 C403.8843,126.9365 402.2313,124.4525 400.8263,122.3405 C398.4013,122.0495 396.1173,122.4025 394.6583,121.4675 C391.8283,119.6545 395.4013,117.9265 395.5443,116.2695 C392.6923,112.9755 390.3853,109.4815 385.3903,110.2755 C384.4103,110.4315 383.2213,109.2695 381.8583,108.5775 C382.5153,107.0755 383.0493,105.8555 383.7893,104.1625 C378.6983,100.4995 373.6163,96.8425 367.4233,92.3875 C367.4233,95.3225 367.6133,96.8875 367.3603,98.3775 C367.1743,99.4755 366.6393,100.7935 365.8103,101.3925 C365.3573,101.7195 363.5343,101.0275 363.0983,100.3205 C362.2043,98.8735 361.4893,97.1365 361.3423,95.4625 C361.2123,93.9865 361.9563,92.4355 362.3503,90.7625 C360.9263,90.2495 359.7713,89.7315 358.5623,89.4225 C356.6383,88.9325 354.6783,88.5835 353.6123,88.3595 C350.8843,89.7785 348.9713,91.3995 346.8593,91.7245 C343.7693,92.1995 342.8483,89.4865 342.5753,86.9485 C330.2273,86.1555 318.3023,85.3895 306.2953,84.6175 Z M381.2991,288.695 C382.0831,288.762 382.7871,289.765 383.9741,290.694 C382.9221,291.829 382.2191,293.216 381.4021,293.288 C380.6111,293.357 379.1861,292.21 378.9551,291.351 C378.5321,289.775 379.6231,288.552 381.2991,288.695 Z M220.4517,283.4107 C221.7007,285.2407 222.9057,287.1017 224.4527,289.4347 C221.8827,292.4107 221.5147,292.4997 219.2177,290.6157 C216.2377,288.1717 214.9837,284.7067 216.3967,282.8207 C217.3627,281.5297 219.3507,281.7987 220.4517,283.4107 Z M300.5088,279.7712 C301.5698,280.1212 302.1848,280.1992 302.2018,280.3482 C302.5948,283.7132 306.9258,285.5342 305.8188,289.3972 C305.5658,290.2812 304.7528,291.2252 303.9418,291.6352 C303.5408,291.8382 302.2038,291.0632 301.9008,290.4352 C300.7398,288.0412 299.5808,285.5862 298.9518,283.0232 C298.7238,282.0932 299.9818,280.7972 300.5088,279.7712 Z M315.6289,280.1891 C316.7759,281.6821 317.9499,282.5461 317.8369,283.1821 C317.4209,285.5231 318.3869,286.8191 320.1879,288.0751 C320.7669,288.4781 321.1009,290.2411 320.7129,290.7611 C320.2619,291.3661 318.7959,291.6651 317.9459,291.4391 C315.1439,290.6921 312.5409,287.0971 313.0559,284.4841 C313.3169,283.1561 314.4969,282.0091 315.6289,280.1891 Z M328.7197,282.8547 C329.6047,284.5627 330.4957,285.6567 330.6477,286.8457 C330.7227,287.4277 329.5037,288.6347 328.7317,288.7707 C327.1377,289.0507 325.5947,287.1417 326.1097,285.5517 C326.3727,284.7357 327.4007,284.1677 328.7197,282.8547 Z M206.448,285.0049 C206.296,285.5599 205.842,286.0329 205.231,286.6779 C204.679,287.2609 203.737,287.2179 203.239,286.5869 C202.576,285.7469 202.027,285.0509 201.809,284.2619 C201.663,283.7369 202.766,282.4049 203.517,282.1899 C205.023,281.7609 206.846,283.5529 206.448,285.0049 Z M385.0587,279.5214 C385.5347,280.2534 385.7207,281.5164 385.4207,282.3334 C384.9357,283.6524 383.9577,284.7894 383.0987,286.1444 C380.6687,286.1444 378.1817,286.2704 375.7147,286.1054 C373.6967,285.9704 372.4727,283.7474 373.1257,281.6034 C373.7947,279.4094 375.4417,279.6264 377.0867,280.2654 C377.8877,280.5774 378.5957,281.1294 379.3867,281.5954 C380.5997,280.7434 381.5567,279.8494 382.6887,279.3624 C383.3717,279.0674 384.7867,279.1034 385.0587,279.5214 Z M242.952,279.4977 C244.585,280.3347 245.055,281.5597 244.291,283.9137 C243.939,284.9957 242.719,285.5307 241.7,285.0257 C240.022,284.1947 238.653,283.3687 239.458,280.8837 C239.969,279.3097 241.299,278.6517 242.952,279.4977 Z M344.8028,276.4215 C346.9788,276.7645 349.1608,277.3485 351.1868,278.2005 C351.9248,278.5115 352.6738,279.8925 352.6058,280.7175 C352.5388,281.5205 351.5588,282.4535 350.7448,282.9265 C350.0388,283.3395 349.0048,283.1885 346.8628,283.4255 C345.8458,282.7745 343.8688,281.7445 342.2278,280.3255 C341.6758,279.8475 341.5618,278.1015 342.0048,277.4445 C342.4678,276.7575 343.9048,276.2795 344.8028,276.4215 Z M226.6387,275.5337 C227.1527,275.5777 227.6447,275.8837 228.2447,276.3527 C229.4497,277.2927 229.3077,279.1587 227.9627,279.8837 C226.9837,280.4127 226.1897,280.8007 225.3507,281.0187 C224.8747,281.1417 223.4097,279.7477 223.4427,279.1017 C223.5367,277.2377 224.3977,275.3417 226.6387,275.5337 Z M359.6327,275.5703 C360.6027,275.6413 361.5037,276.6473 363.3267,277.8273 C361.3787,278.7913 360.2477,279.8323 359.4287,279.6283 C358.5267,279.4033 357.9097,278.0333 357.1687,277.1613 C357.9937,276.5883 358.8547,275.5123 359.6327,275.5703 Z M256.0346,268.2 C257.1596,268.486 258.6456,268.939 259.1006,269.794 C259.4966,270.538 258.9776,272.162 258.3346,272.983 C257.1306,274.521 255.5446,275.759 253.4546,277.755 C252.5986,277.654 250.8886,277.452 248.9506,277.224 C249.0326,275.963 248.7656,274.852 249.2026,274.305 C250.7016,272.429 252.4066,270.709 254.1256,269.024 C254.6026,268.556 255.4916,268.062 256.0346,268.2 Z M404.8101,269.1328 C405.9791,269.6868 406.6471,271.2978 407.9981,273.0358 C406.4591,274.3278 405.3841,275.2298 404.3091,276.1318 C403.5151,275.0598 402.2621,274.0788 402.0281,272.8958 C401.6221,270.8428 403.4911,268.5068 404.8101,269.1328 Z M390.2754,269.9723 C391.6584,271.3313 392.8324,272.1183 393.3564,273.2133 C393.5244,273.5633 392.0694,275.2503 391.1824,275.4233 C389.4994,275.7513 387.7024,275.0603 387.7344,272.9973 C387.7484,272.1543 389.0784,271.3333 390.2754,269.9723 Z M237.1191,269.9211 C237.5081,269.9631 237.8781,270.1761 238.3311,270.5011 C239.3311,271.2201 239.3611,272.6941 238.3891,273.4501 C237.6001,274.0641 236.9261,274.5371 236.1821,274.7161 C235.4451,274.8931 233.8391,273.8421 233.5621,273.0261 C233.0641,271.5591 235.1981,269.7121 237.1191,269.9211 Z M183.6141,267.4604 C184.1761,268.8884 184.6141,270.3654 185.1201,271.9904 C185.3901,272.8544 185.0241,273.8124 184.2191,274.2254 C182.6581,275.0274 181.4961,274.0394 180.5001,272.6514 C179.1061,270.7084 179.1591,267.8524 180.5901,266.7514 C181.7581,265.8534 183.0091,265.9224 183.6141,267.4604 Z M160.2593,259.2766 C160.9203,259.4786 161.6893,260.4406 161.7913,261.1576 C162.0843,263.2246 162.0653,265.3356 162.1693,267.4286 C162.4633,267.5926 162.7573,267.7556 163.0513,267.9196 C162.0553,268.9526 161.1073,270.7496 160.0503,270.8156 C158.8463,270.8906 156.4673,269.4056 156.479255,268.6276 C156.5243,265.7176 157.2483,262.7966 157.9613,259.9416 C158.0673,259.5196 159.5873,259.0736 160.2593,259.2766 Z M355.6813,256.8645 C347.7403,257.4565 340.7253,257.9795 333.5173,258.5165 C332.8553,261.4285 331.4883,263.9625 328.4763,264.3215 C323.2913,264.9405 318.0553,265.2455 312.8333,265.3845 C311.5843,265.4185 310.5313,264.9895 310.1923,263.9325 C309.7733,262.6245 310.8923,261.3145 312.2663,261.3225 C314.0623,261.3345 315.9213,261.3495 317.7783,261.3015 C320.2313,261.2375 328.6013,262.3985 329.1353,258.9225 L325.1443,259.2615 C310.9783,260.2525 296.8123,261.2435 282.4853,262.2455 L282.4853,267.3695 C291.1773,267.9905 299.4823,268.5895 307.7873,269.1765 C313.0273,269.5465 318.2633,270.0725 323.5093,270.2205 C334.3023,270.5265 343.7343,266.6825 352.2083,260.2375 C353.2683,259.4305 354.1403,258.3755 355.6813,256.8645 Z M371.0217,259.2914 C373.7447,259.7244 373.7867,262.1604 374.4307,264.4074 C372.0797,266.3404 368.7057,265.1294 367.6867,268.2884 C367.5727,268.6444 365.8157,268.9404 365.2797,268.5804 C364.5057,268.0594 363.7667,266.9484 363.6877,266.0304 C363.4377,263.1634 368.1257,258.8304 371.0217,259.2914 Z M403.4161,258.9542 C404.3741,260.7432 404.6221,263.0082 404.7491,265.0922 C404.7891,265.7412 403.4341,266.4762 402.7181,267.1722 C402.0441,266.4772 401.0781,265.8952 400.7571,265.0642 C400.0031,263.1102 399.5571,261.0372 398.8711,258.6042 C400.6521,256.6002 402.5421,257.3222 403.4161,258.9542 Z M389.6159,260.2176 C390.1509,261.1816 391.3169,261.7936 392.1919,262.5706 C392.8259,263.1346 393.4509,263.7086 394.4419,264.6056 C393.4419,265.4376 392.5309,266.6896 392.0079,266.5446 C389.6469,265.8896 387.1709,265.1726 385.1709,263.8306 C383.3689,262.6206 383.6529,259.8156 385.3369,258.6976 C387.3329,257.3736 388.5569,258.3116 389.6159,260.2176 Z M208.9547,258.1692 C209.9927,260.4232 209.0707,262.3892 207.5637,264.0202 C206.3537,265.3312 204.8757,265.7922 203.2647,263.7902 C204.0557,261.4332 204.7707,259.3002 205.5027,257.1162 C207.0097,256.2062 208.2377,256.6122 208.9547,258.1692 Z M407.3153,132.9505 C406.8143,141.2815 406.3603,148.8345 405.8863,156.7325 C410.9943,158.6245 411.5213,160.3695 407.7503,163.3125 C405.9043,164.7535 405.3033,166.2075 405.2423,168.2795 C405.1783,170.4585 404.9513,172.6325 404.9153,174.8115 C404.8803,176.9065 404.5233,178.8155 406.9873,180.4415 C409.1543,181.8705 409.0023,185.9695 406.9393,187.7285 C401.6423,192.2445 403.2923,198.3685 404.0543,203.4405 C404.9393,209.3255 408.1973,214.8585 410.4493,220.5335 C413.9323,229.3045 417.4753,238.0525 420.9143,246.8405 C422.6833,251.3605 424.2813,255.9465 425.9883,260.5905 C430.7713,257.4555 430.7713,257.4555 434.7583,259.7735 C434.9563,256.8265 435.0713,254.1815 435.3473,251.5535 C435.4333,250.7415 435.8203,249.4315 436.3103,249.3085 C437.1923,249.0865 438.4573,249.3115 439.1983,249.8505 C440.4353,250.7525 441.3863,252.0475 442.6913,253.4225 C450.1793,247.8485 457.2683,242.5725 463.6303,237.8375 C463.6303,235.3115 462.9563,233.0765 463.7623,232.1985 C465.7653,230.0135 465.5493,225.6025 469.7293,225.4955 C472.2833,228.5085 468.6123,230.8225 468.9803,234.0875 C472.7733,231.2495 476.1653,228.8325 479.3943,226.2145 C480.2583,225.5135 480.8993,224.2665 481.1713,223.1545 C482.1363,219.2205 484.3053,217.2555 488.1533,217.1705 C489.1863,217.1475 490.5103,217.5485 491.2053,217.0555 C495.2923,214.1605 499.2323,211.0575 503.4073,207.8835 C494.1643,191.2705 485.2753,175.2945 476.1963,158.9765 C470.6563,161.0995 465.8013,163.0485 460.8803,164.8115 C458.1163,165.8005 455.5113,166.8135 454.9053,169.9185 C452.8503,169.7465 450.9413,169.0295 449.4923,169.5625 C443.5753,171.7415 437.7983,174.3015 431.6083,176.8715 C432.8793,182.2055 434.0943,187.1135 435.1973,192.0475 C435.5423,193.5925 436.1753,195.6785 434.0873,196.2665 C432.0733,196.8335 431.4353,194.9795 431.0463,193.3145 C430.7153,191.9005 430.3703,190.4885 430.0023,189.0835 C427.7973,180.6545 425.6373,172.2125 423.3373,163.8095 C422.7293,161.5895 421.6823,159.4895 420.7273,157.0535 C416.8463,158.3305 414.0443,156.6975 411.5083,154.5605 C409.7393,153.0695 409.5613,150.1785 411.0373,148.7015 C412.6983,147.0395 414.2583,147.5475 415.6983,149.1545 C415.8973,149.3765 416.4263,149.3025 417.1843,149.4295 C414.7193,143.3735 412.2903,137.8595 407.3153,132.9505 Z M295.8463,136.3385 C271.2083,138.0865 246.6173,140.4715 221.9063,141.0505 C219.4103,141.1095 216.9183,141.3075 214.2113,141.4525 C214.3323,143.2845 214.3423,144.5395 214.5083,145.7735 C215.3803,152.2485 216.3223,158.7135 217.1853,165.1895 C219.7793,184.6295 222.1873,204.0965 224.9953,223.5055 C226.3723,233.0225 228.3783,242.4535 230.2823,251.8865 C231.4673,257.7575 231.6073,257.9155 237.7743,258.3395 C243.7403,258.7485 249.7603,259.1235 255.7173,258.8005 C277.8343,257.6025 299.9423,256.2065 322.0403,254.6945 C335.8003,253.7535 349.5723,252.7925 363.2713,251.2375 C373.7083,250.0525 384.0363,247.9215 394.1553,246.2535 C397.0463,238.2435 403.6573,141.5265 401.9103,134.0945 C401.2853,133.9935 400.5903,133.8005 399.8903,133.7795 C365.1633,132.7405 330.4703,133.8805 295.8463,136.3385 Z M429.9381,247.1386 C430.7201,247.9206 432.1801,248.7526 432.1281,249.4746 C432.0451,250.6156 430.9491,251.6836 429.8941,253.4216 C428.7941,251.8566 427.6631,250.9136 427.8271,250.3406 C428.1631,249.1686 429.1931,248.1936 429.9381,247.1386 Z M215.8279,244.4476 C216.4869,246.4136 216.8329,248.4836 217.3379,250.6076 C215.2549,252.2286 213.5829,251.6606 212.3329,249.7266 C211.2209,248.0066 210.6169,246.0906 211.9599,244.1586 C213.0439,242.5986 215.2459,242.7116 215.8279,244.4476 Z M177.6434,243.9586 C177.1294,245.9906 176.4964,248.0286 175.5934,249.9096 C175.2124,250.7026 174.0034,251.5576 173.1804,251.547687 C172.3664,251.5376 170.8094,250.3546 170.8814,249.8896 C171.3384,246.9786 172.0924,244.1046 172.9224,241.2686 C173.0694,240.7656 174.0304,240.5016 174.3194,240.3166 C176.3274,240.1476 178.0894,242.2006 177.6434,243.9586 Z M190.4369,241.6484 C191.6279,241.6604 193.2909,242.5794 193.8779,243.6014 C194.7289,245.0804 194.7989,247.0094 195.3159,249.2394 C195.0819,249.5934 194.7489,250.6934 194.1039,250.9254 C193.2249,251.2414 191.8749,251.2454 191.1439,250.7584 C189.8399,249.8884 188.6089,248.6964 187.8019,247.3634 C187.1409,246.2724 186.5539,244.5044 187.0079,243.5444 C187.4809,242.5464 189.2459,241.6374 190.4369,241.6484 Z M431.1389,237.3525 C431.0249,238.2765 429.9489,239.6095 429.0849,239.8115 C426.7679,240.3545 423.8789,238.2285 424.0619,236.1895 C424.1689,235.0015 425.1399,233.8905 425.5249,233.1335 C427.8909,232.9075 431.3379,235.7195 431.1389,237.3525 Z M161.0583,236.5072 C160.4703,237.4472 159.7123,238.2812 158.7363,239.3332 C158.0503,240.0712 156.8503,239.9732 156.2923,239.1352 C155.6783,238.2132 155.2293,237.5402 155.4053,237.2542 C156.1503,236.0512 157.4063,234.9562 158.7083,234.4232 C159.1633,234.2362 161.1673,236.3332 161.0583,236.5072 Z M442.6464,229.0171 C444.6084,230.3071 446.1404,232.2511 448.1104,234.1701 C446.9074,235.2491 446.2434,236.3261 445.4054,236.4831 C444.1344,236.7231 442.5944,236.6461 441.4404,236.1131 C440.0714,235.4821 438.9854,234.2331 437.7874,233.2391 C436.0754,231.8181 436.1524,229.2231 438.2054,228.5271 C439.5144,228.0831 441.5114,228.2711 442.6464,229.0171 Z M193.4991,229.3919 C195.4381,229.6179 196.3611,230.7969 195.8521,232.8109 C195.7271,233.3049 195.5961,233.7969 195.4561,234.3039 C195.0091,235.9279 193.1431,236.7339 191.6861,235.8899 C189.9081,234.8619 189.4651,233.6589 189.9101,231.9499 C190.3881,230.1159 191.6541,229.1769 193.4991,229.3919 Z M163.555,225.7935 C164.716,226.4255 165.834,227.1375 167.085,227.9635 C168.448,228.8625 168.424,230.9665 166.956,231.6825 C166.788,231.7645 166.623,231.8185 166.454,231.8405 C164.578,232.0765 161.815,229.7445 161.936,228.0055 C161.991,227.1965 163.424,225.7215 163.555,225.7935 Z M459.2754,223.1955 C458.3424,226.2535 457.8664,228.0985 457.1914,229.8675 C456.9704,230.4445 456.1964,231.2395 455.7394,231.1995 C454.9794,231.1345 454.0484,230.6375 453.5984,230.0235 C453.1054,229.3515 453.0314,228.3475 452.8524,227.4735 C452.4804,225.6595 452.1774,223.5295 454.2214,222.7935 C455.5664,222.3085 457.3334,222.9955 459.2754,223.1955 Z M426.9258,223.3874 C428.1598,224.9794 429.1548,226.2634 430.1498,227.5484 C429.3578,228.0854 428.5608,229.0804 427.7758,229.0714 C425.8478,229.0504 424.1398,226.9774 424.6738,225.4994 C424.9128,224.8344 425.8008,224.4044 426.9258,223.3874 Z M178.5711,222.1422 C178.9991,222.9012 179.4271,223.6722 179.7701,224.4782 C180.3701,225.8852 180.5771,227.6632 178.7271,227.9182 C177.8281,228.0422 176.3241,226.6672 175.7471,225.6122 C174.9271,224.1142 174.7251,222.5562 176.3501,221.5592 C177.1181,221.0882 178.1291,221.3572 178.5711,222.1422 Z M321.4516,173.224391 C327.9436,173.1856 332.4346,178.5976 330.0006,184.5506 C327.0106,191.8586 327.0386,197.9396 331.2386,204.9386 C334.8786,211.0056 332.8406,218.3226 328.3506,222.4956 C322.9056,227.5576 314.4096,228.8956 308.0506,225.6936 C300.2646,221.7726 297.5626,212.9116 302.0536,205.4486 C302.6826,204.4036 304.1916,203.7466 305.4296,203.2466 C306.7086,202.7306 308.1536,202.6246 310.4486,202.1476 C309.1746,200.2606 308.7036,198.9236 307.7596,198.2836 C304.8036,196.2806 304.6416,193.5746 305.4346,190.5816 C306.2686,187.4346 306.9096,184.1696 308.2496,181.2366 C310.7706,175.7206 315.5776,173.2606 321.4516,173.224391 Z M198.7637,218.4567 C199.5977,218.7847 199.9657,220.2947 200.6197,221.3947 C199.7317,223.0617 199.0837,224.4657 198.2187,225.7207 C198.0717,225.9347 196.4817,225.6117 196.4307,225.3587 C196.1277,223.8717 195.8477,222.3037 196.0197,220.8167 C196.1827,219.4127 196.9267,217.7357 198.7637,218.4567 Z M318.5206,177.9326 C314.1196,179.1516 312.1896,182.3666 310.8626,186.3606 C309.6206,190.0976 308.9436,193.2446 312.1726,196.7796 C316.1546,201.1386 314.5266,205.3766 308.9856,207.0866 C308.6406,207.1926 308.2796,207.2886 307.9206,207.3096 C305.9126,207.4276 305.1756,208.7756 304.7736,210.4866 C302.7736,219.0126 308.8866,222.7686 315.6206,223.0876 C325.8266,222.9766 331.1186,214.7426 326.9566,205.4386 C326.6616,204.7766 326.3686,204.0886 325.9376,203.5166 C322.0326,198.3406 321.5566,192.9376 324.7316,187.2366 C325.0796,186.6126 325.2376,185.8816 325.4786,185.1976 C326.2156,183.1066 327.0006,180.9186 325.1176,179.0876 C323.2526,177.2776 320.9966,177.2466 318.5206,177.9326 Z M444.1851,217.5177 C443.7411,218.8287 442.6911,219.9357 441.3701,221.8327 C440.1901,220.1827 438.8511,219.0477 439.0581,218.4397 C439.4461,217.3007 440.5861,216.1047 441.7031,215.6617 C442.2431,215.4467 444.3011,217.1737 444.1851,217.5177 Z M422.4495,213.7625 C424.0545,213.8425 425.6995,214.1765 425.9165,216.2975 C426.0525,218.1665 424.5595,219.8825 422.5785,219.4835 C421.2735,219.2205 419.6845,218.1395 419.1225,216.9855 C418.4305,215.5655 420.4875,213.6645 422.4495,213.7625 Z M466.804,215.6107 C467.588,215.5577 468.443,216.5347 469.751,217.3757 C468.584,218.3207 467.804,219.4367 467.113,219.3847 C466.329,219.3247 465.625,218.2197 464.886,217.5687 C465.522,216.8717 466.123,215.6567 466.804,215.6107 Z M477.7017,210.8034 C478.9207,212.4454 480.1277,213.3644 480.0687,214.1914 C480.0107,214.9984 478.7597,216.0314 477.8287,216.3284 C477.3857,216.4704 475.9287,215.1564 475.9027,214.4654 C475.8667,213.5354 476.7707,212.5704 477.7017,210.8034 Z M173.5186,210.6148 C173.6936,210.6598 173.7226,211.2598 173.9536,212.0768 C173.3446,212.5288 172.6516,213.1838 171.8376,213.6098 C170.6756,214.2188 169.4456,214.7158 168.2056,215.1518 C167.4406,215.4208 166.2756,215.8898 165.8716,215.5578 C165.1536,214.9698 164.2546,213.4468 164.5306,213.0128 C165.4196,211.6148 166.6526,209.8188 168.0456,209.5148 C169.7166,209.1498 171.6946,210.1358 173.5186,210.6148 Z M410.6963,210.1466 C411.5113,211.1836 412.6013,212.1236 413.0153,213.3006 C413.0633,213.4346 413.0263,213.5966 412.9263,213.7926 C412.1733,215.2686 410.0193,215.1426 409.2663,213.6666 C409.0293,213.2026 408.8663,212.7726 408.8163,212.3306 C408.7423,211.6826 410.0253,210.8796 410.6963,210.1466 Z M470.2334,205.5978 C471.2514,206.6358 472.1604,208.2758 472.1834,209.6628 C472.2094,211.2238 470.5094,211.5578 469.3474,210.6988 C468.1004,209.7778 467.1764,208.4208 466.0274,207.1618 C467.3074,204.6868 468.8074,204.1428 470.2334,205.5978 Z M206.3037,205.0602 C203.1337,213.0412 197.3997,210.7062 191.9627,209.7572 C191.5957,209.6932 191.2667,209.4812 191.0737,209.1642 C190.2237,207.7712 190.7967,206.3122 192.3377,205.9162 C196.4137,204.8692 200.6267,204.3342 204.8047,203.7362 C205.2317,203.6752 205.7987,204.5942 206.3037,205.0602 Z M488.6597,200.9608 C491.2727,200.9958 493.6827,203.2868 493.5467,205.6068 C493.4127,207.8728 491.5057,209.6688 489.3477,209.5588 C486.2877,209.4028 483.6617,207.2208 483.7127,204.8768 C483.7597,202.7588 486.0737,200.9278 488.6597,200.9608 Z M445.9642,201.4765 C447.5962,204.2075 449.4102,205.9125 452.8762,204.6095 C453.1922,204.4895 454.1032,205.9525 454.7382,206.6805 C453.8902,207.3445 453.0422,208.0095 452.1932,208.6745 L451.7412,207.6545 C450.5822,207.7865 449.4262,207.9665 448.2622,208.0425 C445.5382,208.2205 442.7612,206.2295 442.3412,203.6135 C442.2222,202.8775 442.6222,201.5495 443.1352,201.3355 C443.9572,200.9925 445.6752,200.9935 445.9642,201.4765 Z M435.405,204.447 C434.671,205.742 433.552,206.819 432.168,208.443 C431.254,206.976 430.131,205.707 430.342,205.42 C431.206,204.247 432.433,203.305 433.668,202.496 C433.791,202.415 435.553,204.187 435.405,204.447 Z M415.1345,194.8524 C417.4925,195.5164 419.3355,197.1694 419.5715,199.8074 L419.601851,200.133138 C419.789713,202.102586 420.027553,204.305716 417.4185,204.7614 C414.7845,201.8654 412.7155,199.5904 410.5195,197.1744 C411.2685,195.0614 413.0775,194.2734 415.1345,194.8524 Z M179.0326,198.3768 C178.8736,200.5958 176.3906,203.2368 174.5416,202.8188 C173.7636,202.6428 172.9026,201.5678 172.6506,200.7288 C172.4476,200.0578 173.1076,199.1258 173.3926,198.2878 C172.3146,196.0718 172.7596,194.3788 175.3666,193.9888 C177.3116,193.6968 179.1926,196.1328 179.0326,198.3768 Z M198.4563,194.9636 C198.9943,195.6166 199.3873,196.1626 199.5353,196.7686 C199.9123,198.3016 197.4843,200.4436 196.0803,199.7726 C195.1383,199.3216 194.2373,197.7076 194.2583,196.6326 C194.2683,196.1106 194.6023,195.5956 195.0923,194.9816 C195.9463,193.9106 197.5843,193.9076 198.4563,194.9636 Z M473.0986,192.2672 C474.5936,192.3642 476.1246,192.4582 477.5366,192.8932 C477.8466,192.9882 478.1036,194.9612 477.7266,195.2742 C476.4406,196.3392 474.8636,197.0562 473.3866,197.8852 C473.2496,197.9622 473.0316,197.8952 472.4556,197.8952 C471.8076,197.6112 470.6846,197.3662 469.8906,196.7182 C468.3506,195.4612 468.9666,193.2252 470.9666,192.5642 C471.6406,192.3422 472.3946,192.2212 473.0986,192.2672 Z M448.0175,187.3918 C450.6735,188.3108 450.9665,190.5508 450.8365,193.5568 C447.0395,192.7938 444.8765,190.7608 445.6315,188.9428 C445.9475,188.1848 447.4385,187.1918 448.0175,187.3918 Z M521.8333,140.7565 C509.2073,149.6045 499.9243,161.5355 487.2673,169.7005 C491.7813,177.7355 496.0063,185.2555 500.0713,192.4885 C512.1583,187.0555 523.6713,181.7055 535.3323,176.6995 C543.1683,173.3365 551.2103,170.4525 559.1663,167.3715 C561.3283,166.5345 563.2663,165.5285 564.1283,163.1255 C564.4943,162.1035 563.5293,161.0935 562.4753,161.3545 C560.6513,161.8065 559.0123,162.2005 557.4123,162.7155 C552.2273,164.3815 547.0863,166.1825 541.9083,167.8715 C541.3263,168.0625 540.7343,168.2795 540.1313,168.4195 C537.9293,168.9315 536.7523,165.9395 538.7033,164.7975 C539.5703,164.2905 540.4243,163.8375 541.3243,163.5105 C546.7813,161.5265 552.2733,159.6015 557.8513,158.0025 C560.4853,157.2475 561.8313,156.0685 561.6393,153.6195 C561.5823,152.8965 561.0763,152.2645 560.3893,152.0335 C557.8873,151.1925 555.4303,152.0285 553.0233,152.7425 C548.3243,154.1355 543.7033,155.7985 538.9733,157.0685 C537.8543,157.3685 535.6353,156.9195 535.3093,156.1935 C534.3933,154.1495 536.2783,153.5195 537.8733,153.0095 C540.3393,152.2215 542.7993,151.4155 545.2473,150.5725 C546.9543,149.9855 548.6823,149.4645 550.4093,148.9385 C552.0213,148.4475 553.1673,147.7365 553.3013,146.0395 C553.3753,145.1005 552.5183,144.3545 551.5913,144.5215 C550.2903,144.7555 549.0403,144.9615 547.9093,145.4445 C537.2553,149.9975 526.6613,154.6915 516.0083,159.2455 L515.9783,159.2585 C514.2293,159.9935 512.3843,158.3845 512.8983,156.5585 C512.9793,156.2685 513.0943,156.0015 513.2613,155.7715 C515.3863,152.8355 517.9213,150.1995 520.1263,147.3175 C521.3653,145.6975 522.7893,143.9705 521.8333,140.7565 Z M488.4257,185.7147 C489.4037,185.9707 489.9287,187.9587 491.0367,189.7897 C489.8197,190.8267 488.9237,192.2157 488.0677,192.1917 C486.1487,192.1367 485.6497,190.4297 485.6787,188.7047 C485.7087,186.8857 486.5587,185.2277 488.4257,185.7147 Z M425.1289,185.9061 C425.8879,186.6971 427.2209,187.4701 427.2449,188.2821 C427.2689,189.0931 425.9829,189.9431 424.8999,191.2101 C423.9669,189.9161 422.8449,188.9821 423.0109,188.4561 C423.3189,187.4801 424.3809,186.7431 425.1289,185.9061 Z M208.7292,184.3303 C209.3042,184.8873 209.8102,185.8463 209.7952,186.6243 C209.7432,189.3453 206.7632,191.1823 203.1162,190.7843 C202.6412,187.6543 205.4192,186.2773 206.8092,184.2063 C207.0042,183.9163 208.3582,183.9723 208.7292,184.3303 Z M454.1485,174.4787 C455.2855,175.8457 456.4535,176.6527 456.7235,177.6917 C457.4535,180.5067 458.0165,183.2867 460.4155,185.3057 C460.7745,185.6077 460.8195,186.9517 460.4925,187.2527 C459.9255,187.7757 458.6195,188.3347 458.2115,188.0457 C456.6335,186.9277 454.8145,185.7247 453.9755,184.0947 C452.9375,182.0787 452.6245,179.6267 452.3475,177.3217 C452.2605,176.6017 453.3075,175.7447 454.1485,174.4787 Z M444.1148,184.7365 C442.2358,184.7365 440.5378,184.9095 438.9148,184.6375 C438.3848,184.5495 437.8108,183.3365 437.7068,182.5765 C437.6368,182.0615 438.2188,181.1995 438.7408,180.9085 C440.6848,179.8275 443.0068,181.3005 444.1148,184.7365 Z M171.9944,175.9493 C172.4874,175.9283 173.2714,176.9963 173.5034,177.7113 C174.0274,179.3273 174.2914,181.0273 174.7134,182.9333 C172.4644,184.4513 170.6574,184.0873 169.8424,182.2403 C169.1894,180.7613 169.2484,178.8383 169.4694,177.1763 C169.5434,176.6273 171.0944,175.9873 171.9944,175.9493 Z M472.9492,175.9963 C476.2072,176.0073 476.9722,177.2263 476.971201,179.1203 C476.9702,181.0323 476.1152,182.2303 474.0902,182.238331 C471.9422,182.2473 469.1082,180.2823 469.7262,179.1183 C470.5192,177.6233 472.2542,176.6283 472.9492,175.9963 Z M187.014,174.8852 C187.86,176.9072 187.535,178.7832 185.756,180.1482 C184.564,181.0642 182.948,180.1552 182.766,178.4212 C182.604,176.8782 182.732,175.3042 182.732,173.8102 C184.799,172.2062 186.153,172.8282 187.014,174.8852 Z M196.3122,171.271998 C198.6682,171.27 199.2312,172.907 199.3282,175.528 C198.3592,176.718 197.6072,178.487 196.3662,178.954 C194.7902,179.547 193.2012,177.198 193.2212,174.879 C193.2382,172.786 194.2052,171.275 196.3122,171.271998 Z M466.9585,173.0939 C465.4595,174.4489 464.5155,175.6639 463.2745,176.2229 C462.8565,176.4119 461.6875,174.9389 460.8625,174.2249 C461.8905,173.1939 462.8125,171.9939 464.0155,171.2409 C464.3485,171.0319 465.5145,172.1529 466.9585,173.0939 Z M415.9434,168.5309 C417.2894,170.3069 418.5894,171.3129 418.8564,172.5429 C419.2564,174.3929 417.3324,176.0339 415.4804,175.6819 C413.5964,175.3239 411.8094,174.3109 412.3954,172.1419 C412.7124,170.9689 414.2944,170.1379 415.9434,168.5309 Z M340.5965,156.0698 C340.7505,163.1098 333.7485,170.8878 326.5085,171.7188 C324.2245,171.9808 322.1795,170.1718 322.6435,167.7658 C323.0395,165.7108 323.7525,163.3308 325.1595,161.9368 C328.4445,158.6808 332.0425,155.6518 335.8745,153.0648 C338.7635,151.1158 340.5185,152.4588 340.5965,156.0698 Z M173.8063,162.6946 C174.7393,162.9796 175.5413,163.6966 176.6233,164.6166 C177.3113,165.2016 177.3183,166.2666 176.6343,166.8576 L176.6003,166.8866 C175.4323,167.8966 173.6503,167.7516 172.6973,166.5426 C172.2533,165.9796 171.8453,165.3986 171.5213,164.7736 C171.3813,164.5046 173.2683,162.5296 173.8063,162.6946 Z M335.5425,158.4538 C331.8765,160.6608 329.5095,162.4918 327.7675,166.3898 C331.9145,164.9398 334.2265,163.0518 335.5425,158.4538 Z M188.2241,156.4385 C188.6451,156.5545 189.0141,156.8615 189.4341,157.2785 C190.2661,158.1055 190.2561,159.4595 189.4161,160.2775 C188.7221,160.9535 188.0791,161.5445 187.3651,162.0325 C187.1921,162.1515 185.5831,160.9485 185.4651,160.2235 C185.1201,158.0905 186.7061,156.0215 188.2241,156.4385 Z M203.4956,152.403 C204.2596,153.203 204.7906,153.8 204.7796,154.387 C204.7576,155.4 203.5086,156.899 202.4726,157.261 C200.8466,157.828 199.6706,156.475 199.7746,154.891 C199.8176,154.236 200.1396,153.6 200.6026,152.776 C201.1996,151.714 202.6536,151.522 203.4956,152.403 Z M182.5085,147.205075 C184.2935,147.1991 185.4915,148.2741 185.6205,150.2041 C185.7645,152.3481 183.5725,155.4301 182.1815,154.7481 C181.0065,154.1721 180.4805,152.2741 179.6675,150.9611 C179.9075,148.6881 180.3755,147.2121 182.5085,147.205075 Z M189.9533,141.3938 C191.6443,141.7258 192.3043,142.9308 191.4263,145.7028 C191.6833,146.1478 192.5243,147.1728 192.8703,148.3448 C193.1223,149.1978 192.9793,150.4098 192.5093,151.1378 C192.2653,151.5168 190.8113,151.4648 190.1163,151.1448 C187.3393,149.8668 185.6913,146.5308 186.4333,143.9858 C186.9413,142.2448 188.0013,141.0098 189.9533,141.3938 Z M208.0137,129.5788 C208.4507,134.7618 207.2977,137.1618 204.6407,137.0228 C202.6687,136.9198 200.6187,134.4788 200.8327,132.4888 C201.1037,129.9748 203.2997,129.0278 208.0137,129.5788 Z M239.569627,122.7067 C239.5406,123.8387 239.3286,125.0427 238.8476,126.0627 C238.5036,126.7927 237.6276,127.2717 236.9896,127.8627 C236.4916,127.8467 235.9946,127.8297 235.4966,127.8127 C235.3176,126.5817 234.7076,125.1907 235.0856,124.1647 C235.4436,123.1927 236.7646,122.4557 237.8176,121.9237 C238.2036,121.7297 239.5766,122.4357 239.569627,122.7067 Z M264.8335,124.076 C265.4595,124.122 266.0195,125.054 266.9185,125.884 C265.8985,126.657 265.2515,127.147 264.6045,127.638 C264.0265,126.87 263.4495,126.103 262.8725,125.335 C263.5285,124.879 264.2135,124.03 264.8335,124.076 Z M275.4532,120.807 C275.9142,120.846 276.3432,121.254 276.8332,121.805 C277.6412,122.714 277.6442,124.09 276.8472,125.008 L276.8172,125.043 C275.8712,126.132 274.1372,126.112 273.2802,124.955 C273.0442,124.636 272.8662,124.306 272.7942,123.954 C272.4412,122.218 273.4962,120.641 275.4532,120.807 Z M338.8061,118.9435 C340.0751,120.9265 338.9291,122.4925 337.2981,123.4505 C336.0011,124.2135 334.3891,124.4405 332.9161,124.9055 C332.8731,124.7655 332.8311,124.6265 332.7881,124.4865 C332.0731,124.4865 331.3241,124.6245 330.6471,124.4605 C328.6571,123.9785 328.0741,122.1735 329.5751,120.8915 C330.9301,119.7345 332.4581,118.7255 334.0411,117.9035 C335.8061,116.9875 337.6431,117.1265 338.8061,118.9435 Z M251.6939,119.5293 C251.7789,119.5453 251.8619,119.5683 251.9449,119.5983 C253.5649,120.1883 253.7209,122.4703 252.2939,123.4373 C251.5299,123.9543 250.8259,124.3833 250.0689,124.6753 C249.5879,124.8603 248.1029,123.7983 247.8999,123.0763 C247.4499,121.4763 249.8939,119.2003 251.6939,119.5293 Z M300.7104,119.4947 C301.0674,119.8637 300.5914,121.5997 299.9854,122.2357 C298.8634,123.4127 297.7674,123.7337 296.6494,123.1847 C294.8114,122.2827 294.9524,119.6777 296.7684,118.7307 C297.0504,118.5837 297.3404,118.4667 297.6414,118.3947 C298.5684,118.1737 300.0094,118.7687 300.7104,119.4947 Z M319.5889,118.4532 C320.2809,118.4152 321.0389,119.5952 322.3389,120.7282 C320.7309,121.5482 319.6249,122.5892 318.7489,122.4222 C317.9109,122.2632 317.3119,120.8482 316.6079,119.9842 C317.5989,119.4312 318.5709,118.5082 319.5889,118.4532 Z M354.1548,117.206 C355.1118,117.63 356.0868,119.443 355.9418,120.481 C355.8208,121.354 354.0938,122.003 353.7188,122.279 C351.7608,121.889 350.8158,121.853 350.0108,121.5 C349.8788,121.442 349.7488,121.378 349.6208,121.309 C348.3008,120.598 347.8498,118.882 348.7728,117.7 C348.9968,117.414 349.2418,117.196 349.5278,117.108 C350.9578,116.664 352.8268,116.617 354.1548,117.206 Z M210.0539,116.1862 C211.7529,116.9392 212.1839,117.8742 211.7909,120.1002 C211.5479,121.4702 209.8679,122.0572 208.8159,121.1462 C207.6219,120.1132 207.3489,119.1322 207.6619,117.4472 C207.8639,116.3522 209.0349,115.7342 210.0539,116.1862 Z M285.9966,116.5959 C286.8316,117.4709 287.7886,118.0259 287.8316,118.6429 C287.8756,119.2779 287.0266,119.9739 286.5686,120.6429 C285.7906,120.0619 285.0126,119.4799 284.2346,118.8979 C284.7276,118.2539 285.2216,117.6089 285.9966,116.5959 Z M224.8365,113.2638 C226.0885,113.8168 226.7015,115.2658 226.2015,116.5398 C225.2615,118.9368 224.1135,119.6578 222.5275,119.1808 C220.6945,118.6308 218.8195,115.5778 219.7325,114.0688 C221.3105,111.4638 222.9955,112.4498 224.8365,113.2638 Z M266.3678,115.5977 C266.4588,115.7907 266.4898,115.9507 266.4428,116.0827 C266.0438,117.2007 264.9848,118.0817 264.1948,119.0597 C263.5638,118.3497 262.3448,117.5627 262.4248,116.9467 C262.4818,116.5147 262.6458,116.0977 262.8828,115.6457 C263.6198,114.2397 265.6928,114.1617 266.3678,115.5977 Z M318.9463,110.9432 C319.4033,111.6202 319.3843,113.4822 318.9193,113.7712 C316.6113,115.2042 314.0863,116.2892 311.5923,117.5192 C310.5143,116.7212 309.3763,116.2922 309.3053,115.7302 C309.1973,114.8622 309.5423,113.4872 310.1833,113.0612 C312.0753,111.8032 314.1463,110.7362 316.2793,109.9612 C316.9993,109.7002 318.4973,110.2792 318.9463,110.9432 Z M368.7555,110.3937 C369.5885,110.8477 369.9565,112.1537 370.7695,113.4567 C369.4925,114.8127 368.5135,115.8517 367.5345,116.8907 C366.8925,115.8107 365.7755,114.7587 365.7075,113.6437 C365.5735,111.4027 367.3825,109.6437 368.7555,110.3937 Z M242.9147,108.4329 C243.6817,109.4489 244.8987,110.3809 245.1057,111.4999 C245.3827,112.9989 245.0867,115.1069 242.8637,114.8079 C242.2807,114.7299 241.7897,113.9699 241.2007,113.0439 C240.6037,112.1049 240.7067,110.8769 241.4527,110.0509 L242.9147,108.4329 Z M274.2656,108.4188 C274.2906,109.4328 275.1766,110.5128 274.9886,111.4208 C274.7876,112.3898 273.7776,113.1918 273.3316,113.7868 C270.8996,113.5178 268.1976,110.4038 268.4776,108.7398 C268.8126,106.7428 270.1216,105.4998 272.1186,105.4398 C274.0396,105.3818 274.2266,106.8268 274.2656,108.4188 Z M232.9261,106.8684 C233.4191,106.9864 233.8501,107.3644 234.3951,107.8844 C235.1371,108.5924 235.1791,109.7694 234.4891,110.5294 C233.5471,111.5654 232.6921,112.4884 231.7391,113.2974 C231.5851,113.4274 229.8451,112.3664 229.6601,111.6484 C229.2321,109.9824 231.6631,106.5684 232.9261,106.8684 Z M290.4971,106.184975 C291.5921,106.188 293.1081,107.375 293.6241,108.431 C293.9691,109.135 293.1621,111.086 292.3681,111.491 C291.3271,112.022 289.6431,111.927 288.5101,111.449 C288.0771,111.267 287.7151,110.917 287.3291,110.444 C286.3611,109.26 286.7731,107.459 288.1661,106.826 C288.9921,106.452 289.7451,106.182 290.4971,106.184975 Z M330.3374,106.6847 C331.9354,107.5297 331.9704,109.8447 330.4854,110.8747 C330.2364,111.0477 330.0064,111.1427 329.7864,111.1237 C328.9924,111.0547 327.7824,109.6667 327.7424,108.8097 C327.7064,108.0327 328.9264,106.6447 329.7274,106.5387 C329.9184,106.5137 330.1204,106.5697 330.3374,106.6847 Z M345.6109,101.735926 C350.0879,101.754 352.8329,103.663 352.6999,106.666 C352.6109,108.688 350.8569,110.333 348.7809,110.344072 C345.5899,110.361 341.9569,107.349 341.8729,104.615 C341.8149,102.73 343.1169,101.726 345.6109,101.735926 Z M307.0664,103.1584 C308.2364,104.4124 309.1004,105.3384 309.9634,106.2634 C309.1084,107.0004 308.0194,108.4914 307.4474,108.3134 C306.3404,107.9714 305.4174,106.7624 304.6974,105.7204 C304.5824,105.5534 305.9124,104.3874 307.0664,103.1584 Z M377.1245,106.5407 C376.1765,107.3687 375.4205,108.4147 375.0245,108.2917 C374.2535,108.0557 373.6845,107.1637 373.0325,106.5417 C373.6165,105.9887 374.1605,105.0587 374.7945,104.9927 C375.3835,104.9307 376.0685,105.7927 377.1245,106.5407 Z M260.4213,104.0829 C260.5443,104.4079 260.5893,104.6899 260.5263,104.9449 C260.2583,106.0209 258.8863,107.3989 257.8193,107.5709 C256.0083,107.8639 255.4293,106.1379 255.7923,104.6709 C255.8633,104.3849 255.9793,104.1099 256.1363,103.8229 C257.0993,102.0609 259.7113,102.2049 260.4213,104.0829 Z M335.7554,95.6725 C336.0374,96.1115 336.1714,96.6445 336.6494,97.8005 C335.6584,98.2335 334.2524,99.2585 333.8524,98.9545 C331.7664,97.3745 329.9544,98.1935 327.8164,98.7245 C326.5904,99.0285 324.4164,98.3135 323.7184,97.3195 C322.5234,95.6175 324.2954,94.4055 325.6474,93.5195 C328.7764,91.4685 333.7554,92.5545 335.7554,95.6725 Z M314.5687,87.7926 C316.0077,88.5036 317.5237,89.3876 318.4997,90.6016 C319.2807,91.5726 319.9947,93.6516 319.4957,94.3516 C318.7197,95.4396 316.8957,96.2496 315.4997,96.2736 C314.3997,96.2926 312.8767,95.1836 312.2717,94.1486 C311.6047,93.0066 311.7707,91.3786 311.5747,89.9626 C311.3357,87.9786 312.7537,86.8956 314.5687,87.7926 Z" id="Stroke" fill="#000" transform="translate(358.219773, 194.434256) rotate(4.000000) translate(-358.219773, -194.434256)"/></g></g><g id="Face" transform="translate(324.000000, 111.000000) scale(1 1)" fill="#000"><g id="Face/Glasses 2" stroke="none" stroke-width="1" fill="none" fill-rule="evenodd"><path d="M30.8272308,41.3801 C31.3570769,43.5651 30.7130769,45.3391 29.0535385,46.7271 C26.9933846,48.4501 24.2892308,48.4231 21.5366154,46.6521 C19.2093846,45.1551 18.3607692,43.8481 18.7344615,41.6601 C18.8841538,40.7761 19.9524615,40.3191 20.7601538,40.8061 C21.9469231,41.5201 23.1250769,42.0451 24.3796923,42.8761 C24.9698462,43.2681 25.7883077,43.2061 26.274,42.7061 C27.1473846,41.8081 27.8786154,41.2671 28.5732308,40.6901 C29.3583077,40.0371 30.5946154,40.4251 30.8272308,41.3801 Z M57.7401611,5.69244571 C59.78055,12.01096 59.4997722,18.2595314 56.3214944,24.20056 C54.3349389,27.9116457 51.2527167,30.6188457 46.7761056,30.2537029 C45.3226056,30.1343886 43.2294389,30.2670743 43.2294389,30.2670743 C43.2294389,30.2670743 40.8058833,32.5649029 39.7767167,33.9791886 C38.8362167,35.2721029 37.9168278,36.9990743 35.40355,36.6935886 C34.64355,36.6010171 34.2424389,35.7514171 34.6351056,35.1106171 C37.0639389,31.1423886 39.3471056,27.4127886 42.0641056,22.9724457 C42.4356611,22.3666171 41.9321611,21.6106171 41.2122722,21.6918743 C37.0692167,22.1578171 33.0148278,22.51576 30.1838278,23.13496 C30.1838278,23.13496 29.8259944,24.6809029 29.22855,25.7526743 C28.2278833,27.5465029 27.7043278,29.6129029 26.5854389,31.3193029 C23.2319389,36.4302743 17.7008278,37.6223886 12.6932722,34.1499314 C5.87543889,29.4226171 3.77593889,22.28536 3.02227222,14.6430743 C2.81116111,12.5057029 4.14749444,11.1490171 6.24805,10.5894743 C11.78655,9.11450286 17.2796611,7.41016 22.89205,6.28078857 C26.9876056,5.45690286 28.9942167,7.03267429 29.8523833,11.0513029 C30.3527167,13.3964457 30.3548278,15.8660457 30.6398278,18.4631886 C31.6774389,18.1268457 34.2572167,18.0311886 34.2572167,18.0311886 C33.8919944,14.8652457 33.5742722,12.1086743 33.2227722,9.06101714 C33.0707722,7.74033143 33.6998833,6.37747429 34.9296056,5.80353143 C35.04255,5.75107429 35.1576056,5.70787429 35.2758278,5.67496 C40.4322167,4.25656 45.57805,2.74970286 50.8178278,1.69336 C54.9988833,0.849931429 56.4967167,1.84044571 57.7401611,5.69244571 Z M25.5921611,9.95587429 C18.7584944,10.2654743 13.05005,12.2382743 6.78638333,14.4641029 C7.39227222,20.7095886 8.99777222,25.9943886 13.4226611,30.0428457 C17.0917722,33.3990743 21.20105,33.0370171 23.5897722,29.0214743 C27.1163833,23.09176 27.2757722,16.77016 25.5921611,9.95587429 Z M53.0102167,4.89736 C47.6078833,6.22113143 42.5317167,7.46467429 37.0312167,8.81313143 C37.5347167,11.9646743 38.0223833,15.2201029 38.4171611,17.6886743 C42.5686611,17.8563314 44.4507167,18.0178171 45.8746611,19.5308457 C47.1392167,20.87416 46.5428278,24.2478743 45.4556056,26.3194171 C49.01705,26.6495886 52.3093278,24.1954171 53.4799389,21.42136 C55.72405,16.1036457 55.98055,10.7489029 53.0102167,4.89736 Z M22.9646307,16.3637855 C23.0306909,17.5429088 23.0317738,18.7007361 22.720966,19.7610504 C22.5953434,20.1880902 22.0744425,20.4918378 21.2893009,20.8180021 C19.6486257,21.4994726 17.8660835,20.1768818 18.0079505,18.3532758 C18.1194947,16.9286887 18.2678594,15.7775864 18.7291978,14.7822808 C18.9068022,14.3978328 19.4450304,14.1915983 20.1132129,14.0503725 C21.5448781,13.746625 22.8790773,14.8540145 22.9646307,16.3637855 Z M45.1267884,11.150925 C47.7910746,12.9513347 47.3696056,14.43246 45.386981,16.8625697 C44.318256,17.0803532 44.0290337,17.0074302 43.841953,16.8635551 C41.7367584,15.2562928 41.3722737,13.3642366 43.0796532,11.3775776 C43.3936046,11.0100063 44.7042442,10.8651457 45.1267884,11.150925 Z" id="Stroke" fill="#000"/></g></g></g></svg>