<svg viewBox="21.629032258064512 36.03750000000002 576.7741935483873 924.9625" xmlns="http://www.w3.org/2000/svg" overflow="visible" xmlns:xlink="http://www.w3.org/1999/xlink" width="576.7741935483873px" height="924.9625px"><g id="Master/Character/Standing" stroke="none" stroke-width="1" fill="none" fill-rule="evenodd"><g id="Bottom/Standing" transform="translate(39.000000, 389.000000) scale(1 1)"><g id="Bottom/Standing/Pants and sandals" stroke="none" stroke-width="1" fill="none" fill-rule="evenodd"><path d="M204.720189,482.965332 L207.088952,491.347044 L208.516508,504.182635 L207.088952,513.059222 L213.744849,519.983584 L213.744849,527.544075 L222.960445,534.572672 L222.960445,543.807751 L233.446352,547.847612 L237.230981,556.206917 L245.590287,554.308271 L253.820509,559.296682 L259.991958,556.206917 L265.576246,561.162492 L276.638231,556.206917 L279.847922,561.162492 L290.131111,556.206917 L294.215709,559.296682 L304.762988,554.308271 L310.07339,556.206917 L315.321957,545.91974 L312.463374,524.80375 L295.108397,515.118304 L279.847922,513.059222 L275.566789,470.939926 L304.762988,442.398152 L353.916748,399.601807 L378.093703,431.566828 L412.845322,494.941704 L423.054215,536.225268 L427.922379,546.057024 L437.439523,543.807751 L446.193068,546.057024 L451.148931,542.638854 L459.066776,546.057024 L469.118768,546.057024 L472.988549,547.847612 L480.728767,543.807751 L488.304998,546.057024 L496.648354,543.807751 L508.458266,545.91974 L514.325205,539.286879 L521.045541,542.638854 L530.967755,540.662014 L538.775953,540.662014 L540.671703,539.286879 L548.297217,540.662014 L554.81764,534.572672 L554.81764,521.011956 L548.297217,504.182635 L521.045541,491.347044 L467.429016,482.965332 L454.574972,481.685213 L446.193068,451.847885 L416.349847,360.79803 L408.914378,333.067296 L425.689849,302.886253 L439.970451,267.503273 L442.891326,240.134886 L420.161713,165.654837 L393.166034,101.672278 L363.730443,31.2331738 L348.595142,1.11022302e-15 C278.208651,-1.29129898 241.420563,-1.93694847 238.230879,-1.93694847 C235.041194,-1.93694847 226.703748,4.52987092 213.218541,17.4635097 L198.484597,45.4708253 L196.48804,83.6206694 L204.720189,129.14435 L229.57129,197.959043 L258.163356,264.513198 L285.582185,312.566439 L301.397542,334.800977 L288.528357,363.241718 L272.125447,407.973383 L242.88044,448.431297 L204.720189,482.965332 Z" id="Fill" fill="#FFF"/><path d="M238.374393,-3.9861069 C240.127991,-3.80362254 241.131543,-1.70714992 239.988666,-0.362638725 C239.981334,-0.356346161 239.976096,-0.349004836 239.969811,-0.341663511 C239.140151,0.604318628 237.887282,1.17694196 236.093878,2.40608949 C253.2475,13.4222717 271.926354,15.3708691 291.333254,16.5454811 C291.601427,12.8580385 291.678946,9.65407459 292.150343,6.50884129 C292.306428,5.46532441 293.364453,3.88274453 294.200397,3.74955193 C296.254642,3.42338735 296.499768,5.22515821 296.512339,6.82556702 C296.538527,10.0190433 296.520719,13.2114708 296.520719,16.3304851 C304.491523,18.9125339 334.692373,14.2717679 350.16363,8.34627001 C349.500532,6.85178604 348.681348,5.42127646 348.259186,3.88169577 C348.053866,3.13078312 348.432031,1.54086192 348.82591,1.44122966 C349.757181,1.20630726 351.124233,1.30593953 351.821901,1.87541658 C352.802408,2.67562098 353.458173,3.96349911 354.038516,5.14859868 C357.471335,12.150125 361.135663,19.0572629 364.180889,26.226591 C377.43239,57.4251238 390.634655,88.6456807 403.591794,119.967967 C416.402276,150.93787 428.918397,182.03782 438.907828,214.064874 C442.4894,225.545657 444.477649,237.335825 444.445174,249.495156 C444.409558,262.792393 440.408967,275.024089 435.461391,287.026106 C428.995915,302.711371 421.900863,318.118714 412.491774,332.307397 C411.006349,334.54755 411.194908,336.297932 411.928193,338.647156 C418.904872,361.000441 425.707658,383.406164 432.655006,405.766791 C434.347846,411.2172 436.340285,416.578465 438.279299,421.950217 C444.742679,439.856757 451.24377,457.750712 457.735434,475.646764 C458.252924,477.076225 458.807077,478.4931 459.493222,480.306408 C466.729694,481.158001 474.059397,482.105032 481.407956,482.865384 C495.415787,484.316869 509.434094,485.673965 523.008239,489.733718 C530.708775,492.037845 537.981911,495.239711 544.667371,499.778747 C549.601329,503.12744 553.004817,507.564747 554.726989,513.231201 C556.989695,520.674255 559.824364,528.062774 556.430304,536.006088 C555.335615,538.569259 554.054462,540.730755 551.544533,542.049047 C547.432902,544.206348 543.85133,543.43446 540.952761,540.119327 C538.65339,541.815173 536.731137,544.149714 534.393006,544.694021 C532.165916,545.212109 530.401843,542.761155 527.30843,542.09729 C522.021448,546.088873 520.068816,547.205803 513.337263,542.641597 C510.896473,545.225743 509.124019,549.538247 504.759928,548.921576 C501.310348,548.432853 498.031518,546.732812 494.363,545.461714 C492.539216,546.468524 490.143471,548.788383 487.671254,548.874381 C485.221036,548.958282 482.694347,546.789445 479.977004,545.502616 C477.971994,546.941515 475.66529,549.314861 472.858905,550.423401 C469.481606,551.755327 466.712933,549.471126 464.572789,546.941515 C457.672581,551.477405 457.337365,551.429162 450.409921,545.083112 C443.633324,550.894294 442.404548,550.938342 436.603219,545.571834 C436.250195,545.689295 435.818605,545.715514 435.554622,545.9389 C430.327351,550.366768 426.030303,549.846583 422.619482,544.088886 C421.446227,542.108826 420.693039,539.906429 420.275066,537.642154 C418.647175,528.840955 417.037091,520.02717 415.80203,511.165142 C415.077126,505.96224 413.300482,501.365522 410.760175,496.789779 C399.292651,476.147023 387.874362,455.470706 376.838429,434.594076 C370.694552,422.970661 361.633249,413.821273 353.287423,403.740585 C347.824453,408.576421 342.795168,413.18887 337.590942,417.594714 C329.886216,424.115908 322.594225,431.34921 314.121645,436.676914 C306.378159,441.544213 301.511245,448.523715 295.933044,455.144541 C291.760655,460.096789 287.571504,465.041696 283.218936,469.833484 C279.989342,473.389831 278.309072,478.093523 278.672572,482.88531 C279.348241,491.785093 280.214565,500.682779 281.026416,509.919214 C286.314445,511.245897 291.268306,512.403729 296.171885,513.747191 L298.003142,514.249955 C301.057016,515.093188 304.11004,515.981576 307.016117,517.195516 C312.265387,519.387426 315.492887,523.330766 316.5132,529.144047 C317.678075,535.77536 318.390409,542.3427 316.423111,548.927868 C316.04285,550.203161 315.703444,551.502576 315.176527,552.717041 C312.444518,559.019043 309.113311,559.982855 302.935912,556.124464 C299.086168,558.762097 295.856573,564.540769 290.120192,559.474206 C282.297093,565.477312 280.37903,565.479409 274.418474,559.653544 C266.495857,564.897347 264.634362,564.809251 259.72764,559.226698 C256.949539,559.932514 254.199722,561.433291 251.779883,561.015884 C249.462704,560.616306 247.488073,558.224083 245.189749,556.582772 C236.483566,560.402359 232.546875,556.898449 230.545008,548.438097 C227.283987,547.922107 222.757526,548.836626 221.305622,544.786312 C220.150175,541.560324 220.444537,537.812054 220.064276,533.994565 C217.504065,532.536787 214.041915,531.221642 211.455515,528.920661 C208.473142,526.266247 210.165982,522.558878 211.063732,519.365402 C202.60896,513.902408 202.230795,512.429948 206.612694,502.549573 C201.839011,497.311013 202.958842,496.343007 205.973689,489.909909 C201.304761,486.663995 201.761493,485.460018 202.079948,483.339424 C202.422496,481.054174 204.731295,478.934629 206.494321,477.032177 C208.033171,475.375135 209.967995,474.069428 211.794921,472.698698 C231.162015,458.157631 247.477597,440.798544 260.995175,420.650802 C267.925762,410.322607 273.692522,399.761587 277.581025,387.771106 C282.739159,371.865602 289.585942,356.493916 296.091224,341.054061 C297.185913,338.45733 298.672386,335.209318 298.672386,335.209318 C298.672386,335.209318 296.167695,330.512968 294.774454,328.566468 C267.783296,290.826815 248.041179,249.240307 230.614147,206.436188 C219.475554,179.078217 209.075483,151.474836 201.458751,122.889815 C196.830677,105.516045 193.449188,87.9293772 194.074575,69.8760107 C194.357413,61.7250427 195.234212,53.4954176 196.863151,45.5101537 C201.148676,24.5076722 214.648446,10.213064 232.080716,-0.942603384 C233.841646,-2.06897236 235.643431,-3.23834053 237.590826,-3.91793745 C237.830715,-4 238.094697,-4.01547219 238.374393,-3.9861069 Z M221.458565,470.939926 C216.586412,474.866486 212.322886,478.302226 207.795377,481.950864 C206.791825,482.75841 206.869344,484.322112 207.95251,485.019538 C212.190895,487.745267 211.804349,488.327329 209.004249,492.865317 C208.710936,493.339357 208.473142,493.848006 208.245824,494.384971 C207.717859,495.63824 208.201827,497.096018 209.360416,497.803931 C209.907237,498.136388 210.427869,498.442626 210.965262,498.719499 C213.409195,499.980109 213.663749,501.702174 212.142707,503.837451 C211.590649,504.610388 210.922312,505.30257 210.394347,506.090189 C207.321885,510.679566 207.84566,512.283121 213.100168,514.50125 C217.01067,516.15095 217.261034,516.664843 215.940074,520.344944 C213.805168,526.296661 213.970681,526.623875 220.214076,528.639593 C220.754611,528.814736 221.322383,528.907027 221.868156,529.069585 C224.665113,529.899154 225.920078,531.733437 225.453918,534.659479 C225.304119,535.59812 225.074705,536.527322 224.948999,537.469109 C224.228285,542.888055 224.70073,543.455435 230.023329,543.62009 C231.163063,543.654699 232.460976,543.331681 233.402723,543.776356 C234.39161,544.242005 235.345927,545.311741 235.751329,546.339527 C236.13578,547.313825 235.608862,548.606947 235.796374,549.706049 C236.41757,553.328468 238.711704,554.373034 242.003104,552.617408 C242.669345,552.26083 243.24026,551.72701 243.900216,551.353652 C247.038674,549.571807 247.806528,549.846583 249.737162,552.93728 C250.29341,553.827678 250.954414,554.649906 251.67408,555.523524 C252.442982,556.460067 253.854031,556.539773 254.723497,555.69657 C255.874754,554.580688 256.817548,553.663023 257.80434,552.796746 C259.689929,551.140753 261.269633,551.604305 262.421938,553.713363 C263.482058,555.652522 263.823559,558.854388 266.500048,558.533467 C268.406587,558.305886 270.080571,556.08566 271.845692,554.739051 C272.145291,554.510421 272.357944,554.171672 272.648115,553.930457 C275.033385,551.94725 276.684323,552.200002 278.122608,554.822952 C278.482965,555.480525 278.537438,556.306948 278.89989,556.963473 C280.395791,559.670324 282.005874,560.018512 284.359718,558.025867 C285.35908,557.179517 286.141599,556.058392 286.946117,555.00229 C290.717295,550.050042 291.653804,550.139187 294.379528,555.715447 L294.382671,555.722789 C294.823689,556.620528 296.066083,556.721209 296.677852,555.929395 C297.684547,554.625785 298.765618,553.03901 299.822595,551.910544 C302.634218,548.907942 303.416737,548.921576 306.115224,551.840277 C306.515388,552.273415 306.953264,552.669846 307.448755,553.10718 C308.168421,553.742728 309.300822,553.604292 309.82774,552.800941 C312.309384,549.023305 312.881346,544.334296 312.894964,539.879161 C312.894964,539.879161 310.960141,540.48954 310.25514,540.587074 C301.78675,541.761686 293.345597,543.175416 284.849971,544.104618 C273.288168,545.370472 261.702271,545.354741 250.161419,543.58653 C243.358633,542.545111 237.89252,539.624312 235.110229,532.917488 C231.468947,524.146702 227.13314,515.580425 224.428367,506.527522 C222.057763,498.594697 221.281529,490.138539 220.30626,481.854378 C219.93019,478.665097 220.948408,475.312209 221.458565,470.939926 Z M551.333976,520.087998 C508.487109,520.394236 465.991171,522.779118 423.054215,526.673166 C424.168808,532.29767 423.95825,538.125633 427.877133,542.831422 C428.891161,544.049033 430.762084,544.042741 431.737352,542.792618 C432.345979,542.01234 432.90118,541.299183 433.451143,540.581831 C436.325619,536.836706 437.750286,536.915363 439.949092,540.916385 C440.348209,541.644225 440.772466,542.356334 441.311954,543.25617 C442.080855,544.535658 443.862737,544.724435 444.87886,543.631627 C446.095065,542.321725 447.098617,541.241501 448.122073,540.178058 C451.263674,536.914315 452.250465,537.091555 454.376991,540.900654 C454.748871,541.567666 455.180461,542.202166 455.660239,542.857641 C456.921488,544.577609 459.477509,544.622706 460.82361,542.967761 C461.599844,542.01234 462.317415,541.156551 463.075841,540.340616 C465.158369,538.100463 466.999961,538.521016 468.12922,541.413498 C468.403678,542.116168 468.390059,542.933152 468.684421,543.622188 C469.880722,546.42972 471.738027,546.856566 473.909597,544.656266 C475.2337,543.313852 476.162876,541.591787 477.385366,540.137156 C479.699403,537.382062 480.96589,537.444987 483.210789,540.203228 C483.976547,541.142918 484.768495,542.060583 485.653674,543.082076 C486.613229,544.18747 488.340638,544.164397 489.270862,543.035931 C490.354028,541.719736 491.295775,540.578684 492.268949,539.466998 C493.793133,537.725007 495.410549,537.356892 496.998634,539.417706 C497.577929,540.169668 498.00952,541.059017 498.678904,541.712395 C502.619785,545.563444 505.753005,545.21106 508.827563,540.617488 C509.463425,539.66836 509.975677,538.631136 510.659727,537.720811 C513.002047,534.597602 514.481187,534.645845 516.640186,537.84876 C519.766074,542.484283 520.671156,542.531477 523.904942,538.22107 C524.246443,537.766957 524.485284,537.225796 524.860307,536.805243 C526.884172,534.536774 528.387406,534.694088 530.170335,537.325429 C530.459458,537.750177 530.747534,538.175974 531.03142,538.596527 C531.912409,539.901185 533.776,540.191692 534.922019,539.113566 C536.234598,537.877077 536.808655,536.07216 537.877156,534.744429 C540.471936,531.514246 542.123921,531.614927 544.066078,535.366344 C544.867453,536.914315 545.455128,539.037006 547.475851,538.465432 C549.085935,538.010269 550.993522,536.642685 551.661859,535.174421 C553.932946,530.19071 554.54681,525.036051 551.333976,520.087998 Z M292.148248,518.834729 C284.959964,523.858293 280.928993,530.69831 279.847922,540.347957 C291.086033,538.765377 301.536386,537.291868 312.463374,535.753336 C312.404711,530.354316 312.253864,525.613918 307.97672,523.221695 C303.921656,520.953226 299.255871,519.753443 294.802738,518.249521 C294.055835,517.997818 292.849058,518.343909 292.148248,518.834729 Z M245.998458,466.447035 C239.710018,471.315382 233.911832,475.936222 227.960704,480.352553 C225.369067,482.274932 224.594928,484.411257 224.997187,487.646684 C226.950866,503.360265 232.266132,517.895039 239.646118,531.794265 C242.508023,537.184895 247.029246,538.958349 253.061036,538.982471 C254.648073,524.373234 264.622839,516.892424 276.638231,511.066559 C275.580206,500.184618 274.538942,489.467332 273.499773,478.787802 C263.307117,476.779426 254.131631,473.345783 245.998458,466.447035 Z M461.231107,487.528174 C454.912288,489.574306 448.515952,491.386564 442.136376,493.239725 C436.890248,494.765671 431.621074,496.208766 425.689849,497.877344 C428.008076,506.162554 430.087462,513.598267 432.162657,521.011956 C457.363554,519.422035 481.961062,517.870918 506.900072,516.298826 C507.239478,507.23229 506.571141,498.814936 504.129303,490.360876 C503.086992,490.14588 502.188194,489.888934 501.271589,489.784058 C491.455003,488.660835 481.621656,487.66661 471.823926,486.401805 C468.132362,485.925667 464.727827,486.395512 461.231107,487.528174 Z M527.027686,495.750458 C527.639455,502.824348 528.188371,509.155717 528.789665,516.102707 C536.020898,515.35599 543.112808,516.398458 550.52422,514.970046 C546.320404,503.294193 536.526865,500.205593 527.027686,495.750458 Z M427.669718,407.973383 C410.946639,412.780902 392.888982,415.862161 376.644633,422.533328 C386.518834,441.50436 396.161526,460.030717 405.958208,478.853874 C420.470958,475.533498 434.43584,472.337924 449.046012,468.994475 C442.187705,449.686791 435.527386,430.88356 428.798976,412.1055 C428.317103,410.75994 427.669718,407.973383 427.669718,407.973383 Z M273.465204,410.306876 C267.007061,419.66287 260.446259,429.166739 253.820509,438.762899 C261.112501,450.428265 270.873566,457.088944 283.633766,461.851366 C289.938966,453.951052 296.674709,446.69153 302.429946,439.478154 C292.658404,429.636584 283.303788,420.215567 273.465204,410.306876 Z M310.778914,360.79803 C301.029372,378.988784 291.88217,396.054218 282.840771,412.920387 C290.171522,422.278479 298.552965,429.376491 307.620553,436.525893 C317.558654,428.330877 327.340671,420.262761 337.306009,412.045721 C328.488785,395.010701 319.928211,378.473843 310.778914,360.79803 Z M226.347478,9.12969425 C213.760124,17.8637732 204.236852,32.4614732 201.558268,44.9448717 C198.857686,57.5258049 197.857276,70.1738587 198.874446,82.9991532 C199.933519,96.3425354 202.580676,109.381777 206.020829,122.29307 C214.135147,152.7323 225.562863,181.983284 237.432646,211.092686 C256.944302,258.938197 280.633584,304.476435 312.440328,345.371809 C330.212004,368.220109 348.824862,390.415032 367.121361,412.853267 C369.816705,416.157912 372.505765,418.806032 372.505765,418.806032 C374.222698,418.700107 376.521022,417.731053 380.428381,416.069816 C380.931205,415.856917 381.331369,415.402804 381.777625,415.060908 C370.393905,399.983924 358.853053,385.099913 347.750077,369.896029 C331.683811,347.897225 315.577738,325.875348 302.712784,301.773779 C280.817953,260.754651 260.606534,218.929026 243.563953,175.619404 C234.286855,152.043264 225.358591,128.346516 218.831311,103.828589 C213.575755,84.0909131 210.142936,64.0700716 208.501426,43.6601398 C208.061455,38.1887553 209.178143,33.9758837 211.87663,29.8794244 C216.371665,23.0561874 221.209248,16.4573852 226.347478,9.12969425 Z M268.941885,19.1390662 C255.039857,37.8112015 238.947402,51.1419986 213.694128,45.4073751 C213.694128,46.9406633 213.586231,48.4456348 213.710889,49.9327775 C215.561909,72.0479941 220.108273,93.6440741 226.708882,114.788138 C240.757568,159.790459 258.783798,203.210201 279.377573,245.569645 C291.535431,270.577343 303.358074,295.779063 318.343269,319.287033 C334.84741,345.177788 353.017155,369.888688 371.647822,394.265032 C375.6966,399.562322 380.101546,404.586935 384.114708,409.909395 C385.211492,411.365075 386.452838,413.107067 387.716183,413.559083 C387.716183,413.559083 390.441906,413.161602 392.375682,412.47781 C397.374588,410.710649 402.663665,409.76991 407.814466,408.423302 C414.03691,406.797722 420.245735,405.118657 427.151181,403.27913 C425.240451,396.3657 423.616749,390.320643 421.899816,384.299708 C409.27475,340.03152 391.782769,297.63432 372.660802,255.860085 C361.007862,230.403516 348.598592,205.254235 338.017295,179.357187 C324.193833,145.524168 311.836939,111.089159 298.861992,76.9079511 C297.96529,74.5482396 297.12725,72.166504 296.155124,69.4428725 C295.720391,68.2242126 296.413869,66.8828477 297.6615,66.5430492 C303.277413,65.0118586 308.704767,64.3930898 314.07241,63.5750565 C314.648562,63.4869606 315.853244,64.5462089 315.959046,65.2037819 C316.069039,65.8812813 315.373466,67.0370155 314.707225,67.4156181 C313.581109,68.0553622 312.22139,68.3427226 310.925571,68.6112053 C307.964149,69.2257791 304.982823,69.7407206 301.62438,70.3678795 C302.220436,72.2986479 302.647836,73.9179344 303.216655,75.4847829 C305.231093,81.0348244 307.295813,86.5649395 309.335391,92.1044935 C322.295673,127.309292 334.889312,162.653576 350.425518,196.852613 C370.033548,240.020652 391.086149,282.555239 407.717044,327.039472 C407.937029,327.628876 408.220915,329.163213 408.742595,329.75786 C409.333413,329.064629 410.124312,327.575389 410.412389,327.098203 C421.518508,308.783695 430.552574,289.501181 436.993955,269.060835 C440.49277,257.955508 440.574479,246.56387 438.947635,235.103013 C436.709022,219.328604 431.441943,204.411032 425.955927,189.588897 C407.833322,140.634845 387.521338,92.571192 366.710721,44.7151931 C366.353507,43.8940135 365.794116,43.1609298 365.391857,42.4897229 C345.028543,46.1184349 329.879931,40.2705453 322.445473,20.2192897 C313.872328,20.86218 305.597735,21.4830464 297.003639,22.1280342 C297.181723,25.1610501 297.354569,27.7923907 297.48656,30.4258287 C297.793492,36.5149333 298.137088,42.6029891 298.340313,48.6962887 C298.394785,50.3050875 298.76876,52.6092148 296.448438,52.8388934 C294.006601,53.0801083 294.146972,50.8294679 294.033837,49.1493533 C293.78871,45.5384702 293.598056,41.9233921 293.377023,38.3114603 C293.041807,32.8274907 292.699259,27.3435211 292.339949,21.5260456 C284.176397,20.6933296 276.471671,19.9078078 268.941885,19.1390662 Z M300.574735,341.753585 C295.199759,354.988945 289.990296,367.431441 285.105573,380.000838 C282.424894,386.900635 280.314082,394.02172 277.89948,401.027441 C277.436464,402.369855 276.790126,404.854369 276.790126,404.854369 C276.955638,406.095053 278.428493,407.609463 279.803925,408.735832 C279.803925,408.735832 280.198851,408.151673 280.27218,408.017431 C289.405763,391.362063 298.54249,374.708792 307.605887,358.014619 C308.09614,357.111636 308.440784,355.637079 308.04481,354.824289 C305.948664,350.528565 304.139546,346.018894 300.574735,341.753585 Z M234.750919,8.22985758 C227.493497,13.8239471 215.350304,30.7677247 213.218541,38.7414522 C218.564186,42.4404312 223.173403,43.1714174 230.259027,41.937026 C244.921577,39.3801475 254.864916,30.2454419 263.243216,18.8233893 C253.689566,15.2712368 244.356948,11.8019365 234.750919,8.22985758 Z M353.458173,12.6252136 C348.595449,13.9235793 344.419917,15.0572896 340.234957,16.1490495 C336.109707,17.225078 331.973982,18.259156 327.874921,19.3037217 C331.312978,34.2191961 348.780865,42.9459338 363.730443,37.1714575 C360.323812,29.030977 356.925562,20.9093743 353.458173,12.6252136 Z M309.985621,10.5717849 C310.184425,13.1944777 308.309529,14.9003029 305.120196,14.9959667 C301.624197,15.1002295 299.132795,13.1740551 299.003784,10.2654458 C298.896979,7.87815048 301.061623,6.09493437 304.176932,6.0024952 C307.062771,5.91650528 309.794219,8.06517857 309.985621,10.5717849 Z" id="Stroke" fill="#000"/></g></g><g id="Head" transform="translate(195.000000, 0.000000) scale(1 1)"><g id="Head/Short 3" stroke="none" stroke-width="1" fill="none" fill-rule="evenodd"><path d="M130.015457,89.9811438 L135.217606,89.674459 C151.343697,88.7648343 160.098462,88.8348054 161.4819,89.8843724 C178.493794,112.889823 184.576641,135.584991 179.730441,157.969875 C178.691027,162.770993 162.771337,165.740978 131.971372,166.87983 L131.033485,166.91378 L134.421225,198.824328 C134.797213,200.299697 135,201.870483 135,203.5 C135,212.060414 129.403559,219 122.5,219 C115.596441,219 110,212.060414 110,203.5 C110,202.639206 110.056588,201.7948 110.165402,200.972191 L108.533842,200.972567 L108.458037,198.171625 C107.621355,168.402615 106.148629,152.1788 104.03986,149.50018 C79.854786,149.50018 79.854786,137.358858 81.1798049,130.747277 C82.5048238,124.135696 96.4172316,121.438301 98.77036,121.438301 C95.5674734,89.947545 103.703073,91.4942844 130.015457,89.9811438 Z" id="Path" fill="#FFF"/><path d="M145.5791,42.0653 C149.9661,44.6393 152.9611,48.4453 154.7101,53.2253 C155.0761,54.2263 155.4421,55.2273 156.0171,56.7993 C157.1021,55.8343 157.6611,55.3763 158.1761,54.8733 C163.4951,49.6823 169.6841,48.0713 176.6631,50.7883 C183.7791,53.5573 187.4651,59.2163 188.4711,66.5363 C189.8101,76.2813 184.9961,85.0183 176.2041,89.4283 C173.520568,90.7743967 170.744363,91.8720664 167.891752,92.6186749 L167.704741,92.3455145 C180.693741,111.101515 187.398741,131.430515 182.901741,154.475515 C182.693741,155.541515 182.307741,156.573515 182.099741,157.639515 C181.392741,161.257515 179.300741,163.215515 175.617741,163.992515 C163.528741,166.539515 151.400741,168.675515 139.002741,168.824515 C137.207741,168.845515 135.411741,168.827515 132.917741,168.827515 C133.880741,172.969515 134.755741,176.566515 135.542741,180.184515 C135.830741,181.504515 138.883144,200.886821 137.713144,201.130821 C135.869144,201.516821 133.811144,201.663821 133.723144,199.281821 C133.624144,196.639821 131.523741,180.843515 130.920741,178.233515 C130.639741,177.014515 127.197741,175.290515 124.913741,172.993515 C123.269741,171.339515 121.911741,169.332515 120.754741,167.297515 C120.230741,166.376515 119.306741,164.076515 119.714741,163.111515 C119.937741,162.580515 122.493741,163.094515 123.426741,163.265515 C132.994741,165.016515 142.588741,164.868515 152.157741,163.543515 C159.336741,162.549515 166.459741,161.154515 173.616741,159.982515 C176.277741,159.546515 177.592741,158.076515 178.180741,155.416515 C180.533741,144.767515 180.179512,134.982781 177.578741,123.676515 C175.099571,112.898884 168.808456,102.258947 162.179588,93.6044579 C161.277536,93.6800851 160.369167,93.7147898 159.4551,93.7073 C148.0221,93.6143 136.5951,93.0043 125.1621,92.7683 C120.4561,92.6713 115.7341,92.8773 111.0351,93.1793 C109.4541,93.2803 107.8801,94.0063 106.3731,94.6193 C99.8741,97.2683 99.2701,98.3903 100.7111,105.3523 C101.7781,110.5063 103.0351,115.6203 104.0391,120.7853 C104.2521,121.8793 104.2521,122.479038 103.22439,123.5163 C101.50516,123.925045 101.630972,124.199588 101.044197,123.959304 C100.942218,124.006541 100.831152,124.039942 100.712841,124.057015 C99.8268407,124.185015 98.9818407,124.299015 98.1388407,124.291015 C94.1318407,124.253015 90.6948407,125.752015 87.5628407,128.066015 C84.4108407,130.397015 82.7568407,133.409015 83.4178407,137.481015 C84.1158407,141.778015 86.1528407,145.101015 90.4668407,146.292015 C93.2248407,147.053015 96.1658407,147.219015 99.0408407,147.473015 C100.992841,147.645015 102.971841,147.505015 105.452841,147.505015 C105.846841,149.741015 106.391841,151.805015 106.549841,153.899015 C107.391841,165.128015 109.589597,186.677083 110.290597,197.916083 C110.403597,199.730083 111.631597,202.613083 108.936597,203.014083 C105.807597,203.481083 106.171597,200.348083 106.015597,198.316083 C105.350596,189.660163 103.758202,173.745432 102.822126,162.744445 L102.9392,162.872 C100.478799,160.199579 96.7589522,156.107215 94.5742,153.199 C94.3647256,152.919349 93.7155643,152.231831 93.196186,151.542624 L93.3438407,151.563015 C84.1658407,150.422015 78.8868407,144.368015 79.0018407,135.420015 C79.0392115,132.452223 79.8658451,129.848323 81.6899889,127.628761 L81.7371,127.7113 C76.6341,118.7503 72.6601,109.4083 74.4261,98.7683 C75.8171,90.3913 80.5121,83.8883 87.7691,79.7653 C93.2451,76.6543 99.2601,74.4473 105.1471,72.1233 C110.2031,70.1283 115.4261,68.5603 120.5591,66.7613 C124.1821,65.4923 126.1451,62.9473 126.4781,59.0733 C126.7111,56.3623 127.1431,53.6683 127.5001,50.9683 C128.7711,41.3463 137.2101,37.1543 145.5791,42.0653 Z" id="Stroke" fill="#000"/></g></g><g id="Body" transform="translate(28.000000, 114.000000) scale(1.0103092783505154 1)"><g id="Body/Drawings" stroke="none" stroke-width="1" fill="none" fill-rule="evenodd"><path d="M80.9074874,55 L8,246.958048 L18.3355116,256.047728 L28.0192646,260.216544 L25.014775,270.52318 L322.093791,442 L409,252.659351 L386.669782,237.794704 C386.669782,152.249127 363.382027,103.056371 316.806516,90.2164383 C305.283725,87.0398362 276.480995,86.3498887 267.585288,86.3498887 C251.359501,86.3498887 227.669318,97.2589783 196.514739,119.077157 L80.9074874,55 Z" id="Fill" fill="#FFF"/><path d="M77.9255499,53.8903639 C78.725041,52.0083753 80.2011013,51.6197906 81.9459906,52.3360252 C83.28214,52.884439 84.5323442,53.6486223 85.7975388,54.3578643 C121.427857,74.3225269 157.057177,94.2901863 192.682499,114.266836 C193.617009,114.791208 194.619998,115.271226 195.480959,115.890141 C197.058246,114.712297 198.655476,113.556148 200.273466,112.423706 C217.696375,100.229738 236.406465,90.8597526 257.376116,86.5283818 C261.628409,85.6503203 266.001625,85.3636267 270.317878,84.7922373 C272.826281,84.4605918 274.175422,85.4525316 275.249738,87.8769405 C281.391828,101.732133 291.630311,114.875086 301.226202,127.41868 C300.834452,125.068192 300.791479,117.504276 300.732517,113.304764 C300.643573,106.959546 300.693541,98.2988021 300.732517,91.9555815 C300.767494,86.4854277 301.407087,86.0458975 306.628763,85.757206 C323.170233,84.8441818 336.891499,92.5229751 348.567066,104.24245 C363.762393,119.494149 374.054842,137.630766 379.790191,158.339633 C386.48293,182.499812 389.228183,207.104515 387.797094,232.152745 C387.725139,233.417393 387.790098,234.745973 387.401346,235.914724 C387.375002,235.993843 387.335937,236.075068 387.286495,236.156621 L390.631489,237.9956 C396.199945,241.05533 401.777394,244.099077 407.327861,247.189774 C412.856341,250.268483 412.923299,250.367378 410.395908,255.980379 C401.683454,275.342685 392.941019,294.693004 384.176598,314.033334 C365.375567,355.522992 346.555547,397.003659 327.744522,438.489321 C327.594617,438.819968 327.474693,439.1636 327.321791,439.493248 C324.84137,444.84353 324.414641,445.046313 319.257924,442.108453 C288.339606,424.498274 257.443273,406.849137 226.540945,389.211987 C160.321099,351.419378 94.1012529,313.627768 27.8844048,275.829165 C26.7671161,275.191846 25.662819,274.530553 24.5175481,273.84129 C23.1254343,273.003186 22.484842,271.321982 22.9705329,269.771639 C23.8679616,266.9077 24.73441,264.139658 25.6598209,261.186814 C19.9204745,258.283917 14.5988621,255.613771 9.29623757,252.905665 C4.36237834,250.386357 4.22746422,250.094669 6.15123959,244.965151 C29.670268,182.283143 53.2012887,119.60613 76.7323095,56.9281173 C77.1150658,55.9102052 77.4988215,54.8912942 77.9255499,53.8903639 Z M102.078175,84.3597995 C76.7742828,146.63724 51.7422175,208.245396 26.6032204,270.120267 C125.496268,326.549957 223.966584,382.738905 322.745704,439.103664 C351.092659,376.522548 379.159792,314.559772 407.415805,252.182438 C391.285073,243.316913 375.164335,234.455384 359.042598,225.594854 L360.391764,226.335228 C359.924716,230.269553 358.859743,234.134791 357.73523,237.969528 C357.026762,240.382852 355.365099,242.346415 353.629482,243.099011 C354.01471,243.548455 354.383795,244.008261 354.73554,244.475974 C360.916605,252.697188 366.671941,261.239059 372.595171,269.654065 C373.706463,271.233377 375.201512,273.682759 376.402747,275.398925 C376.605618,275.201136 376.757521,275.024325 376.88444,274.857504 C377.399113,274.175233 377.918782,273.49496 378.506408,272.872625 C379.556739,271.761812 380.653041,270.707939 382.172074,272.180365 C382.926594,272.911583 382.559827,275.498818 381.903245,276.852372 C379.793588,281.211713 377.440087,285.47116 374.878717,289.580768 C374.662854,289.9254 374.300085,290.179129 373.864363,290.387905 C372.37631,291.100144 370.521491,290.082232 370.547474,288.432995 C370.550472,288.215228 370.587449,288.014442 370.671395,287.836632 C371.027169,287.081439 371.712732,285.397239 371.739715,284.777901 C371.739715,284.777901 369.116385,281.764122 367.12965,280.070932 C367.551381,282.927878 368.043068,285.775835 368.378855,288.642771 C368.977474,293.747315 367.579364,298.234519 364.043614,302.033459 C359.047795,307.398725 352.392032,307.641466 347.096403,302.499961 C340.784421,296.369513 339.361327,288.659752 340.99029,280.461514 C342.611258,272.310226 346.015091,264.957085 353.954037,259.840553 C349.763705,254.648103 345.902163,249.364749 340.302727,245.718646 C336.711014,243.380145 334.811223,243.873618 332.754532,247.652579 C328.848019,254.823915 329.563564,262.240988 331.943049,269.673045 C332.236862,270.590065 332.69457,271.461134 333.13529,272.322213 C333.95177,273.920505 334.921153,275.820475 332.669586,276.653584 C331.838116,276.961255 329.860375,275.621687 329.137835,274.543839 C322.50006,264.645418 325.058431,245.774586 333.958766,237.925975 C334.648869,237.317183 335.35391,236.793962 336.071449,236.362435 C335.975849,236.306544 335.883156,236.24445 335.793198,236.178442 C335.642294,236.067561 334.808825,235.083612 334.754859,235.088607 C329.715067,235.567096 326.94583,234.126635 327.487485,228.155017 C327.696352,225.843488 328.26499,223.565922 328.853615,220.228489 C326.186313,222.553005 324.297516,224.373059 322.227833,225.955368 C320.079201,227.599611 317.816641,229.464618 314.848531,227.800396 C312.782846,226.643633 312.265175,223.589896 313.664285,219.832912 C315.986806,213.604568 318.343306,211.383942 322.779482,206.577079 C322.924975,206.419436 323.136363,206.223998 323.396471,206.003054 C292.470777,189.005194 261.540049,172.0046 230.578875,154.987316 L237.376398,158.724278 C236.203199,160.106655 235.162279,161.397858 233.962621,162.518966 C219.10308,176.40113 204.030675,190.060531 189.386996,204.166455 C183.04988,210.271806 177.377206,217.064102 171.445811,223.594865 C180.955785,232.270423 190.837869,240.44818 201.000043,248.24984 C201.146552,247.942956 201.297863,247.641224 201.417538,247.3523 C201.82328,246.375344 202.235018,245.401385 202.754687,244.480369 C212.482494,227.239795 222.218297,210.004216 231.983081,192.78462 C232.873514,191.2123 233.883871,189.692924 234.978174,188.256459 L234.978174,188.256459 L235.008155,188.2185 C236.403267,186.418424 239.231467,188.16256 238.317049,190.24833 C237.978264,191.021504 237.613497,191.809662 237.188767,192.563856 C226.710437,211.195942 216.198129,229.810049 205.698813,248.430148 C205.520926,248.744812 205.404,249.095437 205.220117,249.406105 C204.947933,249.865343 204.684635,250.379605 204.379063,250.821598 C217.267787,260.555733 230.586584,269.713083 244.151932,278.538975 C244.47723,277.83359 244.939341,277.148562 245.340278,276.481069 C254.5744,261.110496 263.824511,245.750912 273.077621,230.392326 C273.729206,229.310482 274.279856,228.101774 275.166291,227.25468 C275.67197,226.772195 276.972142,226.541442 277.534784,226.863098 C278.094427,227.182756 278.541143,228.409445 278.394237,229.101706 C278.1384,230.30442 277.476821,231.45519 276.830232,232.534037 C267.703042,247.757767 258.569856,262.976502 249.37471,278.158276 C248.845047,279.031343 248.169477,279.816504 247.391972,280.689571 L247.42011,280.656017 C249.934416,282.277727 252.456643,283.888786 254.985638,285.490739 C258.820197,287.919144 262.82065,290.085828 266.619232,292.566177 C268.128272,293.551125 270.967464,294.52908 270.967464,294.52908 C272.040781,293.813844 273.432895,293.123582 274.904958,291.997785 C279.915255,288.167984 285.147461,284.596336 290.496086,281.240002 C289.839113,277.848645 289.176591,274.457922 288.503601,271.069952 C287.511233,266.067298 287.697115,261.43425 291.951406,257.726213 C294.024087,255.918145 296.060791,255.434662 298.190435,257.236736 C300.259118,258.988863 302.341792,260.804923 304.04171,262.897686 C312.325437,273.091791 320.582181,283.308871 328.83093,293.530946 L325.958844,289.972743 C327.37194,290.171386 328.781567,290.448156 330.186767,290.819045 C332.983986,291.558255 336.138978,293.22847 336.212931,296.763691 C336.248556,298.487292 335.561278,299.695123 334.518495,300.584533 C338.894968,306.013489 343.272146,311.442146 347.647652,316.870802 C349.469492,319.130387 351.736049,322.148161 353.797737,324.829296 C354.866057,323.587623 355.557616,322.108204 356.318132,320.841558 C356.951729,319.787684 358.446777,319.474019 359.328216,320.332102 C360.085734,321.069315 360.045759,322.156153 359.512099,323.34688 C356.415071,330.255497 353.245089,337.134145 349.935195,343.941869 C349.860243,344.096704 349.743318,344.230561 349.596411,344.349434 C348.430154,345.291427 346.67627,344.614151 346.201572,343.19267 C346.075652,342.816073 345.999701,342.441473 346.018689,342.070869 C346.085646,340.804223 346.915118,339.577534 347.474762,338.179028 C344.713872,334.76828 341.972208,331.381782 339.201131,327.957911 C338.870538,329.545851 337.914738,331.017133 336.13498,332.105919 C340.474218,335.905858 339.334943,339.155385 333.894407,341.175226 C333.216826,341.426743 332.5247,341.652348 331.822404,341.853738 C331.675875,343.527688 330.139867,343.982384 328.73609,344.576091 C323.290201,346.877895 317.687889,348.272156 311.923734,348.794084 L311.616388,349.269575 C311.342563,349.697118 310.63901,350.787952 310.63901,350.787952 C310.63901,350.787952 311.175669,352.439188 311.373543,353.07351 C313.965893,361.395615 317.343742,370.812551 320.04902,379.100693 C320.126971,379.341436 320.816532,378.283566 320.836519,378.244608 C320.876494,378.16769 320.915469,378.089773 320.954444,378.010858 C321.178301,377.557343 321.381172,377.093838 321.60503,376.639324 C322.473477,374.881203 323.356915,373.052157 324.575139,371.501814 C324.784006,371.223112 325.113796,371.032316 325.50055,370.886472 C326.923644,370.350045 328.588584,371.299031 328.624561,372.817408 C328.628559,373.002211 328.600577,373.17103 328.525624,373.314877 C325.236718,379.701051 321.821892,386.02729 318.215188,392.238652 C317.732495,393.068765 315.659814,393.828952 314.871316,393.458348 C312.986516,392.571296 313.814989,390.85513 314.695428,389.541534 C316.036574,387.54367 317.29977,384.66175 317.29977,384.66175 C317.29977,384.66175 316.101533,380.967698 315.213099,378.870939 C311.093656,369.144649 307.815689,359.146215 305.032337,349.007095 C304.796703,349.000436 304.5593,348.992602 304.321632,348.983381 C290.3905,348.442959 277.156924,344.73692 264.127219,340.141831 C260.094085,338.719559 256.112333,337.190347 252.178292,335.562041 C245.579791,344.389874 238.968075,353.208167 232.311672,361.991878 C229.862231,365.225422 229.241626,365.286357 225.525991,363.01978 C217.942818,358.392725 210.428602,353.655787 202.886403,348.960805 C188.573514,340.051327 174.251631,331.153837 159.952733,322.222382 C155.215749,319.263544 155.068842,318.732112 158.108907,314.218936 C162.601048,307.551062 167.125168,300.905165 171.6303,294.246282 L170.995959,295.182399 C165.376838,292.252544 159.789257,289.264106 154.233774,286.224955 C149.445618,283.60547 144.960517,280.674466 140.784124,277.438989 C140.194528,277.264889 139.633434,276.89987 139.114898,276.3582 C138.89684,276.130361 138.714434,275.89996 138.565799,275.667744 C127.497768,266.562622 118.725217,255.209684 112.362428,241.751486 C110.069888,236.901669 108.484897,231.535405 107.603458,226.236068 C107.570325,226.036785 107.538541,225.837837 107.508107,225.639221 C104.535357,227.978927 102.27628,231.017313 100.570934,234.45918 C99.9763129,235.658898 100.363067,237.600822 100.833767,239.024301 C102.801514,244.965951 103.68795,251.028471 103.121311,257.246825 C102.927434,259.378547 102.38378,261.541236 101.616269,263.543096 C100.804786,265.658835 99.2577704,267.219167 96.6874066,267.129263 C94.1310339,267.03836 92.6899513,265.408103 91.9933947,263.237423 C91.3368126,261.192608 90.8761059,259.028921 90.7272007,256.890206 C90.3204596,251.024475 91.1369399,245.253643 93.3545282,239.822448 C94.5867438,236.804673 94.3079213,234.43121 92.5630321,231.725102 C84.5421379,219.285397 72.6607014,219.034665 64.9206285,231.613221 C57.9540632,242.934122 55.8434068,255.161054 60.0697165,268.099227 C60.4814544,269.360878 60.9931286,272.710299 58.3618037,271.934128 C56.8277802,271.481612 55.4146797,268.388917 55.0948833,266.953451 C51.7600062,251.971463 54.1844629,237.994401 63.7673626,225.859371 C72.2359717,215.134833 84.6640603,215.345607 93.5464061,225.825407 C94.7146624,227.203934 95.7550001,228.690345 97.1351216,230.493418 C100.180386,226.152845 103.560597,222.876492 107.029446,220.741648 C106.632364,211.08199 109.620562,202.2376 116.03509,194.108405 C120.718155,188.172785 125.547411,182.382281 130.540375,176.744534 C130.312432,175.298131 130.089364,173.825182 129.841202,172.315796 C125.301092,172.827249 121.197704,173.384654 117.077327,173.713302 C114.938688,173.88412 112.688121,173.996 110.63143,173.520508 C107.49043,172.793286 106.696935,170.59064 108.965491,168.352032 C112.301367,165.06055 116.09795,162.227578 119.763617,159.281726 C120.869913,158.392676 122.195069,157.777334 123.831028,156.787392 C122.53985,149.653017 121.253668,142.556601 119.973483,135.458188 C119.55475,133.141664 118.97312,130.832132 118.826214,128.497627 C118.771249,127.630554 119.546755,126.277999 120.30927,125.918383 C121.043802,125.571754 122.561836,125.895408 123.18344,126.495766 C124.600538,127.866302 125.783785,129.516538 126.874091,131.175765 C130.350877,136.468108 133.742718,141.816392 137.537303,147.717086 C139.324165,146.40349 140.901161,145.330636 142.381219,144.137911 C144.780692,142.202979 146.989286,139.998335 149.539662,138.297154 C150.696925,137.525978 152.68466,137.14938 153.905883,137.614883 C154.738353,137.931544 155.365953,140.057272 155.260021,141.304939 C155.030167,143.991068 154.386577,146.662213 153.701013,149.284411 C153.280431,150.893148 152.841687,152.49798 152.390564,154.111508 L153.043532,153.491814 L153.043532,153.491814 C162.257006,144.802135 171.344025,135.97246 180.9041,127.684719 C154.667969,113.264491 128.398314,98.8259974 102.078175,84.3597995 Z M214.136242,318.746097 C218.732316,331.922016 223.697155,344.829221 229.34556,357.716448 C232.938981,354.240362 241.67609,342.844559 248.066215,333.814064 C238.088123,329.477021 228.41482,324.507561 218.983788,319.039222 C216.965356,318.940397 215.295509,318.846528 214.136242,318.746097 Z M209.169403,318.562294 C197.537808,316.889082 170.193215,317.801107 164.839623,320.140607 C184.696982,332.504393 204.3045,344.713345 223.917015,356.925293 C219.029127,344.210882 214.145236,331.504462 209.169403,318.562294 Z M306.487853,279.091579 C303.38283,279.341312 300.734515,280.326259 298.301064,281.743744 C292.817555,284.939329 287.340042,288.190854 282.141351,291.822972 C272.960196,298.238116 273.052137,298.365979 270.952474,309.557018 C270.717623,310.804685 270.380838,312.03537 270.184962,313.288031 C269.300525,318.943986 268.449067,324.604936 267.481683,330.951153 C276.881699,332.836139 285.532193,334.759083 294.252642,336.272466 C304.269265,338.010608 314.326863,339.609899 324.57334,338.850711 C326.894862,338.678894 331.178136,338.391202 333.894407,337.059625 C334.631937,336.698011 334.153242,335.406392 333.350753,335.227583 C331.214113,334.751092 327.945194,334.599254 326.324226,334.426439 C316.942198,333.423511 307.547179,332.530465 298.157156,331.593467 C296.892961,331.466602 295.548816,331.532532 294.395551,331.098995 C294.013794,330.955149 293.683004,330.676447 293.370203,330.350795 C292.704627,329.656537 292.717619,328.559709 293.398186,327.879436 C293.703991,327.573763 294.026785,327.297059 294.390554,327.097272 C294.940204,326.796593 295.812649,327.035338 296.53219,327.104265 C306.107095,328.021285 315.687996,328.892354 325.252908,329.90627 C327.688357,330.164993 330.870332,330.147013 333.147882,329.12011 C334.732873,328.404875 335.136616,326.175257 333.62258,325.319172 C332.77412,324.839685 330.702439,324.261303 329.847983,324.084492 C324.718248,323.026623 319.53055,322.139571 314.323865,321.586162 C308.732424,320.990798 303.092015,320.860937 297.474591,320.505317 C296.018517,320.412417 294.112731,320.303533 294.536461,318.35062 C294.747327,317.381656 297.079842,316.498599 297.928302,316.316794 C298.8737,316.115009 299.989989,316.429673 300.948379,316.499598 C302.243555,316.594497 303.537731,316.728354 304.830908,316.84423 C307.359298,317.069989 309.887689,317.295748 312.41508,317.520507 C317.471861,317.970027 322.529641,318.411555 327.58942,318.821117 C331.134164,319.10881 335.358475,319.638244 338.977171,318.302671 C340.633117,317.690326 341.024868,315.43174 339.597776,314.393849 C337.662008,312.988351 334.881778,312.804548 332.687175,312.628735 C322.203849,311.790631 311.701534,311.185278 301.203217,310.53797 C300.107914,310.470043 299.008614,310.474038 297.902318,310.490021 C296.02951,310.516992 294.717346,308.464186 295.692725,306.866893 C296.428257,305.661182 297.889327,305.235637 299.47132,304.909985 C307.822004,303.184829 316.182681,301.509619 324.513378,299.69356 C326.283252,299.306973 328.042132,299.19809 330.347664,298.368976 C331.291709,298.029597 331.513634,297.354233 331.421295,296.743347 C330.557075,295.672635 329.694221,294.60209 328.83103,293.531546 L330.316,295.374 L330.215488,295.331431 C325.779169,293.503826 321.633745,293.7612 317.765674,294.117519 C310.737148,294.764828 303.747597,295.869647 296.759046,296.90554 C295.950561,297.025412 295.152069,297.255166 294.397549,297.199226 C292.660655,297.069365 291.949108,294.883701 293.244283,293.719944 C295.451878,291.735066 297.767404,289.671271 300.036959,287.55753 C302.406451,285.351888 305.4715,283.818527 307.530189,280.860688 C308.07884,280.07253 307.445244,279.013662 306.487853,279.091579 Z M254.464355,289.662075 L254.399265,289.86684 C254.071183,290.823727 253.543081,291.771152 253.03528,292.62961 C248.051452,301.052608 242.977682,309.420664 237.93789,317.810697 C237.446121,318.629446 236.970895,319.458234 236.413638,320.424197 C241.874048,322.462039 247.390537,324.37083 252.972919,326.127309 C255.028611,326.773618 257.088299,327.405942 259.638676,328.199095 C262.653757,318.207773 265.562905,308.563081 268.452066,298.984318 C267.81647,298.403938 267.467692,297.979392 267.026973,297.695695 C262.849632,295.002691 258.658213,292.330558 254.464355,289.662075 Z M230.032484,273.993989 L229.994422,274.077013 C229.756948,274.587592 229.471879,275.138004 229.111609,275.633474 C221.523439,286.053338 213.909286,296.453223 206.249162,306.820143 C206.05856,307.078119 205.869511,307.315113 205.681778,307.531512 C208.148342,308.667684 210.622558,309.787321 213.105592,310.886634 C213.342326,310.89733 213.565754,310.940722 213.771274,311.026947 C216.017438,311.968329 218.226339,312.998778 220.425347,314.053338 C223.314792,315.276103 226.217639,316.467094 229.13526,317.62398 L228.910637,317.971525 C232.049638,313.069764 235.246603,308.278884 238.233702,303.360141 C241.242786,298.403439 244.024016,293.307885 246.954151,288.301236 C247.430741,287.486407 247.91985,286.573179 248.556731,285.902329 C242.362492,281.961947 236.175439,278.010546 230.032484,273.993989 Z M174.87021,297.190514 L173.015562,299.929136 C169.775161,304.714614 166.522351,309.518759 163.235644,314.372771 C178.178132,314.002168 192.239181,313.652541 206.317219,313.303914 C206.291525,313.078653 206.24404,312.806963 206.177683,312.495599 C204.540413,311.74342 202.907198,310.983674 201.276828,310.216314 C192.40062,306.038818 183.597721,301.687133 174.87021,297.190514 Z M321.168411,304.78171 L321.081411,304.799904 C318.588844,305.338751 316.167548,305.876523 314.40981,306.386407 C315.941567,306.657125 321.202878,306.77723 322.795914,306.996889 C322.262904,306.267811 321.720301,305.528577 321.168411,304.78171 Z M207.707881,258.763947 L207.51911,259.0276 C207.086496,259.610532 206.614796,260.168603 206.140432,260.716018 C196.986259,271.284722 187.843079,281.864415 178.624947,292.377179 C178.215025,292.844779 177.747631,293.262179 177.279468,293.635727 C184.581724,297.37093 191.917446,301.031094 199.315438,304.548001 C199.45623,304.03704 199.68036,303.492147 199.988148,302.913319 C200.582769,301.796512 201.325297,300.75063 202.076818,299.728722 C208.743574,290.659415 215.415327,281.592106 222.125056,272.553766 C222.747002,271.716138 223.403893,270.833524 224.167799,270.12358 C222.447893,268.984351 220.733076,267.834496 219.023531,266.676847 C215.209805,264.094452 211.437298,261.45725 207.707881,258.763947 Z M355.350148,264.427651 C353.585272,266.137823 351.960306,267.23565 350.977932,268.749032 C346.963487,274.925431 345.727274,281.671222 347.878904,288.791612 C348.421559,290.585694 349.500872,292.383772 350.79205,293.747315 C352.934686,296.007899 355.585998,298.317431 358.902887,297.268552 C362.466618,296.142755 362.732449,292.457693 362.661494,289.436922 C362.460622,280.776178 359.941226,272.710798 355.350148,264.427651 Z M307.387253,286.958023 L307.177807,287.13112 C305.310662,288.65755 303.249914,290.322268 301.487036,291.934852 C304.257273,290.964889 307.927936,290.427463 309.557899,290.237666 L309.973968,290.188224 C309.101643,289.08976 308.237347,288.010414 307.387253,286.958023 Z M186.504769,242.447624 L186.385925,242.596333 C185.727863,243.432074 184.904678,244.530787 183.86741,245.364325 C178.913564,249.34507 173.818807,253.150004 168.826984,257.083799 C161.551616,262.816672 154.324216,268.609481 147.064838,274.360335 C146.610327,274.72035 146.151019,275.07589 145.6857,275.423439 L145.585983,275.497528 C148.559391,277.702649 151.684643,279.766596 154.959312,281.690801 C160.269232,284.811706 165.73221,287.679643 171.208374,290.510266 L171.242647,290.423268 L171.242647,290.423268 C171.86525,288.954837 172.90259,287.611273 173.957918,286.387581 C182.978176,275.942744 192.044405,265.536865 201.10064,255.123994 C201.315451,254.877315 201.530263,254.628405 201.75175,254.386587 C196.580928,250.520547 191.496793,246.541866 186.504769,242.447624 Z M293.269567,271.25875 C293.695257,273.785316 294.129718,276.305744 294.570917,278.822358 C295.982945,278.100245 297.466132,277.494438 298.968347,276.924835 C296.279712,273.886866 294.230236,271.807804 293.269567,271.25875 Z M168.35903,226.667764 L168.219732,226.760189 C167.642252,227.131985 167.012603,227.441126 166.396631,227.692312 C151.61704,233.714875 136.817461,239.685494 122.019881,245.662107 C121.262223,245.968341 120.499487,246.271192 119.726163,246.536336 C125.082892,255.822973 131.76968,263.899393 139.727241,270.798993 C140.276426,270.239092 140.883782,269.727408 141.497382,269.243803 C153.759576,259.571141 166.026767,249.905471 178.322939,240.275763 C179.30069,239.510334 180.372085,238.774858 181.507936,238.282645 C177.047169,234.509075 172.662747,230.637565 168.35903,226.667764 Z M97.3759683,243.03002 C94.7526382,249.468139 94.2079849,255.021204 95.741009,259.363563 C96.1977183,260.660177 98.1164969,260.527319 98.4063124,259.182756 C99.531596,253.950348 98.9069936,248.844805 97.3759683,243.03002 Z M81.3933424,57.1488814 C57.5205392,120.773882 33.7696584,184.072231 9.81990422,247.901014 C11.4888418,248.846004 12.9818914,249.745043 14.5249091,250.547186 C15.9510013,251.288393 17.4300598,251.924713 19.2568969,252.780798 C19.9904299,251.140551 20.7389534,249.752035 21.248629,248.281607 C31.5910453,218.414528 44.4698469,189.574351 56.7690176,160.499425 C64.1243354,143.111009 71.3657257,125.671647 78.9528959,108.384123 C82.1598544,101.076933 85.5986654,93.8576486 89.6560825,86.9859927 C91.05819,84.6115305 92.6631683,83.3708565 97.1493125,84.3597995 C98.0767222,84.5635817 99.5228016,80.5169066 101.130778,79.1703458 C103.013579,80.1153358 105.116241,81.088296 107.142951,82.2011066 C133.982865,96.9493443 160.82178,111.701578 187.661695,126.451813 L184.428533,124.674123 C186.798434,122.68091 189.201047,120.725135 191.645157,118.816793 C191.208672,118.561507 190.775379,118.297269 190.33899,118.05279 C155.972867,98.8003661 121.61174,79.5399508 87.245617,60.2875269 C85.5167176,59.3195614 83.7538398,58.4125308 81.3933424,57.1488814 Z M243.714113,204.725857 C244.694489,202.89881 245.480988,199.257702 248.437107,201.031805 C250.814593,202.458281 248.418119,204.931637 247.47372,206.732713 C240.246321,220.512985 232.95896,234.261291 225.682592,248.014592 C225.006022,249.292227 224.375424,250.614813 223.525964,251.772576 C223.421031,251.915423 223.298109,252.045284 223.159198,252.168153 C222.062896,253.139115 220.25005,252.789489 219.750368,251.41296 C219.682411,251.227159 219.645435,251.045353 219.649138,250.863547 C219.675416,249.864615 220.352984,248.850699 220.854665,247.899715 C228.446832,233.494111 236.014015,219.074522 243.714113,204.725857 Z M260.515318,211.90898 C261.031989,211.44148 262.341156,211.261672 262.901799,211.60031 C263.437458,211.923964 263.808222,213.166636 263.644326,213.862892 C263.362505,215.061611 262.675943,216.189406 262.043345,217.279241 C255.947226,227.773026 249.855104,238.270806 243.684032,248.721637 C243.112396,249.689602 242.39985,250.574656 241.577373,251.566596 C240.584006,252.766314 238.633247,252.619471 237.945685,251.221964 C237.860739,251.04815 237.805774,250.879331 237.786786,250.706515 C237.706837,249.957316 238.445367,249.090243 238.895081,248.317069 C245.370958,237.204945 251.852832,226.095818 258.352695,214.997679 C258.989289,213.909842 259.604897,212.730103 260.515318,211.90898 Z M355.323765,216.557412 C354.82908,218.282569 352.510556,229.351738 349.965176,233.268552 C349.314591,234.267485 350.707704,241.058227 352.972262,240.047307 C353.146151,239.969391 353.277068,239.808563 353.360015,239.637745 C357.273524,231.578359 357.487388,226.667607 357.312499,220.874798 C357.271525,219.522244 356.649921,216.848102 355.323765,216.557412 Z M128.804577,185.27508 L128.044859,186.181218 C124.397056,190.56336 120.888001,195.067552 117.48017,199.667464 C112.702212,206.118569 111.012288,213.2939 111.390047,221.188463 C111.689856,227.454766 113.150926,233.375438 115.807235,239.027397 C115.958279,239.34883 116.110733,239.668982 116.264596,239.987854 L116.254551,239.993165 C117.196951,239.459735 118.232292,239.085136 119.24065,238.675573 C133.185773,233.007631 147.069934,227.178861 161.128985,221.809599 C161.614247,221.624375 162.029681,221.405728 162.390596,221.161922 C161.165888,220.036703 160.114795,218.797142 160.082051,216.98096 C160.421835,216.425553 160.552752,216.059944 160.804591,215.821199 L162.931,213.802 L160.007463,211.3808 C150.180593,203.241999 140.420001,195.160081 130.675371,187.058739 C130.017472,186.511745 129.382175,185.915417 128.804577,185.27508 Z M346.824176,234.751967 C346.2557,235.08578 345.618285,235.488951 344.944159,235.885674 C345.383108,236.101688 345.823771,236.354484 346.264932,236.645343 C346.583402,236.855363 346.900196,237.071462 347.214749,237.293365 C347.098267,236.529234 346.994973,235.475435 346.824176,234.751967 Z M348.347206,209.777658 L348.377187,210.935421 C347.498746,217.741147 343.761126,223.138379 339.965542,228.484665 C339.173046,229.60247 337.679997,232.052851 337.819908,233.169658 C337.936808,234.104453 338.729151,234.737008 339.692106,235.007155 C340.436503,234.893088 341.188901,234.879665 341.947258,234.971789 C342.288231,234.859734 342.600791,234.691658 342.860699,234.466272 C347.914482,230.084955 352.391632,216.302685 351.677087,213.269926 C351.35729,211.653653 349.875234,210.919438 348.347206,209.777658 Z M360.405807,218.635234 L360.414525,218.701121 L360.414525,218.701121 C360.534728,219.640911 360.603924,220.575625 360.628897,221.505749 C370.628444,227.002476 380.630842,232.498601 390.631489,237.9956 L383.460021,234.054238 C383.430293,233.194661 383.480905,232.320215 383.530809,231.46448 C383.778449,227.223233 383.901501,222.997535 383.900804,218.787513 C383.57205,218.849034 383.220368,218.884076 382.847644,218.88952 C375.369519,218.996883 367.886953,218.784603 360.405807,218.635234 Z M336.391817,214.203928 C334.415075,218.105758 331.133164,224.525896 331.129163,228.977139 C331.126169,231.891024 333.028958,231.948963 333.830447,230.967012 C338.917209,224.735672 346.410439,211.087259 344.06893,209.43902 C340.449234,206.513147 337.662008,211.693611 336.391817,214.203928 Z M332.55426,205.242505 C326.96182,206.397271 320.479946,214.86622 316.979174,221.514115 C316.268627,222.864671 317.640753,224.238203 319.112816,223.433064 C325.294881,220.053676 330.844348,214.048094 333.332764,207.654927 C334.170231,205.506223 333.839442,205.526202 332.55426,205.242505 Z M381.568998,187.378357 L381.51513,187.408968 C380.663385,187.85704 379.566048,188.051521 378.593952,188.202217 C371.626387,189.280065 364.643832,190.270007 357.667273,191.288918 C357.636293,191.03419 357.605313,190.778464 357.574333,190.523736 C354.673179,190.523736 351.764031,190.654596 348.872872,190.480782 C348.679258,190.469128 348.488922,190.449935 348.302983,190.422889 C348.138315,193.549593 347.972356,196.677071 347.826538,199.805316 C347.742591,201.606391 347.814545,203.415458 347.814545,204.458343 C351.410998,207.146181 354.823795,209.228764 357.609802,211.8997 C357.744517,211.890255 357.881442,211.88618 358.01845,211.888003 C360.902614,211.92796 363.780782,212.325535 366.662947,212.551294 C368.106028,212.664173 369.551109,212.731102 371.839652,212.870952 C374.79577,212.725108 378.590354,212.563281 382.380941,212.340519 C382.869901,212.311676 383.348219,212.302351 383.801673,212.334744 C383.548442,203.953103 382.801682,195.633774 381.568998,187.378357 Z M151.489134,161.742408 L150.116919,163.053441 C149.158872,163.961336 148.197253,164.865386 147.231232,165.764697 C142.429147,170.235212 137.888414,174.921361 133.553043,179.783855 C134.407711,180.404731 135.206614,181.120486 136.020968,181.797362 C146.695207,190.663202 157.362462,199.53864 168.339313,208.669165 L181.7,195.99 L180.743341,194.904244 C171.789452,184.746086 162.339901,174.024108 152.891229,163.302129 C152.429209,162.778178 151.94911,162.268191 151.489134,161.742408 Z M270.31388,88.8548953 C264.048869,89.9057722 257.861807,90.9446619 251.841639,91.9555815 C251.266006,99.3536747 250.794306,106.025544 250.219672,112.688423 C249.074401,125.988209 244.277455,138.045323 237.472786,149.37921 C236.79926,150.501886 235.760868,151.42851 234.775473,152.342958 C266.193299,169.608641 297.610741,186.873724 329.027205,204.139784 L327.307215,203.193264 C328.280865,202.578637 329.171206,202.082554 329.707072,201.899079 C334.924751,200.112987 337.819908,201.899079 337.819908,205.878825 C338.865242,204.904866 340.443238,204.599193 343.109541,205.380358 C343.338395,202.530404 343.722151,199.694435 343.766123,196.852472 C343.959999,184.34484 344.299783,171.830215 344.045944,159.328576 C343.963997,155.277905 342.722787,151.06341 341.17877,147.260474 C334.220199,130.115797 326.91485,113.110971 319.868335,96.0012576 C319.461594,95.0143124 319.113816,94.1941889 318.434248,93.1662875 C317.457313,91.3648584 315.856387,90.6048875 314.226926,90.6048875 C312.796837,90.6368533 312.137257,90.5988939 310.052584,90.5988939 C309.396002,96.3097904 308.761406,104.005703 308.082838,109.695622 C307.265358,116.542304 306.438884,123.388987 305.555447,130.227678 C305.323594,132.015767 305.089743,134.365256 302.899137,134.397222 C301.40209,134.420197 299.39137,133.329363 298.44997,132.09668 C289.85644,120.842708 281.298888,109.54778 274.788032,96.8873106 C273.47187,94.3280459 271.989814,91.8536904 270.31388,88.8548953 Z M174.113818,139.782968 L172.848919,140.983943 C167.462949,146.13369 162.174671,151.38903 156.834781,156.588972 C158.083824,157.848344 159.251291,159.198219 160.42943,160.530092 C168.967995,170.186771 177.48957,179.858435 186.024137,189.518111 C186.38979,189.931961 186.764186,190.337643 187.18396,190.785693 L203.483659,175.31661 C198.119281,169.082222 192.918876,163.10382 187.846977,157.016847 C183.433786,151.718509 179.218469,146.255348 174.957182,140.832144 C174.694334,140.4972 174.395113,140.144767 174.113818,139.782968 Z M372.775922,150.726117 L372.737895,150.746732 C372.356047,150.934033 371.940194,151.081036 371.509862,151.190374 C363.816759,153.145285 356.078685,154.921386 348.3566,156.764417 C348.247255,156.740294 348.138225,156.716818 348.029714,156.693661 C349.017935,162.974276 349.233919,169.37459 348.994794,175.881885 C348.895469,178.578726 348.772273,181.274768 348.638335,183.970474 C348.816116,183.955821 348.997997,183.945505 349.181675,183.938774 C355.695529,183.702027 362.216378,183.536204 368.71624,183.082689 C371.771295,182.868917 374.787375,182.069771 377.816447,181.516363 C378.704881,181.353537 379.750216,180.720214 380.424787,181.006907 L380.526765,181.050182 C378.800337,171.465315 376.415971,161.967649 373.384268,152.558811 C373.186476,151.945036 372.983683,151.334142 372.775922,150.726117 Z M124.689106,136.313525 L124.64451,136.320266 C125.689844,142.961169 127.154912,151.262297 128.266204,158.194888 C128.400119,159.031993 127.968394,159.852117 127.207878,160.230712 C122.402937,162.620158 118.035717,165.077532 114.07224,169.777509 C119.195978,169.107225 123.251397,168.64372 127.285828,168.030376 C131.951765,167.320522 133.376351,168.064939 134.320412,172.540869 C138.147379,168.347747 142.07013,164.242948 146.095945,160.229352 C147.539108,154.846011 149.035511,149.142774 150.491057,143.825245 C147.68984,145.338628 145.860005,146.946909 144.069145,148.41534 C137.426373,153.86052 136.074234,153.648746 131.52513,146.535349 C129.653321,143.608477 127.719552,140.718566 125.813765,137.812671 C125.813765,137.812671 124.874363,136.185411 124.64451,136.320266 Z M200.514474,117.503508 L200.483062,117.526887 C193.198911,122.79587 186.250297,128.567154 179.551024,134.698628 C180.333351,135.501171 180.989328,136.511866 181.716879,137.384829 C190.776112,148.264201 199.831348,159.146571 208.867596,170.043924 L208.943563,170.137436 C215.992496,163.445991 223.040061,156.753118 230.085027,150.057561 C230.006471,149.979903 229.928671,149.899463 229.850938,149.816342 C220.440928,139.758092 211.130855,129.60794 201.851762,119.428819 C201.340871,118.868169 200.883481,118.206474 200.514474,117.503508 Z M357.724773,121.717806 L357.660693,121.780791 C357.407311,122.015311 357.099135,122.212045 356.737865,122.360386 C350.768639,124.80965 344.724744,127.081128 338.410158,129.51137 C339.629466,132.273086 340.888291,135.015663 342.200119,137.732657 C344.12818,141.726312 345.573762,145.777899 346.629245,149.883852 C346.908273,149.806333 347.195057,149.738314 347.483156,149.674993 C354.887443,148.048732 362.29173,146.420472 369.709008,144.849151 C369.976964,144.792541 370.247373,144.741027 370.516486,144.700224 C367.165171,136.500347 362.871418,128.849623 357.724773,121.717806 Z M247.045692,93.6128103 C242.912324,95.0952259 239.657396,96.1490996 236.487413,97.4167448 C225.82165,101.684226 215.889748,107.081661 206.521963,113.329188 L206.306926,113.095588 C215.9297,123.530453 225.518078,133.998717 235.076933,144.492587 L235.011353,144.59732 C244.716175,129.283687 246.95575,112.207937 247.045692,93.6128103 Z M323.482035,94.0103854 C324.311507,96.1471017 325.858522,99.6143961 326.751953,101.724141 C329.745501,108.794931 332.597133,115.934749 335.59161,123.005842 L335.531365,123.026674 C341.512557,120.932912 347.481757,118.806185 353.479939,116.763368 C353.603459,116.721289 353.727208,116.681914 353.85089,116.645715 C351.641316,113.905865 349.299308,111.247218 346.831171,108.66772 C340.733053,102.294532 334.981715,97.886243 326.640025,94.9843445 C325.637663,94.562795 324.263537,94.3670042 323.482035,94.0103854 Z" id="Stroke" fill="#000"/></g></g><g id="Face" transform="translate(324.000000, 111.000000) scale(1 1)" fill="#000"><g id="Face/Pleased" stroke="none" stroke-width="1" fill="none" fill-rule="evenodd"><path d="M15.289,26.7645 C15.992,27.4995 16.237,28.6585 16.736,29.6055 C18.87,33.6605 19.821,34.0925 24.363,33.0035 C25.792,32.6615 27.566,32.1025 27.877,33.9985 C28.029,34.9185 26.718,36.3905 25.709,37.1055 C25.293,37.4005 24.848,37.5895 24.386,37.7215 C22.672,38.2095 20.823,38.0515 19.179,37.3615 C15.124,35.6605 11.401,31.4875 11.859,27.8595 C11.935,27.2535 12.482,26.3265 12.946,26.2355 C13.689,26.0895 14.81,26.2635 15.289,26.7645 Z M51.8656,12.0665 C53.7236,12.7885 52.9736,14.3975 52.3126,15.7225 C50.3496,19.6615 45.9636,21.5925 41.8076,20.2415 C40.4556,19.8025 38.7926,18.7935 37.1436,17.9945 C37.7156,19.7555 37.3926,20.9685 37.0786,22.2235 C35.8346,27.2055 29.9976,29.3515 25.8846,26.2795 C25.2076,25.7725 24.5756,24.4985 24.8186,23.6325 C25.1286,22.5285 25.7836,22.4145 26.5806,22.4845 C27.5926,22.5725 28.3416,22.8195 29.0486,22.9705 C30.5936,23.3015 32.3706,23.1855 32.4876,21.4455 C32.5766,20.1355 32.6986,18.3105 31.6416,17.5985 C30.4696,16.8085 27.5736,17.1465 26.0576,16.7395 C26.0216,16.7295 25.9856,16.7185 25.9486,16.7065 C24.3666,16.1875 23.8726,14.0095 25.1636,12.9575 C25.2506,12.8865 25.3416,12.8255 25.4396,12.7755 C27.7566,11.5925 32.9626,12.3615 35.4866,14.8885 C36.9436,12.6355 38.2716,12.2575 40.4296,13.9855 C44.6016,17.3275 44.9366,17.1125 48.8136,13.2605 C49.5526,12.5265 51.0986,11.7685 51.8656,12.0665 Z M17.3927,13.8574 C18.2627,14.5184 18.2627,16.0124 17.8747,16.6634 C15.9057,19.9684 13.0497,22.0384 8.9797,21.9144 C5.6287,21.8944 3.0747,20.3084 1.0767,17.7624 C0.1587,16.5934 -0.7323,15.0524 0.9357,14.0304 C1.6227,13.6094 3.1107,14.2844 4.1347,14.7034 C4.7537,14.9574 5.1307,15.7484 5.7077,16.1764 C8.1357,17.9764 10.2687,17.9764 12.6457,16.1424 C13.5007,15.4814 14.1297,14.4754 15.0497,13.9694 C15.7017,13.6114 17.0657,13.6084 17.3927,13.8574 Z" id="Stroke" fill="#000"/></g></g></g></svg>