<svg viewBox="93.72580645161293 144.14999999999998 516.6935483870968 492.51249999999993" xmlns="http://www.w3.org/2000/svg" overflow="visible" xmlns:xlink="http://www.w3.org/1999/xlink" width="516.6935483870968px" height="492.51249999999993px"><g id="Master/Character/Bust" stroke="none" stroke-width="1" fill="none" fill-rule="evenodd"><g id="Frame" transform="translate(71.500000, 134.500000) scale(1 1)"><g id="Frame/Circle" stroke="none" stroke-width="1" fill="none" fill-rule="evenodd"><circle id="Filll" fill="#FFF" cx="254" cy="253" r="228"/><path d="M254,483.5 C126.698365,483.5 23.5,380.301635 23.5,253 C23.5,125.698365 126.698365,22.5 254,22.5 C381.301635,22.5 484.5,125.698365 484.5,253 C484.5,380.301635 381.301635,483.5 254,483.5 Z M254,478.5 C378.540211,478.5 479.5,377.540211 479.5,253 C479.5,128.459789 378.540211,27.5 254,27.5 C129.459789,27.5 28.5,128.459789 28.5,253 C28.5,377.540211 129.459789,478.5 254,478.5 Z" id="Stroke" fill="#000"/></g></g><g id="Head" transform="translate(195.000000, 205.000000) scale(1 1)"><g id="Head/Short 2" stroke="none" stroke-width="1" fill="none" fill-rule="evenodd"><path d="M158.083394,64.0450245 L160.14485,64.0559838 C172.081015,64.1816887 179.556674,65.7847012 179.556674,73.661629 C179.556674,81.9007143 196.343789,69.2320339 196.343789,76.2007285 C196.343789,83.169423 177.375122,92.2895869 173.142929,92.2895869 C170.321466,92.2895869 166.832484,91.4321275 162.675982,89.7172087 C162.355753,89.8801448 162.034247,90.0400505 161.711464,90.1969258 C178.54858,113.09506 184.554728,135.68621 179.730441,157.969875 C178.701421,162.722982 163.088243,165.681395 132.890907,166.845115 L131.033485,166.91378 L133.516589,190.302878 C134.46397,192.453544 135,194.902136 135,197.5 C135,206.060414 129.179702,213 122,213 C115.821567,213 110.649817,207.861014 109.327491,200.972469 L108.533842,200.972567 L108.458037,198.171625 C107.621355,168.402615 106.148629,152.1788 104.03986,149.50018 C79.854786,149.50018 79.854786,137.358858 81.1798049,130.747277 C81.4799339,129.249693 82.4258773,127.952931 83.7370172,126.842852 C82.3295911,127.4597 80.755144,128.195416 79.0148066,129.049221 C64.8979655,116.544786 59.6496322,106.708885 63.2698067,99.5415167 C68.7000684,88.7904648 77.1433365,86.4823543 79.0148066,86.4823543 C80.8862767,86.4823543 79.8390517,61.629205 106.479791,58.5998547 C132.854123,55.6007979 145.312908,63.8791574 158.083394,64.0450245 L158.083394,64.0450245 Z" id="Path" fill="#FFF"/><path d="M175.323807,54.7995655 C175.344807,54.9995655 175.331807,55.1865655 175.269807,55.3565655 C173.476807,60.2225655 169.348807,63.2625655 164.033807,64.7865655 C160.561807,65.7815655 156.897807,65.9395655 153.327807,65.3915655 C145.414807,64.1765655 137.531807,62.7705655 129.633807,61.4575655 C121.541807,60.1125655 113.472807,59.3335655 105.252807,60.7085655 C95.2228066,62.3865655 88.2708066,67.6115655 84.7208066,77.2105655 C84.2168066,78.5725655 82.8128066,81.6665655 82.2968066,83.4185655 C80.6798066,88.9055655 82.4698066,86.5955655 77.5608066,88.7905655 C75.9288066,89.5195655 72.6578066,91.2685655 71.2418066,92.3825655 C63.4678066,98.4995655 62.0648066,106.974566 68.0158066,114.860566 C71.2728066,119.177566 75.3838066,122.852566 79.1378066,126.790566 C79.7228359,127.403182 80.5892918,127.792285 81.0777939,128.445094 C81.419045,127.944624 81.8103514,127.459674 82.2498407,126.993015 C86.2828407,122.710015 91.2598407,120.287015 97.1298407,119.916015 C97.9715513,119.862769 98.6221744,119.853223 99.1509804,119.935049 C99.1769638,119.893904 99.2042185,119.854837 99.2287066,119.820266 C103.587707,113.662266 103.222707,106.478266 103.703707,99.4692655 L103.704707,99.4482655 C103.838707,97.7832655 106.032707,97.2402655 107.080707,98.5422655 C107.360707,98.8892655 107.537707,99.2042655 107.558707,99.5302655 C108.009707,106.802266 107.864707,114.027266 103.817707,120.509266 C103.348707,121.260266 102.740707,122.022266 102.009707,122.480266 C101.927293,122.531835 101.829034,122.577492 101.720783,122.616376 C101.864336,123.27571 101.41684,123.955425 100.712841,124.057015 C99.8268407,124.185015 98.9818407,124.299015 98.1388407,124.291015 C94.1318407,124.253015 90.6948407,125.752015 87.5628407,128.066015 C84.4108407,130.397015 82.7568407,133.409015 83.4178407,137.481015 C84.1158407,141.778015 86.1528407,145.101015 90.4668407,146.292015 C93.2248407,147.053015 96.1658407,147.219015 99.0408407,147.473015 C100.992841,147.645015 102.971841,147.505015 105.452841,147.505015 C105.846841,149.741015 106.391841,151.805015 106.549841,153.899015 C107.391841,165.128015 109.589597,186.677083 110.290597,197.916083 C110.403597,199.730083 111.631597,202.613083 108.936597,203.014083 C105.807597,203.481083 106.171597,200.348083 106.015597,198.316083 C105.222597,187.994083 103.110841,167.350015 102.365841,157.025015 C102.262841,155.591015 102.087841,154.162015 101.886841,152.128015 C98.7218407,151.928015 96.0138407,151.896015 93.3438407,151.563015 C84.1658407,150.422015 78.8868407,144.368015 79.0018407,135.420015 C79.0191774,134.043224 79.206374,132.744747 79.5842218,131.526626 C79.3809148,131.578272 79.1866168,131.594292 79.0148066,131.563566 C78.0158066,131.385566 76.9448066,130.768566 76.2198066,130.027566 C72.2858066,126.011566 68.0368066,122.211566 64.6598066,117.757566 C56.9398066,107.576566 59.0088066,95.7245655 69.4088066,88.2635655 C71.0218066,87.1055655 72.7178066,85.8975655 74.5948066,85.3005655 C77.9648066,84.2275655 77.6188066,83.8815655 78.3598066,81.0715655 C79.3718066,77.2315655 81.3888066,73.6925655 83.2928066,70.2105655 C85.8668066,65.5035655 89.7818066,61.7375655 94.6138066,59.3985655 C98.4608066,57.5365655 102.766807,56.8915655 106.921807,56.1355655 C109.742807,55.6225655 112.609807,55.4345655 115.474807,55.4765655 C117.131807,55.5005655 118.787807,55.6035655 120.433807,55.7655655 C125.113807,56.2255655 129.727807,57.1635655 134.317807,58.1645655 C138.654807,59.1095655 143.162807,59.5685655 147.566807,60.2395655 C151.659807,60.8635655 155.857807,61.2445655 159.982807,61.0855655 C164.535807,60.9095655 168.337807,58.7765655 170.824807,54.7315655 C171.109807,54.2675655 171.344807,53.6385655 171.772807,53.4255655 C171.997807,53.3125655 172.231807,53.2165655 172.470807,53.1295655 C173.726807,52.6725655 175.183807,53.4705655 175.323807,54.7995655 Z M182.184607,70.2457655 C182.573607,70.4607655 182.686607,71.5507655 182.579607,72.1887655 C182.466607,72.8587655 182.050607,73.5567655 181.581607,74.0737655 C176.495968,79.6717339 171.207078,85.227518 165.018375,89.6133189 C166.126955,90.6247472 167.258256,91.7007752 167.704741,92.3455145 C180.693741,111.101515 187.398741,131.430515 182.901741,154.475515 C182.693741,155.541515 182.307741,156.573515 182.099741,157.639515 C181.392741,161.257515 179.300741,163.215515 175.617741,163.992515 C163.528741,166.539515 151.400741,168.675515 139.002741,168.824515 C137.207741,168.845515 135.411741,168.827515 132.917741,168.827515 C133.880741,172.969515 134.755741,176.566515 135.542741,180.184515 C135.830741,181.504515 138.883144,200.886821 137.713144,201.130821 C135.869144,201.516821 133.811144,201.663821 133.723144,199.281821 C133.624144,196.639821 131.523741,180.843515 130.920741,178.233515 C130.639741,177.014515 127.197741,175.290515 124.913741,172.993515 C123.269741,171.339515 121.911741,169.332515 120.754741,167.297515 C120.230741,166.376515 119.306741,164.076515 119.714741,163.111515 C119.937741,162.580515 122.493741,163.094515 123.426741,163.265515 C132.994741,165.016515 142.588741,164.868515 152.157741,163.543515 C159.336741,162.549515 166.459741,161.154515 173.616741,159.982515 C176.277741,159.546515 177.592741,158.076515 178.180741,155.416515 C180.533741,144.767515 180.179512,134.982781 177.578741,123.676515 C174.97797,112.370248 168.182135,101.215515 161.202135,92.3455145 L161.062353,92.1678154 C153.277191,96.6829704 144.170756,98.9139544 135.239607,99.4837655 C135.083607,99.4937655 134.927607,99.5027655 134.771607,99.5097655 C133.169607,99.5847655 131.604607,99.5217655 129.998607,99.3747655 C127.988607,99.1897655 122.949607,98.7667655 123.063607,95.8157655 C123.138607,93.8907655 124.967607,94.3277655 126.449607,94.3517655 C131.513607,94.4347655 136.628607,94.8037655 141.635607,94.2567655 C148.389591,93.5172833 154.51121,91.1993352 160.04669,87.6675977 C160.281576,87.3712072 160.604968,87.1671011 160.959037,87.0682708 C163.006238,85.6996017 164.971043,84.1616506 166.856607,82.4757655 C170.369607,79.3357655 173.644607,75.9307655 177.024607,72.6427655 C177.930607,71.7607655 178.713607,70.6777655 179.769607,70.0527655 C180.361607,69.7027655 181.517607,69.8787655 182.184607,70.2457655 Z M199.016207,74.1716655 C201.411207,76.0866655 198.942207,78.1666655 197.573207,79.5396655 L196.831459,80.281599 C190.516612,86.5751974 183.915225,92.4903259 174.608207,94.1136655 C172.385207,94.5006655 170.367207,94.6076655 169.144207,92.5546655 C168.696207,91.8016655 168.908207,90.7786655 169.649207,90.3106655 C169.743207,90.2506655 169.827207,90.2176655 169.911207,90.2156655 C180.434207,89.9496655 187.445207,83.3856655 194.365207,76.6416655 C195.704207,75.3366655 196.934207,72.5076655 199.016207,74.1716655 Z" id="Stroke" fill="#000"/></g></g><g id="Body" transform="translate(28.000000, 319.000000) scale(1 1)"><g id="Body/Computer" stroke="none" stroke-width="1" fill="none" fill-rule="evenodd"><path d="M267.48354,81.764519 L239.446984,85.8799087 L196.245878,106.78899 L178.220343,130.762501 L162.528379,168.344062 L151.078176,210.502705 L144,234.287858 L146.406178,257.551606 L152.1312,275.081705 L175.914564,286.293977 L220.243778,286.293977 L253.891112,284.453318 L263.198064,290.34936 L278.411452,297.498099 L311.740599,303 L357.330499,303 L409.408178,287.436696 L411.545537,276.479035 L448.011297,254.814453 L507.192801,215.177362 L503.443805,201.155998 L565.550433,180.854961 L569,174.195803 L564.584226,171.709697 L565.550433,165.441717 L558.729888,162.825666 L556.477795,154.397053 L522.878743,164.312058 L527.939814,152.701646 L524.930064,149.610092 L491.159033,173.398974 L477.784145,165.441717 L431.675848,179.713934 L427.429421,172.074261 L416.831216,140.777405 L398.19894,110.686571 L373.547203,90.0379536 L347.441038,83.0459132 L307.825299,79.0133451 L302.973869,77.3032274 C287.843042,76.7021322 278.14528,76.9947115 273.880584,78.1809652 C269.615888,79.367219 267.48354,80.5617369 267.48354,81.764519 Z" id="Fill" fill="#FFF"/><path d="M298.8163,80.0255 C316.2173,81.1265 333.6283,82.1315 351.0073,83.5305 C361.0173,84.3365 369.9973,88.3255 377.9703,94.3665 C389.7683,103.3035 399.9373,113.7175 408.6803,125.8115 C418.4173,139.2775 425.4013,153.7835 429.6603,169.7315 C429.8433,170.4155 430.1783,171.0585 430.6613,172.2705 C432.6983,171.5245 434.5893,170.8945 436.4483,170.1075 C447.3433,165.4975 458.2713,160.9525 469.4023,156.9465 C479.5673,153.2895 477.8433,152.1355 486.8053,159.9415 C487.6193,160.6505 488.4063,161.3875 489.6913,162.5515 C493.4563,159.3815 497.2373,156.3515 500.8423,153.1255 C504.7683,149.6105 508.4243,145.7905 512.4083,142.3465 C514.5783,140.4715 517.1093,138.9685 519.6203,137.5505 C521.4353,136.5265 523.5093,136.3645 525.2233,137.9175 C527.0263,139.5505 527.3603,141.6755 526.6443,143.9195 C526.0953,145.6405 525.3593,147.3015 524.3453,149.9245 C527.5283,148.8225 530.1583,148.0265 532.6983,147.0055 C536.9543,145.2945 541.1423,143.4165 545.3773,141.6525 C546.4253,141.2155 547.4963,140.8355 548.5923,140.5415 C554.7753,138.8845 558.0513,140.7565 557.3603,146.7755 C558.4033,147.0875 560.8863,147.2105 561.9113,147.8335 C563.2463,148.6445 564.8873,150.1425 565.1893,151.3895 C565.5853,153.0275 564.5753,156.7355 564.5753,156.7355 C567.5623,157.5665 567.6863,158.0575 568.6523,159.3485 C569.1273,159.9835 569.4473,160.7445 569.439447,161.5385 C569.4313,162.3435 569.1203,162.8265 568.8793,163.5955 C567.5043,167.9645 564.1443,170.1015 560.0553,171.7705 C544.2613,178.2155 528.5523,184.8635 512.8273,191.4765 C511.1693,192.1735 509.6223,193.1335 507.8003,194.0885 C508.9373,197.3925 509.9373,200.6225 511.1723,203.7595 C511.9053,205.6235 511.3703,206.9345 509.9943,208.0805 C507.8993,209.8245 505.8173,211.5915 503.6393,213.2285 C481.5533,229.8185 459.5273,246.4905 437.2983,262.8865 C431.3493,267.2745 424.7663,270.7995 418.3053,274.8255 C418.4153,276.6085 419.0483,278.7185 418.5453,280.5095 C417.6373,283.7465 416.1263,286.4275 412.5723,288.2215 C391.3733,298.9195 368.9613,304.9425 345.3913,307.3525 C324.1003,309.5295 302.8963,309.9135 282.0183,304.7515 C272.3673,302.3645 263.0523,298.6035 253.6213,295.3595 C251.5233,294.6375 249.6633,294.2585 247.3543,294.8155 C231.4173,298.6545 215.2393,301.1545 198.8423,301.1615 C190.9123,301.1645 182.8063,300.4675 175.0893,298.7195 C159.7713,295.2485 149.2273,282.0855 147.5213,265.2515 C146.3823,254.0145 147.1423,242.8405 149.4863,231.7435 C152.6013,216.9985 155.2823,202.1615 158.4163,187.4205 C161.7503,171.7385 167.0283,156.6815 173.4093,141.9685 C179.6123,127.6695 189.2753,116.5565 202.3123,108.0835 C215.6993,99.3815 229.9883,92.9745 245.5133,89.1915 C250.4133,87.9975 255.1253,86.0305 259.9213,84.4145 C261.2963,83.9505 262.6383,83.3405 264.0473,83.0325 C267.0093,82.3845 267.9853,83.0085 268.5853,86.0295 C269.3963,90.1095 270.0543,94.2185 270.8323,98.6195 C279.6473,101.6125 287.0493,99.6825 294.3823,94.7505 C293.8523,90.9955 293.3203,87.2215 292.7373,83.0855 C292.5333,81.6445 293.5753,80.3195 295.0243,80.1845 C296.4073,80.0545 297.6173,79.9495 298.8163,80.0255 Z M401.1633,223.0875 C400.7543,227.5865 396.8013,231.8985 401.0223,235.0405 C399.6333,237.9635 400.2753,241.1685 399.8043,243.8525 C398.9713,248.5955 396.4643,250.8265 391.8833,251.2625 C389.3663,251.5025 386.9913,251.7195 385.5633,254.5895 C384.9313,255.8585 382.7603,256.3595 381.1173,257.3075 C380.1873,255.6815 379.5973,254.6515 378.9773,253.5685 C373.4273,254.4385 368.0603,255.2795 363.2673,256.0315 C359.6463,260.3165 359.4403,267.6185 351.4313,266.3395 C351.0013,266.2715 350.4513,266.7725 349.9973,267.0685 C338.7413,274.4285 326.1983,275.6205 313.3283,274.1485 C306.1213,273.3235 299.7683,274.6325 293.0903,275.9265 C289.1373,276.6925 290.2083,280.1175 290.3233,282.4795 C290.4953,285.9755 289.2233,289.6545 292.1883,292.7215 C292.6743,293.2235 292.2133,294.6395 292.1903,295.6325 C291.0573,295.4765 289.7163,295.6445 288.8443,295.0825 C287.7163,294.3565 286.9623,293.0475 286.0973,292.0475 C283.5943,292.8055 281.3353,293.4535 279.1003,294.1775 C276.8033,294.9225 274.5303,295.7415 272.2473,296.5275 C274.0573,298.1085 275.8743,298.7865 277.7353,299.3115 C279.6293,299.8455 281.5663,300.2285 282.4773,300.4425 C284.9783,299.1465 286.5903,298.3115 288.2023,297.4765 C288.6543,298.8945 289.1053,300.3115 289.7413,302.3095 C325.3563,307.1155 360.2973,304.0595 395.6743,291.2185 C393.7683,289.7045 392.6503,289.0735 391.9063,288.1435 C391.3223,287.4115 390.7183,286.1115 391.0013,285.4265 C391.3153,284.6665 392.6473,283.8625 393.4973,283.9015 C394.6393,283.9555 395.9073,284.5995 396.8253,285.3525 C398.0573,286.3615 399.0053,287.7175 400.2813,289.1565 C404.2353,287.2335 408.1383,285.3325 412.0443,283.4355 C414.1293,282.4225 414.7693,280.8835 414.3603,278.5465 C413.2643,272.2925 412.3463,266.0075 411.4173,259.7265 C410.9373,256.4775 410.2753,253.6705 407.0713,251.5785 C403.5143,249.2565 403.8433,247.3355 407.2393,244.3885 C407.6273,244.0515 407.8693,243.5475 408.3453,242.8915 C406.7033,237.0675 405.0383,231.1395 403.3463,225.2185 C403.2023,224.7155 400.7313,218.8385 401.1633,223.0875 Z M349.1536,291.3567 C349.8616,292.0157 351.2706,292.8727 351.1506,293.2987 C350.7256,294.7987 349.7776,296.1517 348.4736,298.6017 C347.2866,296.5037 346.0836,295.2787 346.3406,294.6457 C346.8566,293.3777 348.1696,292.4347 349.1536,291.3567 Z M332.2371,292.9455 C333.0841,292.9875 333.8721,294.2125 335.1011,295.2765 C333.7541,296.2025 332.6831,297.3425 332.2761,297.1405 C331.2051,296.6095 330.4241,295.4955 329.5271,294.6135 C330.4331,294.0095 331.3631,292.9025 332.2371,292.9455 Z M306.2953,84.6175 C305.1403,87.1675 304.1793,89.2885 303.2103,91.4285 C303.6973,92.1475 304.2013,92.6985 304.4853,93.3455 C305.8513,96.4645 304.1443,99.4515 301.0813,98.5655 C297.9073,97.6465 296.0203,99.0535 293.7193,100.3625 C279.8913,108.2345 264.9933,103.9245 257.6873,94.4895 C255.9963,92.3055 254.0383,91.6775 251.5053,92.3225 C249.9273,92.7245 248.3583,93.1595 246.6583,93.6145 C246.3983,94.2865 246.1733,94.9575 245.8843,95.5995 C244.5033,98.6635 242.9633,99.4955 240.6123,97.4715 C238.0223,95.2415 236.1183,96.3415 234.4883,97.0545 C233.5223,99.4145 233.2913,101.9145 232.0013,102.7235 C229.4243,104.3385 229.0623,100.3895 226.6243,99.4095 C219.9943,103.1055 213.1703,106.8605 206.4093,110.7245 C205.1983,111.4165 203.6433,112.4085 203.3523,113.5445 C203.0903,114.5705 204.4533,115.9465 204.8793,117.2415 C205.1323,118.0125 205.2683,119.4575 204.9133,119.6645 C204.1263,120.1215 202.7453,120.4155 202.0583,120.0105 C200.5883,119.1445 199.4043,117.7915 198.0423,116.5845 C196.9083,117.5065 195.8893,118.2645 194.9513,119.1125 C193.6043,120.3315 192.4183,121.7505 190.9793,122.8405 C189.5363,123.9355 187.4313,126.1735 187.8043,127.0455 C188.1873,127.9385 189.3043,128.9695 189.6243,129.9715 C189.6313,129.9945 189.6363,130.0275 189.6403,130.0695 C189.7363,131.2085 188.5163,132.0165 187.4663,131.5655 C186.4753,131.1385 185.4283,130.6055 184.7823,130.6055 C184.3963,131.0475 184.2543,131.1715 184.1603,131.3235 C174.4333,147.1305 168.8273,164.5685 164.1013,182.3365 C163.7843,183.5275 164.3693,185.0965 164.8833,186.3475 C166.8493,191.1375 165.6273,194.4935 160.7683,196.8295 C160.4953,198.6675 160.2083,200.5975 159.9663,202.2275 C161.5933,204.2435 165.7453,203.2875 164.9063,206.7515 C164.1693,209.7965 160.9063,208.1655 158.3613,209.0415 C156.4743,219.8465 154.5733,230.9065 152.6033,241.9545 C151.2223,249.6975 150.6643,257.4695 151.8623,265.2715 C153.4023,275.2995 157.4623,283.9015 165.8783,289.9145 C169.3723,287.8525 173.4393,288.2845 176.1833,285.3625 C176.6733,284.8405 178.4673,285.5425 179.4913,285.6595 C181.4083,292.1635 179.3473,292.4015 173.0073,293.4795 C176.8653,296.4555 192.5693,297.8185 197.5773,295.8095 C196.4423,294.9385 195.0003,294.3125 194.4073,293.2245 C194.1423,292.7385 194.2073,292.0745 194.3333,291.3765 C194.4963,290.4755 195.3363,289.8475 196.2433,289.9775 C196.8123,290.0585 197.3713,290.1655 197.8913,290.3705 C198.7443,290.7065 199.5543,292.0845 200.1623,291.9555 C203.7463,291.1965 205.1163,293.1575 205.6163,296.3365 C214.0993,296.5925 224.5653,294.9925 232.5963,293.5535 C233.4833,293.3945 231.5833,290.0075 234.1153,288.4885 C236.8763,287.5485 235.6043,288.9585 239.1003,290.9365 C239.9373,291.4095 241.0743,291.7145 241.9343,291.5275 C246.8723,290.4505 252.9613,288.9315 258.1133,287.6655 C257.9503,284.3655 258.8933,281.5295 262.1293,281.3775 C264.0523,281.2875 266.0553,282.8975 268.0233,283.7435 C267.9683,284.0475 267.9133,284.3525 267.8593,284.6565 C269.6653,283.9865 271.4713,283.3175 273.2763,282.6475 C272.6243,279.2535 272.5253,276.4405 276.0793,275.0035 C276.5853,274.7985 277.0793,273.8805 277.0993,273.2765 C277.2003,270.1535 277.1463,267.0255 277.1463,263.8035 C274.9373,264.8655 273.2693,266.3525 271.8553,266.1415 C270.5913,265.9525 269.6073,263.8905 268.3603,262.4995 C260.7753,262.8585 252.9803,263.2505 245.1823,263.5835 C243.7693,263.6445 240.5493,263.2975 239.2213,263.5345 C237.8553,263.7795 238.6613,265.7885 237.4243,267.0425 C235.4183,269.0745 233.4893,267.4545 233.0923,262.9845 C232.7783,262.2145 231.9793,262.1935 231.3693,261.9085 C227.5083,260.1005 226.8003,256.5015 226.0153,252.9365 C225.0433,248.5195 224.1393,244.0875 223.1463,239.3755 C221.6753,239.0815 220.2813,238.5545 218.8973,238.5765 C215.4503,238.6315 212.0103,239.0215 208.5623,239.1105 C206.5203,239.1635 203.4733,239.9535 203.2733,237.0185 C203.0743,234.1075 206.1683,235.0485 207.9203,234.8785 C212.5573,234.4255 217.2183,234.2175 221.8613,233.9135 C221.4053,227.0305 221.3243,227.0075 215.0843,226.7495 C214.3643,226.7195 213.6553,226.4315 212.9523,226.1265 C212.2153,225.8065 211.7333,225.0815 211.7173,224.2785 C211.6823,222.4925 211.6113,220.9025 211.8053,219.3445 C211.9213,218.4155 212.6733,217.0135 213.3853,216.8395 C214.4263,216.5855 216.0063,216.8935 216.7823,217.5955 C217.8863,218.5945 218.6403,221.1085 219.4453,222.4385 C219.8843,222.2855 220.0983,222.6735 220.5363,222.5225 C219.4703,214.7645 217.9003,205.7445 216.8683,198.2435 C215.2073,196.4495 211.3713,198.0125 211.7193,194.8835 C211.9063,193.2035 214.0913,191.7445 215.6623,189.8365 C215.4053,187.5485 215.4873,186.3505 214.6183,181.8375 C213.3533,171.2725 213.5023,169.9875 212.5573,164.3455 C211.8953,157.9295 211.3573,157.5085 211.0663,152.9845 C210.8063,148.9525 209.4503,144.9515 209.8633,140.7875 C210.0053,139.3425 211.0083,138.1225 212.3883,137.6715 L215.8523,136.5375 C215.8803,131.0945 216.1343,129.4505 218.2003,129.3275 C219.4143,129.2555 220.4963,130.2525 220.4503,131.4675 C220.4413,131.7155 220.4543,131.9585 220.5063,132.1935 C220.8303,133.6565 221.0903,135.9085 222.0113,136.2885 C223.4683,136.8875 227.0903,136.2825 228.8303,136.0235 C229.2133,135.9655 227.9933,133.5165 228.4103,133.3955 C229.6423,133.0385 231.4163,133.7275 231.8863,134.2405 C234.0883,136.6485 236.7983,136.0315 239.4233,136.0385 C243.1183,136.0475 246.8193,135.9945 250.5023,135.6905 C257.0253,135.1515 258.7883,135.6665 258.0453,132.7765 C257.6373,131.1915 260.7613,130.6645 261.5323,132.2945 C262.9513,135.2915 265.2313,134.6115 267.4793,134.4485 C270.1953,134.2515 277.2013,133.4225 279.9143,133.3955 C283.6523,133.3585 281.9463,132.4875 284.2343,129.0945 C284.3083,128.9855 285.1423,128.8745 285.9523,128.7915 C286.7243,128.7135 287.4393,129.1345 287.8123,129.8145 C288.9593,131.8995 290.6003,132.5605 290.6003,132.5605 C293.4773,132.2045 298.7723,131.6525 301.2123,131.4005 C303.2033,129.0895 304.8113,126.9645 306.7243,125.1645 C307.2683,124.6525 308.9663,124.7095 309.6473,125.1925 C310.3063,125.6595 310.6633,127.0475 310.5603,127.9645 C310.4453,128.9895 309.6633,129.9405 309.0313,131.2055 C310.6833,131.1185 311.7853,131.1635 312.8503,130.9855 C316.6283,130.3555 320.6753,131.2965 323.9773,128.0295 C325.5083,126.5155 328.0533,127.3025 330.1013,128.5225 C331.3863,129.2885 332.9403,130.0815 334.3613,130.0605 C341.2623,129.9625 348.1643,129.6825 355.0523,129.2485 C356.4863,129.1585 357.8643,128.1525 359.2633,127.5555 C360.8703,126.8705 362.5043,125.5955 364.0623,125.6855 C365.0493,125.7425 365.9193,127.8235 366.7533,128.8855 L377.5383,128.8855 C377.7583,126.7995 378.1483,124.9025 378.1043,123.0155 C378.0553,120.8805 379.0803,119.8245 380.9663,119.9685 C382.9723,120.1225 383.4603,121.3975 383.0673,123.4765 C382.7353,125.2305 383.2063,127.1375 383.3313,129.1295 C388.6073,128.6915 393.3223,130.3005 397.8483,127.7715 C398.7743,127.2535 400.5463,128.0395 401.8473,128.4685 C402.9333,128.8275 403.8993,129.5505 404.9203,130.1095 C405.2493,129.7425 405.2083,129.7875 405.5373,129.4215 C403.8843,126.9365 402.2313,124.4525 400.8263,122.3405 C398.4013,122.0495 396.1173,122.4025 394.6583,121.4675 C391.8283,119.6545 395.4013,117.9265 395.5443,116.2695 C392.6923,112.9755 390.3853,109.4815 385.3903,110.2755 C384.4103,110.4315 383.2213,109.2695 381.8583,108.5775 C382.5153,107.0755 383.0493,105.8555 383.7893,104.1625 C378.6983,100.4995 373.6163,96.8425 367.4233,92.3875 C367.4233,95.3225 367.6133,96.8875 367.3603,98.3775 C367.1743,99.4755 366.6393,100.7935 365.8103,101.3925 C365.3573,101.7195 363.5343,101.0275 363.0983,100.3205 C362.2043,98.8735 361.4893,97.1365 361.3423,95.4625 C361.2123,93.9865 361.9563,92.4355 362.3503,90.7625 C360.9263,90.2495 359.7713,89.7315 358.5623,89.4225 C356.6383,88.9325 354.6783,88.5835 353.6123,88.3595 C350.8843,89.7785 348.9713,91.3995 346.8593,91.7245 C343.7693,92.1995 342.8483,89.4865 342.5753,86.9485 C330.2273,86.1555 318.3023,85.3895 306.2953,84.6175 Z M381.2991,288.695 C382.0831,288.762 382.7871,289.765 383.9741,290.694 C382.9221,291.829 382.2191,293.216 381.4021,293.288 C380.6111,293.357 379.1861,292.21 378.9551,291.351 C378.5321,289.775 379.6231,288.552 381.2991,288.695 Z M220.4517,283.4107 C221.7007,285.2407 222.9057,287.1017 224.4527,289.4347 C221.8827,292.4107 221.5147,292.4997 219.2177,290.6157 C216.2377,288.1717 214.9837,284.7067 216.3967,282.8207 C217.3627,281.5297 219.3507,281.7987 220.4517,283.4107 Z M300.5088,279.7712 C301.5698,280.1212 302.1848,280.1992 302.2018,280.3482 C302.5948,283.7132 306.9258,285.5342 305.8188,289.3972 C305.5658,290.2812 304.7528,291.2252 303.9418,291.6352 C303.5408,291.8382 302.2038,291.0632 301.9008,290.4352 C300.7398,288.0412 299.5808,285.5862 298.9518,283.0232 C298.7238,282.0932 299.9818,280.7972 300.5088,279.7712 Z M315.6289,280.1891 C316.7759,281.6821 317.9499,282.5461 317.8369,283.1821 C317.4209,285.5231 318.3869,286.8191 320.1879,288.0751 C320.7669,288.4781 321.1009,290.2411 320.7129,290.7611 C320.2619,291.3661 318.7959,291.6651 317.9459,291.4391 C315.1439,290.6921 312.5409,287.0971 313.0559,284.4841 C313.3169,283.1561 314.4969,282.0091 315.6289,280.1891 Z M328.7197,282.8547 C329.6047,284.5627 330.4957,285.6567 330.6477,286.8457 C330.7227,287.4277 329.5037,288.6347 328.7317,288.7707 C327.1377,289.0507 325.5947,287.1417 326.1097,285.5517 C326.3727,284.7357 327.4007,284.1677 328.7197,282.8547 Z M206.448,285.0049 C206.296,285.5599 205.842,286.0329 205.231,286.6779 C204.679,287.2609 203.737,287.2179 203.239,286.5869 C202.576,285.7469 202.027,285.0509 201.809,284.2619 C201.663,283.7369 202.766,282.4049 203.517,282.1899 C205.023,281.7609 206.846,283.5529 206.448,285.0049 Z M385.0587,279.5214 C385.5347,280.2534 385.7207,281.5164 385.4207,282.3334 C384.9357,283.6524 383.9577,284.7894 383.0987,286.1444 C380.6687,286.1444 378.1817,286.2704 375.7147,286.1054 C373.6967,285.9704 372.4727,283.7474 373.1257,281.6034 C373.7947,279.4094 375.4417,279.6264 377.0867,280.2654 C377.8877,280.5774 378.5957,281.1294 379.3867,281.5954 C380.5997,280.7434 381.5567,279.8494 382.6887,279.3624 C383.3717,279.0674 384.7867,279.1034 385.0587,279.5214 Z M242.952,279.4977 C244.585,280.3347 245.055,281.5597 244.291,283.9137 C243.939,284.9957 242.719,285.5307 241.7,285.0257 C240.022,284.1947 238.653,283.3687 239.458,280.8837 C239.969,279.3097 241.299,278.6517 242.952,279.4977 Z M344.8028,276.4215 C346.9788,276.7645 349.1608,277.3485 351.1868,278.2005 C351.9248,278.5115 352.6738,279.8925 352.6058,280.7175 C352.5388,281.5205 351.5588,282.4535 350.7448,282.9265 C350.0388,283.3395 349.0048,283.1885 346.8628,283.4255 C345.8458,282.7745 343.8688,281.7445 342.2278,280.3255 C341.6758,279.8475 341.5618,278.1015 342.0048,277.4445 C342.4678,276.7575 343.9048,276.2795 344.8028,276.4215 Z M226.6387,275.5337 C227.1527,275.5777 227.6447,275.8837 228.2447,276.3527 C229.4497,277.2927 229.3077,279.1587 227.9627,279.8837 C226.9837,280.4127 226.1897,280.8007 225.3507,281.0187 C224.8747,281.1417 223.4097,279.7477 223.4427,279.1017 C223.5367,277.2377 224.3977,275.3417 226.6387,275.5337 Z M359.6327,275.5703 C360.6027,275.6413 361.5037,276.6473 363.3267,277.8273 C361.3787,278.7913 360.2477,279.8323 359.4287,279.6283 C358.5267,279.4033 357.9097,278.0333 357.1687,277.1613 C357.9937,276.5883 358.8547,275.5123 359.6327,275.5703 Z M256.0346,268.2 C257.1596,268.486 258.6456,268.939 259.1006,269.794 C259.4966,270.538 258.9776,272.162 258.3346,272.983 C257.1306,274.521 255.5446,275.759 253.4546,277.755 C252.5986,277.654 250.8886,277.452 248.9506,277.224 C249.0326,275.963 248.7656,274.852 249.2026,274.305 C250.7016,272.429 252.4066,270.709 254.1256,269.024 C254.6026,268.556 255.4916,268.062 256.0346,268.2 Z M404.8101,269.1328 C405.9791,269.6868 406.6471,271.2978 407.9981,273.0358 C406.4591,274.3278 405.3841,275.2298 404.3091,276.1318 C403.5151,275.0598 402.2621,274.0788 402.0281,272.8958 C401.6221,270.8428 403.4911,268.5068 404.8101,269.1328 Z M390.2754,269.9723 C391.6584,271.3313 392.8324,272.1183 393.3564,273.2133 C393.5244,273.5633 392.0694,275.2503 391.1824,275.4233 C389.4994,275.7513 387.7024,275.0603 387.7344,272.9973 C387.7484,272.1543 389.0784,271.3333 390.2754,269.9723 Z M237.1191,269.9211 C237.5081,269.9631 237.8781,270.1761 238.3311,270.5011 C239.3311,271.2201 239.3611,272.6941 238.3891,273.4501 C237.6001,274.0641 236.9261,274.5371 236.1821,274.7161 C235.4451,274.8931 233.8391,273.8421 233.5621,273.0261 C233.0641,271.5591 235.1981,269.7121 237.1191,269.9211 Z M183.6141,267.4604 C184.1761,268.8884 184.6141,270.3654 185.1201,271.9904 C185.3901,272.8544 185.0241,273.8124 184.2191,274.2254 C182.6581,275.0274 181.4961,274.0394 180.5001,272.6514 C179.1061,270.7084 179.1591,267.8524 180.5901,266.7514 C181.7581,265.8534 183.0091,265.9224 183.6141,267.4604 Z M160.2593,259.2766 C160.9203,259.4786 161.6893,260.4406 161.7913,261.1576 C162.0843,263.2246 162.0653,265.3356 162.1693,267.4286 C162.4633,267.5926 162.7573,267.7556 163.0513,267.9196 C162.0553,268.9526 161.1073,270.7496 160.0503,270.8156 C158.8463,270.8906 156.4673,269.4056 156.479255,268.6276 C156.5243,265.7176 157.2483,262.7966 157.9613,259.9416 C158.0673,259.5196 159.5873,259.0736 160.2593,259.2766 Z M355.6813,256.8645 C347.7403,257.4565 340.7253,257.9795 333.5173,258.5165 C332.8553,261.4285 331.4883,263.9625 328.4763,264.3215 C323.2913,264.9405 318.0553,265.2455 312.8333,265.3845 C311.5843,265.4185 310.5313,264.9895 310.1923,263.9325 C309.7733,262.6245 310.8923,261.3145 312.2663,261.3225 C314.0623,261.3345 315.9213,261.3495 317.7783,261.3015 C320.2313,261.2375 328.6013,262.3985 329.1353,258.9225 L325.1443,259.2615 C310.9783,260.2525 296.8123,261.2435 282.4853,262.2455 L282.4853,267.3695 C291.1773,267.9905 299.4823,268.5895 307.7873,269.1765 C313.0273,269.5465 318.2633,270.0725 323.5093,270.2205 C334.3023,270.5265 343.7343,266.6825 352.2083,260.2375 C353.2683,259.4305 354.1403,258.3755 355.6813,256.8645 Z M371.0217,259.2914 C373.7447,259.7244 373.7867,262.1604 374.4307,264.4074 C372.0797,266.3404 368.7057,265.1294 367.6867,268.2884 C367.5727,268.6444 365.8157,268.9404 365.2797,268.5804 C364.5057,268.0594 363.7667,266.9484 363.6877,266.0304 C363.4377,263.1634 368.1257,258.8304 371.0217,259.2914 Z M403.4161,258.9542 C404.3741,260.7432 404.6221,263.0082 404.7491,265.0922 C404.7891,265.7412 403.4341,266.4762 402.7181,267.1722 C402.0441,266.4772 401.0781,265.8952 400.7571,265.0642 C400.0031,263.1102 399.5571,261.0372 398.8711,258.6042 C400.6521,256.6002 402.5421,257.3222 403.4161,258.9542 Z M389.6159,260.2176 C390.1509,261.1816 391.3169,261.7936 392.1919,262.5706 C392.8259,263.1346 393.4509,263.7086 394.4419,264.6056 C393.4419,265.4376 392.5309,266.6896 392.0079,266.5446 C389.6469,265.8896 387.1709,265.1726 385.1709,263.8306 C383.3689,262.6206 383.6529,259.8156 385.3369,258.6976 C387.3329,257.3736 388.5569,258.3116 389.6159,260.2176 Z M208.9547,258.1692 C209.9927,260.4232 209.0707,262.3892 207.5637,264.0202 C206.3537,265.3312 204.8757,265.7922 203.2647,263.7902 C204.0557,261.4332 204.7707,259.3002 205.5027,257.1162 C207.0097,256.2062 208.2377,256.6122 208.9547,258.1692 Z M407.3153,132.9505 C406.8143,141.2815 406.3603,148.8345 405.8863,156.7325 C410.9943,158.6245 411.5213,160.3695 407.7503,163.3125 C405.9043,164.7535 405.3033,166.2075 405.2423,168.2795 C405.1783,170.4585 404.9513,172.6325 404.9153,174.8115 C404.8803,176.9065 404.5233,178.8155 406.9873,180.4415 C409.1543,181.8705 409.0023,185.9695 406.9393,187.7285 C401.6423,192.2445 403.2923,198.3685 404.0543,203.4405 C404.9393,209.3255 408.1973,214.8585 410.4493,220.5335 C413.9323,229.3045 417.4753,238.0525 420.9143,246.8405 C422.6833,251.3605 424.2813,255.9465 425.9883,260.5905 C430.7713,257.4555 430.7713,257.4555 434.7583,259.7735 C434.9563,256.8265 435.0713,254.1815 435.3473,251.5535 C435.4333,250.7415 435.8203,249.4315 436.3103,249.3085 C437.1923,249.0865 438.4573,249.3115 439.1983,249.8505 C440.4353,250.7525 441.3863,252.0475 442.6913,253.4225 C450.1793,247.8485 457.2683,242.5725 463.6303,237.8375 C463.6303,235.3115 462.9563,233.0765 463.7623,232.1985 C465.7653,230.0135 465.5493,225.6025 469.7293,225.4955 C472.2833,228.5085 468.6123,230.8225 468.9803,234.0875 C472.7733,231.2495 476.1653,228.8325 479.3943,226.2145 C480.2583,225.5135 480.8993,224.2665 481.1713,223.1545 C482.1363,219.2205 484.3053,217.2555 488.1533,217.1705 C489.1863,217.1475 490.5103,217.5485 491.2053,217.0555 C495.2923,214.1605 499.2323,211.0575 503.4073,207.8835 C494.1643,191.2705 485.2753,175.2945 476.1963,158.9765 C470.6563,161.0995 465.8013,163.0485 460.8803,164.8115 C458.1163,165.8005 455.5113,166.8135 454.9053,169.9185 C452.8503,169.7465 450.9413,169.0295 449.4923,169.5625 C443.5753,171.7415 437.7983,174.3015 431.6083,176.8715 C432.8793,182.2055 434.0943,187.1135 435.1973,192.0475 C435.5423,193.5925 436.1753,195.6785 434.0873,196.2665 C432.0733,196.8335 431.4353,194.9795 431.0463,193.3145 C430.7153,191.9005 430.3703,190.4885 430.0023,189.0835 C427.7973,180.6545 425.6373,172.2125 423.3373,163.8095 C422.7293,161.5895 421.6823,159.4895 420.7273,157.0535 C416.8463,158.3305 414.0443,156.6975 411.5083,154.5605 C409.7393,153.0695 409.5613,150.1785 411.0373,148.7015 C412.6983,147.0395 414.2583,147.5475 415.6983,149.1545 C415.8973,149.3765 416.4263,149.3025 417.1843,149.4295 C414.7193,143.3735 412.2903,137.8595 407.3153,132.9505 Z M295.8463,136.3385 C271.2083,138.0865 246.6173,140.4715 221.9063,141.0505 C219.4103,141.1095 216.9183,141.3075 214.2113,141.4525 C214.3323,143.2845 214.3423,144.5395 214.5083,145.7735 C215.3803,152.2485 216.3223,158.7135 217.1853,165.1895 C219.7793,184.6295 222.1873,204.0965 224.9953,223.5055 C226.3723,233.0225 228.3783,242.4535 230.2823,251.8865 C231.4673,257.7575 231.6073,257.9155 237.7743,258.3395 C243.7403,258.7485 249.7603,259.1235 255.7173,258.8005 C277.8343,257.6025 299.9423,256.2065 322.0403,254.6945 C335.8003,253.7535 349.5723,252.7925 363.2713,251.2375 C373.7083,250.0525 384.0363,247.9215 394.1553,246.2535 C397.0463,238.2435 403.6573,141.5265 401.9103,134.0945 C401.2853,133.9935 400.5903,133.8005 399.8903,133.7795 C365.1633,132.7405 330.4703,133.8805 295.8463,136.3385 Z M429.9381,247.1386 C430.7201,247.9206 432.1801,248.7526 432.1281,249.4746 C432.0451,250.6156 430.9491,251.6836 429.8941,253.4216 C428.7941,251.8566 427.6631,250.9136 427.8271,250.3406 C428.1631,249.1686 429.1931,248.1936 429.9381,247.1386 Z M215.8279,244.4476 C216.4869,246.4136 216.8329,248.4836 217.3379,250.6076 C215.2549,252.2286 213.5829,251.6606 212.3329,249.7266 C211.2209,248.0066 210.6169,246.0906 211.9599,244.1586 C213.0439,242.5986 215.2459,242.7116 215.8279,244.4476 Z M177.6434,243.9586 C177.1294,245.9906 176.4964,248.0286 175.5934,249.9096 C175.2124,250.7026 174.0034,251.5576 173.1804,251.547687 C172.3664,251.5376 170.8094,250.3546 170.8814,249.8896 C171.3384,246.9786 172.0924,244.1046 172.9224,241.2686 C173.0694,240.7656 174.0304,240.5016 174.3194,240.3166 C176.3274,240.1476 178.0894,242.2006 177.6434,243.9586 Z M190.4369,241.6484 C191.6279,241.6604 193.2909,242.5794 193.8779,243.6014 C194.7289,245.0804 194.7989,247.0094 195.3159,249.2394 C195.0819,249.5934 194.7489,250.6934 194.1039,250.9254 C193.2249,251.2414 191.8749,251.2454 191.1439,250.7584 C189.8399,249.8884 188.6089,248.6964 187.8019,247.3634 C187.1409,246.2724 186.5539,244.5044 187.0079,243.5444 C187.4809,242.5464 189.2459,241.6374 190.4369,241.6484 Z M431.1389,237.3525 C431.0249,238.2765 429.9489,239.6095 429.0849,239.8115 C426.7679,240.3545 423.8789,238.2285 424.0619,236.1895 C424.1689,235.0015 425.1399,233.8905 425.5249,233.1335 C427.8909,232.9075 431.3379,235.7195 431.1389,237.3525 Z M161.0583,236.5072 C160.4703,237.4472 159.7123,238.2812 158.7363,239.3332 C158.0503,240.0712 156.8503,239.9732 156.2923,239.1352 C155.6783,238.2132 155.2293,237.5402 155.4053,237.2542 C156.1503,236.0512 157.4063,234.9562 158.7083,234.4232 C159.1633,234.2362 161.1673,236.3332 161.0583,236.5072 Z M442.6464,229.0171 C444.6084,230.3071 446.1404,232.2511 448.1104,234.1701 C446.9074,235.2491 446.2434,236.3261 445.4054,236.4831 C444.1344,236.7231 442.5944,236.6461 441.4404,236.1131 C440.0714,235.4821 438.9854,234.2331 437.7874,233.2391 C436.0754,231.8181 436.1524,229.2231 438.2054,228.5271 C439.5144,228.0831 441.5114,228.2711 442.6464,229.0171 Z M193.4991,229.3919 C195.4381,229.6179 196.3611,230.7969 195.8521,232.8109 C195.7271,233.3049 195.5961,233.7969 195.4561,234.3039 C195.0091,235.9279 193.1431,236.7339 191.6861,235.8899 C189.9081,234.8619 189.4651,233.6589 189.9101,231.9499 C190.3881,230.1159 191.6541,229.1769 193.4991,229.3919 Z M163.555,225.7935 C164.716,226.4255 165.834,227.1375 167.085,227.9635 C168.448,228.8625 168.424,230.9665 166.956,231.6825 C166.788,231.7645 166.623,231.8185 166.454,231.8405 C164.578,232.0765 161.815,229.7445 161.936,228.0055 C161.991,227.1965 163.424,225.7215 163.555,225.7935 Z M459.2754,223.1955 C458.3424,226.2535 457.8664,228.0985 457.1914,229.8675 C456.9704,230.4445 456.1964,231.2395 455.7394,231.1995 C454.9794,231.1345 454.0484,230.6375 453.5984,230.0235 C453.1054,229.3515 453.0314,228.3475 452.8524,227.4735 C452.4804,225.6595 452.1774,223.5295 454.2214,222.7935 C455.5664,222.3085 457.3334,222.9955 459.2754,223.1955 Z M426.9258,223.3874 C428.1598,224.9794 429.1548,226.2634 430.1498,227.5484 C429.3578,228.0854 428.5608,229.0804 427.7758,229.0714 C425.8478,229.0504 424.1398,226.9774 424.6738,225.4994 C424.9128,224.8344 425.8008,224.4044 426.9258,223.3874 Z M178.5711,222.1422 C178.9991,222.9012 179.4271,223.6722 179.7701,224.4782 C180.3701,225.8852 180.5771,227.6632 178.7271,227.9182 C177.8281,228.0422 176.3241,226.6672 175.7471,225.6122 C174.9271,224.1142 174.7251,222.5562 176.3501,221.5592 C177.1181,221.0882 178.1291,221.3572 178.5711,222.1422 Z M321.4516,173.224391 C327.9436,173.1856 332.4346,178.5976 330.0006,184.5506 C327.0106,191.8586 327.0386,197.9396 331.2386,204.9386 C334.8786,211.0056 332.8406,218.3226 328.3506,222.4956 C322.9056,227.5576 314.4096,228.8956 308.0506,225.6936 C300.2646,221.7726 297.5626,212.9116 302.0536,205.4486 C302.6826,204.4036 304.1916,203.7466 305.4296,203.2466 C306.7086,202.7306 308.1536,202.6246 310.4486,202.1476 C309.1746,200.2606 308.7036,198.9236 307.7596,198.2836 C304.8036,196.2806 304.6416,193.5746 305.4346,190.5816 C306.2686,187.4346 306.9096,184.1696 308.2496,181.2366 C310.7706,175.7206 315.5776,173.2606 321.4516,173.224391 Z M198.7637,218.4567 C199.5977,218.7847 199.9657,220.2947 200.6197,221.3947 C199.7317,223.0617 199.0837,224.4657 198.2187,225.7207 C198.0717,225.9347 196.4817,225.6117 196.4307,225.3587 C196.1277,223.8717 195.8477,222.3037 196.0197,220.8167 C196.1827,219.4127 196.9267,217.7357 198.7637,218.4567 Z M318.5206,177.9326 C314.1196,179.1516 312.1896,182.3666 310.8626,186.3606 C309.6206,190.0976 308.9436,193.2446 312.1726,196.7796 C316.1546,201.1386 314.5266,205.3766 308.9856,207.0866 C308.6406,207.1926 308.2796,207.2886 307.9206,207.3096 C305.9126,207.4276 305.1756,208.7756 304.7736,210.4866 C302.7736,219.0126 308.8866,222.7686 315.6206,223.0876 C325.8266,222.9766 331.1186,214.7426 326.9566,205.4386 C326.6616,204.7766 326.3686,204.0886 325.9376,203.5166 C322.0326,198.3406 321.5566,192.9376 324.7316,187.2366 C325.0796,186.6126 325.2376,185.8816 325.4786,185.1976 C326.2156,183.1066 327.0006,180.9186 325.1176,179.0876 C323.2526,177.2776 320.9966,177.2466 318.5206,177.9326 Z M444.1851,217.5177 C443.7411,218.8287 442.6911,219.9357 441.3701,221.8327 C440.1901,220.1827 438.8511,219.0477 439.0581,218.4397 C439.4461,217.3007 440.5861,216.1047 441.7031,215.6617 C442.2431,215.4467 444.3011,217.1737 444.1851,217.5177 Z M422.4495,213.7625 C424.0545,213.8425 425.6995,214.1765 425.9165,216.2975 C426.0525,218.1665 424.5595,219.8825 422.5785,219.4835 C421.2735,219.2205 419.6845,218.1395 419.1225,216.9855 C418.4305,215.5655 420.4875,213.6645 422.4495,213.7625 Z M466.804,215.6107 C467.588,215.5577 468.443,216.5347 469.751,217.3757 C468.584,218.3207 467.804,219.4367 467.113,219.3847 C466.329,219.3247 465.625,218.2197 464.886,217.5687 C465.522,216.8717 466.123,215.6567 466.804,215.6107 Z M477.7017,210.8034 C478.9207,212.4454 480.1277,213.3644 480.0687,214.1914 C480.0107,214.9984 478.7597,216.0314 477.8287,216.3284 C477.3857,216.4704 475.9287,215.1564 475.9027,214.4654 C475.8667,213.5354 476.7707,212.5704 477.7017,210.8034 Z M173.5186,210.6148 C173.6936,210.6598 173.7226,211.2598 173.9536,212.0768 C173.3446,212.5288 172.6516,213.1838 171.8376,213.6098 C170.6756,214.2188 169.4456,214.7158 168.2056,215.1518 C167.4406,215.4208 166.2756,215.8898 165.8716,215.5578 C165.1536,214.9698 164.2546,213.4468 164.5306,213.0128 C165.4196,211.6148 166.6526,209.8188 168.0456,209.5148 C169.7166,209.1498 171.6946,210.1358 173.5186,210.6148 Z M410.6963,210.1466 C411.5113,211.1836 412.6013,212.1236 413.0153,213.3006 C413.0633,213.4346 413.0263,213.5966 412.9263,213.7926 C412.1733,215.2686 410.0193,215.1426 409.2663,213.6666 C409.0293,213.2026 408.8663,212.7726 408.8163,212.3306 C408.7423,211.6826 410.0253,210.8796 410.6963,210.1466 Z M470.2334,205.5978 C471.2514,206.6358 472.1604,208.2758 472.1834,209.6628 C472.2094,211.2238 470.5094,211.5578 469.3474,210.6988 C468.1004,209.7778 467.1764,208.4208 466.0274,207.1618 C467.3074,204.6868 468.8074,204.1428 470.2334,205.5978 Z M206.3037,205.0602 C203.1337,213.0412 197.3997,210.7062 191.9627,209.7572 C191.5957,209.6932 191.2667,209.4812 191.0737,209.1642 C190.2237,207.7712 190.7967,206.3122 192.3377,205.9162 C196.4137,204.8692 200.6267,204.3342 204.8047,203.7362 C205.2317,203.6752 205.7987,204.5942 206.3037,205.0602 Z M488.6597,200.9608 C491.2727,200.9958 493.6827,203.2868 493.5467,205.6068 C493.4127,207.8728 491.5057,209.6688 489.3477,209.5588 C486.2877,209.4028 483.6617,207.2208 483.7127,204.8768 C483.7597,202.7588 486.0737,200.9278 488.6597,200.9608 Z M445.9642,201.4765 C447.5962,204.2075 449.4102,205.9125 452.8762,204.6095 C453.1922,204.4895 454.1032,205.9525 454.7382,206.6805 C453.8902,207.3445 453.0422,208.0095 452.1932,208.6745 L451.7412,207.6545 C450.5822,207.7865 449.4262,207.9665 448.2622,208.0425 C445.5382,208.2205 442.7612,206.2295 442.3412,203.6135 C442.2222,202.8775 442.6222,201.5495 443.1352,201.3355 C443.9572,200.9925 445.6752,200.9935 445.9642,201.4765 Z M435.405,204.447 C434.671,205.742 433.552,206.819 432.168,208.443 C431.254,206.976 430.131,205.707 430.342,205.42 C431.206,204.247 432.433,203.305 433.668,202.496 C433.791,202.415 435.553,204.187 435.405,204.447 Z M415.1345,194.8524 C417.4925,195.5164 419.3355,197.1694 419.5715,199.8074 L419.601851,200.133138 C419.789713,202.102586 420.027553,204.305716 417.4185,204.7614 C414.7845,201.8654 412.7155,199.5904 410.5195,197.1744 C411.2685,195.0614 413.0775,194.2734 415.1345,194.8524 Z M179.0326,198.3768 C178.8736,200.5958 176.3906,203.2368 174.5416,202.8188 C173.7636,202.6428 172.9026,201.5678 172.6506,200.7288 C172.4476,200.0578 173.1076,199.1258 173.3926,198.2878 C172.3146,196.0718 172.7596,194.3788 175.3666,193.9888 C177.3116,193.6968 179.1926,196.1328 179.0326,198.3768 Z M198.4563,194.9636 C198.9943,195.6166 199.3873,196.1626 199.5353,196.7686 C199.9123,198.3016 197.4843,200.4436 196.0803,199.7726 C195.1383,199.3216 194.2373,197.7076 194.2583,196.6326 C194.2683,196.1106 194.6023,195.5956 195.0923,194.9816 C195.9463,193.9106 197.5843,193.9076 198.4563,194.9636 Z M473.0986,192.2672 C474.5936,192.3642 476.1246,192.4582 477.5366,192.8932 C477.8466,192.9882 478.1036,194.9612 477.7266,195.2742 C476.4406,196.3392 474.8636,197.0562 473.3866,197.8852 C473.2496,197.9622 473.0316,197.8952 472.4556,197.8952 C471.8076,197.6112 470.6846,197.3662 469.8906,196.7182 C468.3506,195.4612 468.9666,193.2252 470.9666,192.5642 C471.6406,192.3422 472.3946,192.2212 473.0986,192.2672 Z M448.0175,187.3918 C450.6735,188.3108 450.9665,190.5508 450.8365,193.5568 C447.0395,192.7938 444.8765,190.7608 445.6315,188.9428 C445.9475,188.1848 447.4385,187.1918 448.0175,187.3918 Z M521.8333,140.7565 C509.2073,149.6045 499.9243,161.5355 487.2673,169.7005 C491.7813,177.7355 496.0063,185.2555 500.0713,192.4885 C512.1583,187.0555 523.6713,181.7055 535.3323,176.6995 C543.1683,173.3365 551.2103,170.4525 559.1663,167.3715 C561.3283,166.5345 563.2663,165.5285 564.1283,163.1255 C564.4943,162.1035 563.5293,161.0935 562.4753,161.3545 C560.6513,161.8065 559.0123,162.2005 557.4123,162.7155 C552.2273,164.3815 547.0863,166.1825 541.9083,167.8715 C541.3263,168.0625 540.7343,168.2795 540.1313,168.4195 C537.9293,168.9315 536.7523,165.9395 538.7033,164.7975 C539.5703,164.2905 540.4243,163.8375 541.3243,163.5105 C546.7813,161.5265 552.2733,159.6015 557.8513,158.0025 C560.4853,157.2475 561.8313,156.0685 561.6393,153.6195 C561.5823,152.8965 561.0763,152.2645 560.3893,152.0335 C557.8873,151.1925 555.4303,152.0285 553.0233,152.7425 C548.3243,154.1355 543.7033,155.7985 538.9733,157.0685 C537.8543,157.3685 535.6353,156.9195 535.3093,156.1935 C534.3933,154.1495 536.2783,153.5195 537.8733,153.0095 C540.3393,152.2215 542.7993,151.4155 545.2473,150.5725 C546.9543,149.9855 548.6823,149.4645 550.4093,148.9385 C552.0213,148.4475 553.1673,147.7365 553.3013,146.0395 C553.3753,145.1005 552.5183,144.3545 551.5913,144.5215 C550.2903,144.7555 549.0403,144.9615 547.9093,145.4445 C537.2553,149.9975 526.6613,154.6915 516.0083,159.2455 L515.9783,159.2585 C514.2293,159.9935 512.3843,158.3845 512.8983,156.5585 C512.9793,156.2685 513.0943,156.0015 513.2613,155.7715 C515.3863,152.8355 517.9213,150.1995 520.1263,147.3175 C521.3653,145.6975 522.7893,143.9705 521.8333,140.7565 Z M488.4257,185.7147 C489.4037,185.9707 489.9287,187.9587 491.0367,189.7897 C489.8197,190.8267 488.9237,192.2157 488.0677,192.1917 C486.1487,192.1367 485.6497,190.4297 485.6787,188.7047 C485.7087,186.8857 486.5587,185.2277 488.4257,185.7147 Z M425.1289,185.9061 C425.8879,186.6971 427.2209,187.4701 427.2449,188.2821 C427.2689,189.0931 425.9829,189.9431 424.8999,191.2101 C423.9669,189.9161 422.8449,188.9821 423.0109,188.4561 C423.3189,187.4801 424.3809,186.7431 425.1289,185.9061 Z M208.7292,184.3303 C209.3042,184.8873 209.8102,185.8463 209.7952,186.6243 C209.7432,189.3453 206.7632,191.1823 203.1162,190.7843 C202.6412,187.6543 205.4192,186.2773 206.8092,184.2063 C207.0042,183.9163 208.3582,183.9723 208.7292,184.3303 Z M454.1485,174.4787 C455.2855,175.8457 456.4535,176.6527 456.7235,177.6917 C457.4535,180.5067 458.0165,183.2867 460.4155,185.3057 C460.7745,185.6077 460.8195,186.9517 460.4925,187.2527 C459.9255,187.7757 458.6195,188.3347 458.2115,188.0457 C456.6335,186.9277 454.8145,185.7247 453.9755,184.0947 C452.9375,182.0787 452.6245,179.6267 452.3475,177.3217 C452.2605,176.6017 453.3075,175.7447 454.1485,174.4787 Z M444.1148,184.7365 C442.2358,184.7365 440.5378,184.9095 438.9148,184.6375 C438.3848,184.5495 437.8108,183.3365 437.7068,182.5765 C437.6368,182.0615 438.2188,181.1995 438.7408,180.9085 C440.6848,179.8275 443.0068,181.3005 444.1148,184.7365 Z M171.9944,175.9493 C172.4874,175.9283 173.2714,176.9963 173.5034,177.7113 C174.0274,179.3273 174.2914,181.0273 174.7134,182.9333 C172.4644,184.4513 170.6574,184.0873 169.8424,182.2403 C169.1894,180.7613 169.2484,178.8383 169.4694,177.1763 C169.5434,176.6273 171.0944,175.9873 171.9944,175.9493 Z M472.9492,175.9963 C476.2072,176.0073 476.9722,177.2263 476.971201,179.1203 C476.9702,181.0323 476.1152,182.2303 474.0902,182.238331 C471.9422,182.2473 469.1082,180.2823 469.7262,179.1183 C470.5192,177.6233 472.2542,176.6283 472.9492,175.9963 Z M187.014,174.8852 C187.86,176.9072 187.535,178.7832 185.756,180.1482 C184.564,181.0642 182.948,180.1552 182.766,178.4212 C182.604,176.8782 182.732,175.3042 182.732,173.8102 C184.799,172.2062 186.153,172.8282 187.014,174.8852 Z M196.3122,171.271998 C198.6682,171.27 199.2312,172.907 199.3282,175.528 C198.3592,176.718 197.6072,178.487 196.3662,178.954 C194.7902,179.547 193.2012,177.198 193.2212,174.879 C193.2382,172.786 194.2052,171.275 196.3122,171.271998 Z M466.9585,173.0939 C465.4595,174.4489 464.5155,175.6639 463.2745,176.2229 C462.8565,176.4119 461.6875,174.9389 460.8625,174.2249 C461.8905,173.1939 462.8125,171.9939 464.0155,171.2409 C464.3485,171.0319 465.5145,172.1529 466.9585,173.0939 Z M415.9434,168.5309 C417.2894,170.3069 418.5894,171.3129 418.8564,172.5429 C419.2564,174.3929 417.3324,176.0339 415.4804,175.6819 C413.5964,175.3239 411.8094,174.3109 412.3954,172.1419 C412.7124,170.9689 414.2944,170.1379 415.9434,168.5309 Z M340.5965,156.0698 C340.7505,163.1098 333.7485,170.8878 326.5085,171.7188 C324.2245,171.9808 322.1795,170.1718 322.6435,167.7658 C323.0395,165.7108 323.7525,163.3308 325.1595,161.9368 C328.4445,158.6808 332.0425,155.6518 335.8745,153.0648 C338.7635,151.1158 340.5185,152.4588 340.5965,156.0698 Z M173.8063,162.6946 C174.7393,162.9796 175.5413,163.6966 176.6233,164.6166 C177.3113,165.2016 177.3183,166.2666 176.6343,166.8576 L176.6003,166.8866 C175.4323,167.8966 173.6503,167.7516 172.6973,166.5426 C172.2533,165.9796 171.8453,165.3986 171.5213,164.7736 C171.3813,164.5046 173.2683,162.5296 173.8063,162.6946 Z M335.5425,158.4538 C331.8765,160.6608 329.5095,162.4918 327.7675,166.3898 C331.9145,164.9398 334.2265,163.0518 335.5425,158.4538 Z M188.2241,156.4385 C188.6451,156.5545 189.0141,156.8615 189.4341,157.2785 C190.2661,158.1055 190.2561,159.4595 189.4161,160.2775 C188.7221,160.9535 188.0791,161.5445 187.3651,162.0325 C187.1921,162.1515 185.5831,160.9485 185.4651,160.2235 C185.1201,158.0905 186.7061,156.0215 188.2241,156.4385 Z M203.4956,152.403 C204.2596,153.203 204.7906,153.8 204.7796,154.387 C204.7576,155.4 203.5086,156.899 202.4726,157.261 C200.8466,157.828 199.6706,156.475 199.7746,154.891 C199.8176,154.236 200.1396,153.6 200.6026,152.776 C201.1996,151.714 202.6536,151.522 203.4956,152.403 Z M182.5085,147.205075 C184.2935,147.1991 185.4915,148.2741 185.6205,150.2041 C185.7645,152.3481 183.5725,155.4301 182.1815,154.7481 C181.0065,154.1721 180.4805,152.2741 179.6675,150.9611 C179.9075,148.6881 180.3755,147.2121 182.5085,147.205075 Z M189.9533,141.3938 C191.6443,141.7258 192.3043,142.9308 191.4263,145.7028 C191.6833,146.1478 192.5243,147.1728 192.8703,148.3448 C193.1223,149.1978 192.9793,150.4098 192.5093,151.1378 C192.2653,151.5168 190.8113,151.4648 190.1163,151.1448 C187.3393,149.8668 185.6913,146.5308 186.4333,143.9858 C186.9413,142.2448 188.0013,141.0098 189.9533,141.3938 Z M208.0137,129.5788 C208.4507,134.7618 207.2977,137.1618 204.6407,137.0228 C202.6687,136.9198 200.6187,134.4788 200.8327,132.4888 C201.1037,129.9748 203.2997,129.0278 208.0137,129.5788 Z M239.569627,122.7067 C239.5406,123.8387 239.3286,125.0427 238.8476,126.0627 C238.5036,126.7927 237.6276,127.2717 236.9896,127.8627 C236.4916,127.8467 235.9946,127.8297 235.4966,127.8127 C235.3176,126.5817 234.7076,125.1907 235.0856,124.1647 C235.4436,123.1927 236.7646,122.4557 237.8176,121.9237 C238.2036,121.7297 239.5766,122.4357 239.569627,122.7067 Z M264.8335,124.076 C265.4595,124.122 266.0195,125.054 266.9185,125.884 C265.8985,126.657 265.2515,127.147 264.6045,127.638 C264.0265,126.87 263.4495,126.103 262.8725,125.335 C263.5285,124.879 264.2135,124.03 264.8335,124.076 Z M275.4532,120.807 C275.9142,120.846 276.3432,121.254 276.8332,121.805 C277.6412,122.714 277.6442,124.09 276.8472,125.008 L276.8172,125.043 C275.8712,126.132 274.1372,126.112 273.2802,124.955 C273.0442,124.636 272.8662,124.306 272.7942,123.954 C272.4412,122.218 273.4962,120.641 275.4532,120.807 Z M338.8061,118.9435 C340.0751,120.9265 338.9291,122.4925 337.2981,123.4505 C336.0011,124.2135 334.3891,124.4405 332.9161,124.9055 C332.8731,124.7655 332.8311,124.6265 332.7881,124.4865 C332.0731,124.4865 331.3241,124.6245 330.6471,124.4605 C328.6571,123.9785 328.0741,122.1735 329.5751,120.8915 C330.9301,119.7345 332.4581,118.7255 334.0411,117.9035 C335.8061,116.9875 337.6431,117.1265 338.8061,118.9435 Z M251.6939,119.5293 C251.7789,119.5453 251.8619,119.5683 251.9449,119.5983 C253.5649,120.1883 253.7209,122.4703 252.2939,123.4373 C251.5299,123.9543 250.8259,124.3833 250.0689,124.6753 C249.5879,124.8603 248.1029,123.7983 247.8999,123.0763 C247.4499,121.4763 249.8939,119.2003 251.6939,119.5293 Z M300.7104,119.4947 C301.0674,119.8637 300.5914,121.5997 299.9854,122.2357 C298.8634,123.4127 297.7674,123.7337 296.6494,123.1847 C294.8114,122.2827 294.9524,119.6777 296.7684,118.7307 C297.0504,118.5837 297.3404,118.4667 297.6414,118.3947 C298.5684,118.1737 300.0094,118.7687 300.7104,119.4947 Z M319.5889,118.4532 C320.2809,118.4152 321.0389,119.5952 322.3389,120.7282 C320.7309,121.5482 319.6249,122.5892 318.7489,122.4222 C317.9109,122.2632 317.3119,120.8482 316.6079,119.9842 C317.5989,119.4312 318.5709,118.5082 319.5889,118.4532 Z M354.1548,117.206 C355.1118,117.63 356.0868,119.443 355.9418,120.481 C355.8208,121.354 354.0938,122.003 353.7188,122.279 C351.7608,121.889 350.8158,121.853 350.0108,121.5 C349.8788,121.442 349.7488,121.378 349.6208,121.309 C348.3008,120.598 347.8498,118.882 348.7728,117.7 C348.9968,117.414 349.2418,117.196 349.5278,117.108 C350.9578,116.664 352.8268,116.617 354.1548,117.206 Z M210.0539,116.1862 C211.7529,116.9392 212.1839,117.8742 211.7909,120.1002 C211.5479,121.4702 209.8679,122.0572 208.8159,121.1462 C207.6219,120.1132 207.3489,119.1322 207.6619,117.4472 C207.8639,116.3522 209.0349,115.7342 210.0539,116.1862 Z M285.9966,116.5959 C286.8316,117.4709 287.7886,118.0259 287.8316,118.6429 C287.8756,119.2779 287.0266,119.9739 286.5686,120.6429 C285.7906,120.0619 285.0126,119.4799 284.2346,118.8979 C284.7276,118.2539 285.2216,117.6089 285.9966,116.5959 Z M224.8365,113.2638 C226.0885,113.8168 226.7015,115.2658 226.2015,116.5398 C225.2615,118.9368 224.1135,119.6578 222.5275,119.1808 C220.6945,118.6308 218.8195,115.5778 219.7325,114.0688 C221.3105,111.4638 222.9955,112.4498 224.8365,113.2638 Z M266.3678,115.5977 C266.4588,115.7907 266.4898,115.9507 266.4428,116.0827 C266.0438,117.2007 264.9848,118.0817 264.1948,119.0597 C263.5638,118.3497 262.3448,117.5627 262.4248,116.9467 C262.4818,116.5147 262.6458,116.0977 262.8828,115.6457 C263.6198,114.2397 265.6928,114.1617 266.3678,115.5977 Z M318.9463,110.9432 C319.4033,111.6202 319.3843,113.4822 318.9193,113.7712 C316.6113,115.2042 314.0863,116.2892 311.5923,117.5192 C310.5143,116.7212 309.3763,116.2922 309.3053,115.7302 C309.1973,114.8622 309.5423,113.4872 310.1833,113.0612 C312.0753,111.8032 314.1463,110.7362 316.2793,109.9612 C316.9993,109.7002 318.4973,110.2792 318.9463,110.9432 Z M368.7555,110.3937 C369.5885,110.8477 369.9565,112.1537 370.7695,113.4567 C369.4925,114.8127 368.5135,115.8517 367.5345,116.8907 C366.8925,115.8107 365.7755,114.7587 365.7075,113.6437 C365.5735,111.4027 367.3825,109.6437 368.7555,110.3937 Z M242.9147,108.4329 C243.6817,109.4489 244.8987,110.3809 245.1057,111.4999 C245.3827,112.9989 245.0867,115.1069 242.8637,114.8079 C242.2807,114.7299 241.7897,113.9699 241.2007,113.0439 C240.6037,112.1049 240.7067,110.8769 241.4527,110.0509 L242.9147,108.4329 Z M274.2656,108.4188 C274.2906,109.4328 275.1766,110.5128 274.9886,111.4208 C274.7876,112.3898 273.7776,113.1918 273.3316,113.7868 C270.8996,113.5178 268.1976,110.4038 268.4776,108.7398 C268.8126,106.7428 270.1216,105.4998 272.1186,105.4398 C274.0396,105.3818 274.2266,106.8268 274.2656,108.4188 Z M232.9261,106.8684 C233.4191,106.9864 233.8501,107.3644 234.3951,107.8844 C235.1371,108.5924 235.1791,109.7694 234.4891,110.5294 C233.5471,111.5654 232.6921,112.4884 231.7391,113.2974 C231.5851,113.4274 229.8451,112.3664 229.6601,111.6484 C229.2321,109.9824 231.6631,106.5684 232.9261,106.8684 Z M290.4971,106.184975 C291.5921,106.188 293.1081,107.375 293.6241,108.431 C293.9691,109.135 293.1621,111.086 292.3681,111.491 C291.3271,112.022 289.6431,111.927 288.5101,111.449 C288.0771,111.267 287.7151,110.917 287.3291,110.444 C286.3611,109.26 286.7731,107.459 288.1661,106.826 C288.9921,106.452 289.7451,106.182 290.4971,106.184975 Z M330.3374,106.6847 C331.9354,107.5297 331.9704,109.8447 330.4854,110.8747 C330.2364,111.0477 330.0064,111.1427 329.7864,111.1237 C328.9924,111.0547 327.7824,109.6667 327.7424,108.8097 C327.7064,108.0327 328.9264,106.6447 329.7274,106.5387 C329.9184,106.5137 330.1204,106.5697 330.3374,106.6847 Z M345.6109,101.735926 C350.0879,101.754 352.8329,103.663 352.6999,106.666 C352.6109,108.688 350.8569,110.333 348.7809,110.344072 C345.5899,110.361 341.9569,107.349 341.8729,104.615 C341.8149,102.73 343.1169,101.726 345.6109,101.735926 Z M307.0664,103.1584 C308.2364,104.4124 309.1004,105.3384 309.9634,106.2634 C309.1084,107.0004 308.0194,108.4914 307.4474,108.3134 C306.3404,107.9714 305.4174,106.7624 304.6974,105.7204 C304.5824,105.5534 305.9124,104.3874 307.0664,103.1584 Z M377.1245,106.5407 C376.1765,107.3687 375.4205,108.4147 375.0245,108.2917 C374.2535,108.0557 373.6845,107.1637 373.0325,106.5417 C373.6165,105.9887 374.1605,105.0587 374.7945,104.9927 C375.3835,104.9307 376.0685,105.7927 377.1245,106.5407 Z M260.4213,104.0829 C260.5443,104.4079 260.5893,104.6899 260.5263,104.9449 C260.2583,106.0209 258.8863,107.3989 257.8193,107.5709 C256.0083,107.8639 255.4293,106.1379 255.7923,104.6709 C255.8633,104.3849 255.9793,104.1099 256.1363,103.8229 C257.0993,102.0609 259.7113,102.2049 260.4213,104.0829 Z M335.7554,95.6725 C336.0374,96.1115 336.1714,96.6445 336.6494,97.8005 C335.6584,98.2335 334.2524,99.2585 333.8524,98.9545 C331.7664,97.3745 329.9544,98.1935 327.8164,98.7245 C326.5904,99.0285 324.4164,98.3135 323.7184,97.3195 C322.5234,95.6175 324.2954,94.4055 325.6474,93.5195 C328.7764,91.4685 333.7554,92.5545 335.7554,95.6725 Z M314.5687,87.7926 C316.0077,88.5036 317.5237,89.3876 318.4997,90.6016 C319.2807,91.5726 319.9947,93.6516 319.4957,94.3516 C318.7197,95.4396 316.8957,96.2496 315.4997,96.2736 C314.3997,96.2926 312.8767,95.1836 312.2717,94.1486 C311.6047,93.0066 311.7707,91.3786 311.5747,89.9626 C311.3357,87.9786 312.7537,86.8956 314.5687,87.7926 Z" id="Stroke" fill="#000" transform="translate(358.219773, 194.434256) rotate(4.000000) translate(-358.219773, -194.434256)"/></g></g><g id="Face" transform="translate(324.000000, 316.000000) scale(1 1)" fill="#000"><g id="Face/Pleased" stroke="none" stroke-width="1" fill="none" fill-rule="evenodd"><path d="M15.289,26.7645 C15.992,27.4995 16.237,28.6585 16.736,29.6055 C18.87,33.6605 19.821,34.0925 24.363,33.0035 C25.792,32.6615 27.566,32.1025 27.877,33.9985 C28.029,34.9185 26.718,36.3905 25.709,37.1055 C25.293,37.4005 24.848,37.5895 24.386,37.7215 C22.672,38.2095 20.823,38.0515 19.179,37.3615 C15.124,35.6605 11.401,31.4875 11.859,27.8595 C11.935,27.2535 12.482,26.3265 12.946,26.2355 C13.689,26.0895 14.81,26.2635 15.289,26.7645 Z M51.8656,12.0665 C53.7236,12.7885 52.9736,14.3975 52.3126,15.7225 C50.3496,19.6615 45.9636,21.5925 41.8076,20.2415 C40.4556,19.8025 38.7926,18.7935 37.1436,17.9945 C37.7156,19.7555 37.3926,20.9685 37.0786,22.2235 C35.8346,27.2055 29.9976,29.3515 25.8846,26.2795 C25.2076,25.7725 24.5756,24.4985 24.8186,23.6325 C25.1286,22.5285 25.7836,22.4145 26.5806,22.4845 C27.5926,22.5725 28.3416,22.8195 29.0486,22.9705 C30.5936,23.3015 32.3706,23.1855 32.4876,21.4455 C32.5766,20.1355 32.6986,18.3105 31.6416,17.5985 C30.4696,16.8085 27.5736,17.1465 26.0576,16.7395 C26.0216,16.7295 25.9856,16.7185 25.9486,16.7065 C24.3666,16.1875 23.8726,14.0095 25.1636,12.9575 C25.2506,12.8865 25.3416,12.8255 25.4396,12.7755 C27.7566,11.5925 32.9626,12.3615 35.4866,14.8885 C36.9436,12.6355 38.2716,12.2575 40.4296,13.9855 C44.6016,17.3275 44.9366,17.1125 48.8136,13.2605 C49.5526,12.5265 51.0986,11.7685 51.8656,12.0665 Z M17.3927,13.8574 C18.2627,14.5184 18.2627,16.0124 17.8747,16.6634 C15.9057,19.9684 13.0497,22.0384 8.9797,21.9144 C5.6287,21.8944 3.0747,20.3084 1.0767,17.7624 C0.1587,16.5934 -0.7323,15.0524 0.9357,14.0304 C1.6227,13.6094 3.1107,14.2844 4.1347,14.7034 C4.7537,14.9574 5.1307,15.7484 5.7077,16.1764 C8.1357,17.9764 10.2687,17.9764 12.6457,16.1424 C13.5007,15.4814 14.1297,14.4754 15.0497,13.9694 C15.7017,13.6114 17.0657,13.6084 17.3927,13.8574 Z" id="Stroke" fill="#000"/></g></g></g></svg>