<?xml version="1.0" standalone="no"?>
<!DOCTYPE svg PUBLIC "-//W3C//DTD SVG 20010904//EN"
 "http://www.w3.org/TR/2001/REC-SVG-20010904/DTD/svg10.dtd">
<svg version="1.0" xmlns="http://www.w3.org/2000/svg"
 width="512.000000pt" height="512.000000pt" viewBox="0 0 512.000000 512.000000"
 preserveAspectRatio="xMidYMid meet">

<g transform="translate(0.000000,512.000000) scale(0.100000,-0.100000)"
fill="#000000" stroke="none">
<path d="M645 5106 c-84 -21 -147 -57 -211 -121 -98 -97 -134 -197 -134 -370
l0 -95 -90 0 c-112 0 -159 -20 -190 -80 -25 -50 -25 -90 0 -140 31 -60 78 -80
190 -80 l90 0 0 -95 c0 -162 34 -264 121 -360 55 -60 156 -117 237 -134 75
-16 3429 -16 3504 0 128 27 241 113 301 226 43 85 57 148 57 268 l0 95 90 0
c112 0 159 -20 190 -80 19 -37 20 -58 20 -325 0 -269 -1 -288 -21 -326 -14
-29 -32 -46 -62 -59 -23 -10 -555 -131 -1182 -270 -831 -184 -1155 -259 -1195
-278 -72 -35 -169 -132 -202 -202 -14 -30 -31 -82 -38 -115 -13 -59 -16 -63
-151 -200 -76 -77 -143 -153 -149 -168 -6 -18 -10 -186 -10 -468 0 -243 -5
-483 -11 -537 -11 -108 -50 -309 -103 -542 -20 -85 -36 -174 -36 -197 0 -209
153 -398 358 -442 68 -14 415 -14 484 0 204 43 358 234 358 442 0 23 -16 112
-36 197 -53 233 -92 434 -103 542 -6 54 -11 294 -11 537 0 282 -4 450 -10 468
-6 15 -74 91 -151 169 l-141 141 21 41 c12 24 35 49 53 58 30 16 246 64 1768
400 289 64 545 123 570 131 143 49 262 186 290 334 14 73 13 625 -1 691 -19
86 -59 158 -124 223 -98 98 -198 135 -370 135 l-95 0 0 95 c0 120 -14 183 -57
268 -60 115 -172 199 -301 226 -81 17 -3449 14 -3517 -3z m300 -626 l-340
-340 -3 277 c-3 319 0 335 72 378 41 25 42 25 326 25 l285 0 -340 -340z m1250
-110 l-450 -450 -465 0 -465 0 450 450 450 450 465 0 465 0 -450 -450z m1360
0 l-450 -450 -465 0 -465 0 450 450 450 450 465 0 465 0 -450 -450z m645 -370
c-13 -26 -34 -47 -60 -60 -37 -19 -58 -20 -322 -20 l-283 0 340 340 340 340 3
-280 c2 -265 1 -282 -18 -320z m-1862 -1843 l72 -72 0 -138 0 -137 -150 0
-150 0 0 137 0 138 72 72 c40 40 75 73 78 73 3 0 38 -33 78 -73z m72 -764 c0
-210 24 -376 101 -713 27 -118 49 -225 49 -238 0 -42 -38 -101 -80 -122 -35
-18 -59 -20 -221 -20 -175 0 -184 1 -224 24 -51 31 -80 88 -72 143 3 21 26
126 50 234 74 321 97 485 97 692 l0 117 150 0 150 0 0 -117z"/>
</g>
</svg>
