<?xml version="1.0" standalone="no"?>
<!DOCTYPE svg PUBLIC "-//W3C//DTD SVG 20010904//EN"
 "http://www.w3.org/TR/2001/REC-SVG-20010904/DTD/svg10.dtd">
<svg version="1.0" xmlns="http://www.w3.org/2000/svg"
 width="512.000000pt" height="512.000000pt" viewBox="0 0 512.000000 512.000000"
 preserveAspectRatio="xMidYMid meet">

<g transform="translate(0.000000,512.000000) scale(0.100000,-0.100000)"
fill="#000000" stroke="none">
<path d="M1485 4199 c-297 -31 -579 -142 -820 -323 -348 -261 -579 -646 -646
-1076 -17 -109 -17 -371 0 -480 84 -539 419 -995 916 -1243 87 -43 284 -110
385 -131 41 -9 139 -21 217 -28 694 -59 1365 349 1639 996 88 208 123 374 131
624 l6 172 -752 0 -751 0 0 -300 0 -300 395 0 c217 0 395 -2 395 -5 0 -12 -34
-72 -73 -130 -126 -188 -303 -326 -512 -401 -172 -61 -345 -78 -520 -49 -418
68 -752 371 -862 783 -23 85 -26 117 -26 252 0 135 3 167 26 252 93 347 350
626 683 738 169 58 322 72 494 45 258 -39 506 -179 664 -374 l28 -34 209 209
c115 115 209 215 209 223 0 22 -187 201 -280 267 -339 244 -750 355 -1155 313z"/>
<path d="M4060 3085 l0 -225 -225 0 -225 0 0 -300 0 -300 225 0 225 0 0 -225
0 -225 300 0 300 0 0 225 0 225 230 0 230 0 0 300 0 300 -230 0 -230 0 0 225
0 225 -300 0 -300 0 0 -225z"/>
</g>
</svg>
