<?xml version="1.0" standalone="no"?>
<!DOCTYPE svg PUBLIC "-//W3C//DTD SVG 20010904//EN"
 "http://www.w3.org/TR/2001/REC-SVG-20010904/DTD/svg10.dtd">
<svg version="1.0" xmlns="http://www.w3.org/2000/svg"
 width="512.000000pt" height="512.000000pt" viewBox="0 0 512.000000 512.000000"
 preserveAspectRatio="xMidYMid meet">

<g transform="translate(0.000000,512.000000) scale(0.100000,-0.100000)"
fill="#000000" stroke="none">
<path d="M2360 5109 c-712 -82 -1300 -564 -1514 -1239 -178 -561 -68 -1188
287 -1642 34 -43 92 -118 130 -166 119 -153 200 -340 232 -532 10 -64 15 -164
15 -302 0 -115 5 -231 11 -260 27 -126 121 -249 237 -307 55 -28 62 -35 72
-73 69 -274 260 -475 530 -559 108 -34 292 -34 400 0 270 84 461 285 530 559
10 38 17 45 72 73 116 58 210 181 237 307 6 29 11 145 11 260 0 296 25 428
115 617 51 106 87 161 205 310 117 147 191 263 255 398 254 540 228 1166 -70
1672 -328 559 -929 901 -1570 894 -60 -1 -144 -5 -185 -10z m485 -319 c144
-29 243 -64 380 -131 671 -331 992 -1101 755 -1810 -64 -192 -147 -339 -290
-513 -197 -241 -307 -466 -356 -729 l-18 -97 -756 0 -756 0 -18 98 c-47 259
-158 487 -351 722 -191 233 -288 430 -346 700 -30 139 -33 415 -6 560 118 636
624 1123 1263 1215 133 19 366 12 499 -15z m465 -3670 c0 -112 -20 -159 -80
-190 -38 -19 -58 -20 -670 -20 -612 0 -632 1 -670 20 -60 31 -80 78 -80 190
l0 90 750 0 750 0 0 -90z m-330 -515 c0 -23 -62 -119 -106 -165 -80 -84 -205
-140 -314 -140 -109 0 -234 56 -314 140 -44 46 -106 142 -106 165 0 3 189 5
420 5 231 0 420 -2 420 -5z"/>
<path d="M2488 4500 c-43 -23 -78 -82 -78 -130 0 -49 35 -107 78 -128 23 -12
70 -21 127 -25 453 -31 811 -389 842 -842 7 -111 28 -157 83 -185 77 -39 163
-13 201 62 19 38 21 53 16 134 -12 176 -56 335 -135 486 -197 378 -578 623
-1002 644 -83 4 -100 2 -132 -16z"/>
<path d="M145 4315 c-96 -34 -128 -146 -67 -232 29 -41 233 -238 261 -253 36
-18 104 -16 142 6 69 41 93 138 50 207 -11 18 -73 85 -139 149 -89 87 -128
119 -158 127 -47 13 -40 13 -89 -4z"/>
<path d="M4881 4319 c-37 -11 -256 -218 -292 -276 -43 -69 -19 -166 50 -207
38 -22 106 -24 142 -6 33 18 246 228 271 268 71 114 -41 258 -171 221z"/>
<path d="M78 3299 c-43 -22 -78 -81 -78 -129 0 -50 35 -107 80 -130 35 -18 59
-20 220 -20 210 0 244 10 280 80 25 50 25 90 0 140 -36 71 -69 80 -282 80
-162 -1 -187 -3 -220 -21z"/>
<path d="M4598 3299 c-43 -22 -78 -81 -78 -129 0 -50 35 -107 80 -130 35 -18
59 -20 220 -20 161 0 185 2 220 20 45 23 80 80 80 130 0 50 -35 107 -80 130
-35 18 -58 20 -222 20 -162 -1 -187 -3 -220 -21z"/>
<path d="M361 2519 c-37 -11 -256 -218 -292 -276 -43 -69 -19 -166 50 -207 38
-22 106 -24 142 -6 33 18 246 228 271 268 71 114 -41 258 -171 221z"/>
<path d="M4665 2515 c-96 -34 -128 -146 -67 -232 29 -41 233 -238 261 -253 36
-18 104 -16 142 6 69 41 93 138 50 207 -11 18 -73 85 -139 149 -89 87 -128
119 -158 127 -47 13 -40 13 -89 -4z"/>
</g>
</svg>
