<?xml version="1.0" standalone="no"?>
<!DOCTYPE svg PUBLIC "-//W3C//DTD SVG 20010904//EN"
 "http://www.w3.org/TR/2001/REC-SVG-20010904/DTD/svg10.dtd">
<svg version="1.0" xmlns="http://www.w3.org/2000/svg"
 width="512.000000pt" height="512.000000pt" viewBox="0 0 512.000000 512.000000"
 preserveAspectRatio="xMidYMid meet">

<g transform="translate(0.000000,512.000000) scale(0.100000,-0.100000)"
fill="#000000" stroke="none">
<path d="M3230 4940 c-147 -38 -292 -129 -420 -264 l-34 -37 532 -532 532
-532 -320 -320 -320 -320 -105 105 -105 105 212 212 213 213 -320 320 -320
320 -212 -212 -213 -213 -107 108 -108 107 -357 -357 -356 -356 106 -213 107
-214 -741 -742 c-771 -773 -782 -785 -839 -925 -165 -407 58 -872 480 -1003
100 -31 267 -38 371 -15 160 35 263 93 397 223 l87 86 68 -66 c91 -89 144
-125 220 -148 258 -80 531 80 583 342 12 61 13 61 84 73 153 26 305 182 339
346 l12 62 71 18 c39 10 90 27 114 39 52 27 142 110 171 159 12 20 23 38 25
41 2 2 55 -47 118 -110 l115 -115 425 425 425 425 -160 160 -160 160 640 640
640 640 -613 606 c-336 333 -635 622 -663 642 -71 51 -184 101 -271 121 -98
22 -248 20 -343 -4z m312 -300 c35 -11 84 -33 108 -49 25 -17 270 -253 545
-525 l500 -494 -532 -534 -533 -533 -107 108 -108 107 423 423 c232 232 422
427 422 432 0 5 -233 243 -517 527 -284 284 -515 519 -512 522 3 3 30 12 60
20 78 21 175 20 251 -4z m-654 -963 l102 -102 -108 -108 -107 -107 -105 105
-105 105 105 105 c58 58 107 105 110 105 3 0 51 -46 108 -103z m52 -902 l795
-795 -215 -215 -215 -215 -317 317 -318 318 -822 -821 c-618 -616 -836 -827
-874 -847 -146 -77 -318 -74 -453 6 -151 91 -242 287 -213 462 24 143 -11 104
879 996 l815 816 -107 213 -107 213 174 174 c95 95 175 173 178 173 3 0 363
-358 800 -795z m-197 -1085 c70 -74 85 -109 73 -175 -9 -46 -65 -102 -111
-111 -67 -12 -102 3 -178 76 l-72 69 105 105 c57 58 108 106 111 106 4 0 36
-31 72 -70z m-437 -412 c73 -76 84 -95 84 -153 0 -55 -25 -106 -61 -125 -84
-45 -139 -31 -231 58 l-69 66 103 103 c56 57 107 103 113 103 6 0 33 -24 61
-52z m-341 -552 c10 -48 -18 -120 -57 -149 -36 -27 -116 -34 -154 -14 -16 9
-56 43 -89 76 l-60 61 105 105 105 106 72 -74 c54 -55 73 -82 78 -111z"/>
<path d="M1605 1980 l-640 -640 108 -107 107 -108 640 640 640 640 -108 108
-107 107 -640 -640z"/>
<path d="M642 1017 l-102 -102 108 -108 107 -107 105 105 105 105 -105 105
c-58 58 -107 105 -110 105 -3 0 -51 -46 -108 -103z"/>
</g>
</svg>
