<?xml version="1.0" standalone="no"?>
<!DOCTYPE svg PUBLIC "-//W3C//DTD SVG 20010904//EN"
 "http://www.w3.org/TR/2001/REC-SVG-20010904/DTD/svg10.dtd">
<svg version="1.0" xmlns="http://www.w3.org/2000/svg"
 width="512.000000pt" height="512.000000pt" viewBox="0 0 512.000000 512.000000"
 preserveAspectRatio="xMidYMid meet">

<g transform="translate(0.000000,512.000000) scale(0.100000,-0.100000)"
fill="#000000" stroke="none">
<path d="M655 3304 c-11 -2 -45 -9 -75 -15 -125 -26 -267 -107 -366 -211 -96
-100 -162 -218 -195 -348 -18 -71 -18 -269 0 -340 69 -274 287 -492 561 -561
71 -18 269 -18 340 0 274 69 492 287 561 561 18 71 18 269 0 340 -68 269 -277
482 -546 557 -51 14 -243 26 -280 17z m176 -304 c235 -45 399 -275 361 -506
-32 -196 -180 -344 -376 -376 -289 -48 -556 219 -508 508 42 252 277 420 523
374z"/>
<path d="M2465 3304 c-11 -2 -45 -9 -75 -15 -217 -44 -429 -224 -522 -444 -41
-97 -53 -162 -53 -285 0 -123 12 -188 53 -285 93 -219 290 -387 522 -446 71
-18 269 -18 340 0 232 59 429 227 522 446 41 97 53 162 53 285 0 65 -6 139
-14 170 -68 269 -277 482 -546 557 -51 14 -243 26 -280 17z m176 -304 c235
-45 399 -275 361 -506 -32 -196 -180 -344 -376 -376 -289 -48 -556 219 -508
508 42 252 277 420 523 374z"/>
<path d="M4275 3304 c-11 -2 -45 -9 -75 -15 -217 -44 -429 -224 -522 -444 -41
-97 -53 -162 -53 -285 0 -123 12 -188 53 -285 93 -219 290 -387 522 -446 71
-18 269 -18 340 0 232 59 429 227 522 446 41 97 53 162 53 285 0 65 -6 139
-14 170 -68 269 -277 482 -546 557 -51 14 -243 26 -280 17z m176 -304 c235
-45 399 -275 361 -506 -41 -245 -270 -415 -508 -376 -245 41 -415 270 -376
508 42 252 277 420 523 374z"/>
</g>
</svg>
